<svg width="96" height="96" viewBox="0 0 96 96" fill="none" xmlns="http://www.w3.org/2000/svg">
<path d="M51.0002 15.7602C55.0002 12.8802 59.6402 11.4402 64.8802 11.4402C67.7602 11.4402 70.9202 12.2002 74.3602 13.8002C77.8002 15.3602 80.5202 17.2002 82.5202 19.3202C86.6402 24.4402 88.3602 30.4002 87.7602 37.2002C87.1202 44.0002 84.8802 49.3202 81.0002 53.0802L50.6402 83.4402C49.8802 84.2002 48.9202 84.5602 47.8002 84.5602C46.6802 84.5602 45.7602 84.2002 45.0002 83.4402C44.6308 83.0758 44.3406 82.639 44.1479 82.1572C43.9551 81.6754 43.864 81.1589 43.8802 80.6402C43.8802 79.5202 44.2402 78.5602 45.0002 77.8002L63.3602 59.4402C64.3602 58.5602 64.3602 57.6402 63.3602 56.6402C62.3602 55.6402 61.4402 55.6402 60.5602 56.6402L42.2002 75.0002C41.83 75.3731 41.3864 75.6652 40.8976 75.858C40.4088 76.0508 39.8853 76.1401 39.3602 76.1202C38.2402 76.1202 37.3202 75.7602 36.5602 75.0002C36.1908 74.6358 35.9006 74.199 35.7079 73.7172C35.5151 73.2354 35.424 72.7189 35.4402 72.2002C35.4402 71.0802 35.8002 70.1202 36.5602 69.3602L54.9202 51.0002C56.0002 50.0002 56.0002 49.0002 54.9202 48.0002C54.0002 47.0002 53.1202 47.0002 52.1202 48.0002L33.7602 66.5602C33.3858 66.9274 32.9415 67.2157 32.4537 67.4081C31.9659 67.6004 31.4444 67.693 30.9202 67.6802C29.8002 67.6802 28.8402 67.3202 28.0002 66.5602C27.2002 65.8002 26.8002 64.8802 26.8002 63.7602C26.8002 62.6402 27.2402 61.6402 28.1202 60.7602L46.5202 42.3602C47.5202 41.3602 47.5202 40.4402 46.5202 39.5602C45.5202 38.6802 44.5602 38.6802 43.6802 39.5602L25.1202 58.0002C24.2402 58.8002 23.3202 59.2402 22.3202 59.2402C21.2002 59.2402 20.2402 58.8402 19.5202 58.0002C18.7602 57.2002 18.3602 56.2402 18.3602 55.1202C18.3602 54.0002 18.7602 53.0802 19.5202 52.3202C31.7602 40.0002 39.3202 32.5602 42.2002 29.8002L56.4402 43.8802C58.0002 45.3602 59.8002 46.1202 62.0002 46.1202C64.8002 46.1202 67.0002 45.0002 68.6402 42.7602C69.7602 41.1202 70.1602 39.3202 69.8402 37.3202C69.5202 35.3202 68.6802 33.6402 67.3202 32.2402L51.0002 15.7602ZM59.2402 41.0802L42.2002 24.0002L13.8802 52.3202C10.5202 48.9202 8.60019 43.7202 8.16019 36.6402C7.72019 29.6002 9.64019 23.4802 13.8802 18.3602C18.6402 13.6402 24.3202 11.2402 30.9202 11.2402C37.5602 11.2402 43.2002 13.6402 47.8002 18.3602L64.8802 35.4402C65.6402 36.2002 66.0002 37.1202 66.0002 38.2402C66.0002 39.3602 65.6402 40.3202 64.8802 41.0802C64.1202 41.8002 63.2002 42.2002 62.0002 42.2002C60.9202 42.2002 60.0002 41.8002 59.2402 41.0802Z" fill="#334AC0"/>
</svg>
