<svg width="96" height="96" viewBox="0 0 96 96" fill="none" xmlns="http://www.w3.org/2000/svg">
<path d="M80 24H48L40 16H16C11.56 16 8 19.56 8 24V72C8 74.1217 8.84285 76.1566 10.3431 77.6569C11.8434 79.1571 13.8783 80 16 80H80C84.4 80 88 76.4 88 72V32C88 27.6 84.4 24 80 24ZM73.68 54L60 68L46.36 54C44.88 52.48 44 50.48 44 48.2C44 43.68 47.6 40 52 40C54.16 40 56.2 40.92 57.68 42.44L60 44.8L62.36 42.4C63.8 40.92 65.84 40 68 40C72.4 40 76 43.68 76 48.2C76 50.44 75.12 52.52 73.68 54Z" fill="#334AC0"/>
</svg>
