<svg width="96" height="96" viewBox="0 0 96 96" fill="none" xmlns="http://www.w3.org/2000/svg">
<path d="M84 20C79.56 18.6 74.68 18 70 18C62.2 18 53.8 19.6 48 24C42.2 19.6 33.8 18 26 18C18.2 18 9.8 19.6 4 24V82.6C4 83.6 5 84.6 6 84.6C6.4 84.6 6.6 84.4 7 84.4C12.4 81.8 20.2 80 26 80C33.8 80 42.2 81.6 48 86C53.4 82.6 63.2 80 70 80C76.6 80 83.4 81.2 89 84.2C89.4 84.4 89.6 84.4 90 84.4C91 84.4 92 83.4 92 82.4V24C89.6 22.2 87 21 84 20ZM84 74C79.6 72.6 74.8 72 70 72C63.2 72 53.4 74.6 48 78V32C53.4 28.6 63.2 26 70 26C74.8 26 79.6 26.6 84 28V74Z" fill="#334AC0"/>
</svg>
