<svg width="88" height="88" viewBox="0 0 88 88" fill="none" xmlns="http://www.w3.org/2000/svg">
<path d="M44 20.1665C47.4036 20.1665 50.6678 21.5186 53.0745 23.9253C55.4813 26.332 56.8333 29.5962 56.8333 32.9998C56.8333 36.4034 55.4813 39.6677 53.0745 42.0744C50.6678 44.4811 47.4036 45.8332 44 45.8332C40.5964 45.8332 37.3322 44.4811 34.9255 42.0744C32.5187 39.6677 31.1667 36.4034 31.1667 32.9998C31.1667 29.5962 32.5187 26.332 34.9255 23.9253C37.3322 21.5186 40.5964 20.1665 44 20.1665ZM18.3333 29.3332C20.3867 29.3332 22.2933 29.8832 23.9433 30.8732C23.3933 36.1165 24.9333 41.3232 28.0867 45.3932C26.2533 48.9132 22.5867 51.3332 18.3333 51.3332C15.416 51.3332 12.6181 50.1742 10.5552 48.1113C8.49226 46.0484 7.33333 43.2506 7.33333 40.3332C7.33333 37.4158 8.49226 34.6179 10.5552 32.555C12.6181 30.4921 15.416 29.3332 18.3333 29.3332ZM69.6667 29.3332C72.584 29.3332 75.3819 30.4921 77.4448 32.555C79.5077 34.6179 80.6667 37.4158 80.6667 40.3332C80.6667 43.2506 79.5077 46.0484 77.4448 48.1113C75.3819 50.1742 72.584 51.3332 69.6667 51.3332C65.4133 51.3332 61.7467 48.9132 59.9133 45.3932C63.1102 41.266 64.5941 36.0659 64.0567 30.8732C65.7067 29.8832 67.6133 29.3332 69.6667 29.3332ZM20.1667 66.9165C20.1667 59.3265 30.8367 53.1665 44 53.1665C57.1633 53.1665 67.8333 59.3265 67.8333 66.9165V73.3332H20.1667V66.9165ZM0 73.3332V67.8332C0 62.7365 6.93 58.4465 16.3167 57.1998C14.1533 59.6932 12.8333 63.1398 12.8333 66.9165V73.3332H0ZM88 73.3332H75.1667V66.9165C75.1667 63.1398 73.8467 59.6932 71.6833 57.1998C81.07 58.4465 88 62.7365 88 67.8332V73.3332Z" fill="#334AC0"/>
</svg>
