<svg width="71" height="71" viewBox="0 0 71 71" fill="none" xmlns="http://www.w3.org/2000/svg">
<path d="M35.5 69C54.0015 69 69 54.0015 69 35.5C69 16.9985 54.0015 2 35.5 2C16.9985 2 2 16.9985 2 35.5C2 54.0015 16.9985 69 35.5 69Z" stroke="white" stroke-width="3"/>
<path d="M55.1139 38.1954V52.0068H47.1065V39.121C47.1065 35.8856 45.9504 33.6761 43.0511 33.6761C40.8386 33.6761 39.5242 35.1636 38.9438 36.604C38.733 37.1187 38.6786 37.8336 38.6786 38.5555V52.0062H30.6706C30.6706 52.0062 30.7781 30.182 30.6706 27.9229H38.6792V31.3358C38.6631 31.3626 38.6404 31.3889 38.6261 31.4146H38.6792V31.3358C39.7434 29.6983 41.6412 27.3574 45.896 27.3574C51.1643 27.3574 55.1139 30.7995 55.1139 38.1954ZM22.2935 16.314C19.5543 16.314 17.7622 18.112 17.7622 20.4744C17.7622 22.7867 19.5024 24.6367 22.1884 24.6367H22.2404C25.0333 24.6367 26.7699 22.7867 26.7699 20.4744C26.7168 18.112 25.0333 16.314 22.2935 16.314ZM18.2382 52.0068H26.2432V27.9229H18.2382V52.0068Z" fill="#F1F2F2"/>
</svg>
