<svg width="528" height="524" viewBox="0 0 528 524" fill="none" xmlns="http://www.w3.org/2000/svg">
<path d="M410.806 112.21C367.709 36.5336 299.909 -5.69102 218.204 0.619593C136.5 6.9302 132.716 67.9456 132.716 136.362C132.716 203.983 36.1584 172.443 5.37495 254.006C-18.6105 317.561 43.7773 433.679 72.5085 481.881H480.082C495.897 427.253 524.628 319.741 527.745 250.158C533.35 125.049 445.194 172.622 410.806 112.21Z" fill="#334AC0"/>
<path opacity="0.7" d="M410.806 112.21C367.709 36.5336 299.909 -5.69102 218.204 0.619593C136.5 6.9302 132.716 67.9456 132.716 136.362C132.716 203.983 36.1584 172.443 5.37495 254.006C-18.6105 317.561 43.7773 433.679 72.5085 481.881H480.082C495.897 427.253 524.628 319.741 527.745 250.158C533.35 125.049 445.194 172.622 410.806 112.21Z" fill="white"/>
<path d="M377.098 394.353C377.098 394.353 403.392 315.278 370.377 388.312C370.377 388.312 358.731 324.744 361.77 394.109C361.77 394.109 327.729 340.879 356.435 405.653C356.435 405.653 312.26 358.541 357.871 419.929C357.871 419.929 446.964 415.452 377.739 412.413C377.739 412.413 458.328 378.269 381.51 402.818C381.51 402.844 450.196 334.825 377.098 394.353Z" fill="#334AC0"/>
<path d="M371.494 396.11C371.494 396.11 353.78 421.083 347.367 446.967" stroke="#263238" stroke-width="0.75" stroke-linecap="round" stroke-linejoin="round"/>
<path d="M322.996 396.893C322.996 396.893 260.993 348.05 315.441 400.933C315.441 400.933 255.08 390.89 317.84 410.463C317.84 410.463 259.48 423.687 326.434 418.929C326.434 418.929 270.267 443.145 339.619 422.238C339.619 422.238 364.259 341.431 339.299 402.126C339.299 402.126 334.784 319.357 331.975 395.713C331.975 395.687 293.393 312.649 322.996 396.893Z" fill="#334AC0"/>
<path opacity="0.3" d="M322.996 396.893C322.996 396.893 260.993 348.05 315.441 400.933C315.441 400.933 255.08 390.89 317.84 410.463C317.84 410.463 259.48 423.687 326.434 418.929C326.434 418.929 270.267 443.145 339.619 422.238C339.619 422.238 364.259 341.431 339.299 402.126C339.299 402.126 334.784 319.357 331.975 395.713C331.975 395.687 293.393 312.649 322.996 396.893Z" fill="white"/>
<path d="M352.189 449.34C341.043 412.143 321.406 403.062 321.406 403.062" stroke="#263238" stroke-width="0.75" stroke-linecap="round" stroke-linejoin="round"/>
<path d="M348.084 401.216C348.084 401.216 356.037 408.681 358.153 418.826C365.782 416.217 373.848 415.132 381.895 415.633" stroke="#263238" stroke-width="0.5" stroke-linecap="round" stroke-linejoin="round"/>
<path d="M356.486 393.173C356.486 393.173 361.95 399.804 358.153 418.826L379.06 404.165" stroke="#263238" stroke-width="0.5" stroke-linecap="round" stroke-linejoin="round"/>
<path d="M341.941 402.152C339.671 407.807 338.563 413.862 338.683 419.955C338.683 419.955 329.705 420.955 323.625 423.803" stroke="#263238" stroke-width="0.5" stroke-linecap="round" stroke-linejoin="round"/>
<path d="M332.257 399.791C333.2 406.835 335.371 413.66 338.67 419.954C338.67 419.954 332.949 414.824 317.814 413.977" stroke="#263238" stroke-width="0.5" stroke-linecap="round" stroke-linejoin="round"/>
<path d="M331 444.132H367.991L362.309 478.763H360.513V480.149C360.515 480.386 360.47 480.62 360.38 480.84C360.291 481.059 360.159 481.259 359.992 481.427C359.825 481.595 359.627 481.728 359.408 481.819C359.189 481.91 358.955 481.957 358.718 481.957H356.999C356.762 481.957 356.528 481.91 356.309 481.819C356.09 481.728 355.892 481.595 355.725 481.427C355.558 481.259 355.426 481.059 355.336 480.84C355.247 480.62 355.202 480.386 355.203 480.149V478.763H343.788V480.149C343.788 480.386 343.741 480.621 343.65 480.841C343.559 481.06 343.426 481.26 343.258 481.428C343.09 481.595 342.891 481.729 342.671 481.82C342.452 481.91 342.217 481.957 341.979 481.957H340.26C339.783 481.954 339.326 481.762 338.99 481.423C338.654 481.084 338.465 480.626 338.465 480.149V478.763H336.669L331 444.132Z" fill="#263238" stroke="#263238" stroke-width="0.75" stroke-linecap="round" stroke-linejoin="round"/>
<path d="M494.114 481.88H61.2216C35.0942 485.882 14.1358 491.064 20.7157 496.964C36.1075 510.778 146.954 494.643 143.696 510.637C140.438 526.632 223.566 522.668 268.792 522.668C314.018 522.668 363.387 518.423 347.495 506.148C331.603 493.873 437.101 502.839 482.442 502.839C515.534 502.839 538.211 493.604 494.114 481.88Z" fill="#334AC0"/>
<path d="M391.746 30.7747H171.798C165.947 30.7747 161.203 35.518 161.203 41.3693V330.67C161.203 336.521 165.947 341.264 171.798 341.264H391.746C397.597 341.264 402.34 336.521 402.34 330.67V41.3693C402.34 35.518 397.597 30.7747 391.746 30.7747Z" fill="#263238" stroke="#263238" stroke-linecap="round" stroke-linejoin="round"/>
<path d="M387.898 26.2209H167.95C162.099 26.2209 157.355 30.9643 157.355 36.8156V326.116C157.355 331.967 162.099 336.711 167.95 336.711H387.898C393.749 336.711 398.492 331.967 398.492 326.116V36.8156C398.492 30.9643 393.749 26.2209 387.898 26.2209Z" fill="#334AC0"/>
<mask id="mask0_359_86" style="mask-type:luminance" maskUnits="userSpaceOnUse" x="157" y="26" width="242" height="311">
<path d="M387.898 26.2209H167.95C162.099 26.2209 157.355 30.9643 157.355 36.8156V326.116C157.355 331.967 162.099 336.711 167.95 336.711H387.898C393.749 336.711 398.492 331.967 398.492 326.116V36.8156C398.492 30.9643 393.749 26.2209 387.898 26.2209Z" fill="white"/>
</mask>
<g mask="url(#mask0_359_86)">
<path opacity="0.8" d="M387.898 26.2209H167.95C162.099 26.2209 157.355 30.9643 157.355 36.8156V326.116C157.355 331.967 162.099 336.711 167.95 336.711H387.898C393.749 336.711 398.492 331.967 398.492 326.116V36.8156C398.492 30.9643 393.749 26.2209 387.898 26.2209Z" fill="white"/>
</g>
<path d="M387.898 26.2209H167.95C162.099 26.2209 157.355 30.9643 157.355 36.8156V326.116C157.355 331.967 162.099 336.711 167.95 336.711H387.898C393.749 336.711 398.492 331.967 398.492 326.116V36.8156C398.492 30.9643 393.749 26.2209 387.898 26.2209Z" stroke="#263238" stroke-linecap="round" stroke-linejoin="round"/>
<path d="M388.231 70.5876H167.617V156.627H388.231V70.5876Z" fill="white" stroke="#263238" stroke-linecap="round" stroke-linejoin="round"/>
<path d="M388.231 156.627L167.617 70.5876" stroke="#263238" stroke-width="0.75" stroke-linecap="round" stroke-linejoin="round"/>
<path d="M167.617 156.627L388.231 70.5876" stroke="#263238" stroke-width="0.75" stroke-linecap="round" stroke-linejoin="round"/>
<path d="M277.924 174.059H167.617V260.098H277.924V174.059Z" fill="#334AC0"/>
<mask id="mask1_359_86" style="mask-type:luminance" maskUnits="userSpaceOnUse" x="167" y="174" width="111" height="87">
<path d="M277.924 174.059H167.617V260.098H277.924V174.059Z" fill="white"/>
</mask>
<g mask="url(#mask1_359_86)">
<path opacity="0.5" d="M277.924 174.059H167.617V260.098H277.924V174.059Z" fill="white"/>
</g>
<path d="M277.924 174.059H167.617V260.098H277.924V174.059Z" stroke="#263238" stroke-linecap="round" stroke-linejoin="round"/>
<path d="M325.702 41.0618H230.145C229.083 41.0618 228.221 41.9232 228.221 42.9857C228.221 44.0483 229.083 44.9097 230.145 44.9097H325.702C326.765 44.9097 327.626 44.0483 327.626 42.9857C327.626 41.9232 326.765 41.0618 325.702 41.0618Z" fill="#263238" stroke="#263238" stroke-width="0.75" stroke-linecap="round" stroke-linejoin="round"/>
<path d="M386.307 177.907H290.75C290.24 177.907 289.751 177.704 289.39 177.343C289.029 176.982 288.826 176.493 288.826 175.983C288.826 175.472 289.029 174.983 289.39 174.622C289.751 174.261 290.24 174.059 290.75 174.059H386.307C386.818 174.059 387.307 174.261 387.668 174.622C388.029 174.983 388.231 175.472 388.231 175.983C388.231 176.493 388.029 176.982 387.668 177.343C387.307 177.704 386.818 177.907 386.307 177.907Z" fill="#263238" stroke="#263238" stroke-width="0.75" stroke-linecap="round" stroke-linejoin="round"/>
<path d="M365.785 199.173H290.75C290.24 199.173 289.751 198.971 289.39 198.61C289.029 198.249 288.826 197.76 288.826 197.249C288.826 196.739 289.029 196.25 289.39 195.889C289.751 195.528 290.24 195.325 290.75 195.325H365.785C366.295 195.325 366.785 195.528 367.146 195.889C367.506 196.25 367.709 196.739 367.709 197.249C367.709 197.76 367.506 198.249 367.146 198.61C366.785 198.971 366.295 199.173 365.785 199.173Z" fill="#263238" stroke="#263238" stroke-width="0.75" stroke-linecap="round" stroke-linejoin="round"/>
<path d="M355.845 210.371H290.75C289.688 210.371 288.826 211.232 288.826 212.295C288.826 213.357 289.688 214.219 290.75 214.219H355.845C356.907 214.219 357.769 213.357 357.769 212.295C357.769 211.232 356.907 210.371 355.845 210.371Z" fill="#263238" stroke="#263238" stroke-width="0.75" stroke-linecap="round" stroke-linejoin="round"/>
<path d="M374.764 229.251H290.75C290.24 229.251 289.751 229.049 289.39 228.688C289.029 228.327 288.826 227.838 288.826 227.327C288.826 226.817 289.029 226.328 289.39 225.967C289.751 225.606 290.24 225.403 290.75 225.403H374.764C375.274 225.403 375.763 225.606 376.124 225.967C376.485 226.328 376.688 226.817 376.688 227.327C376.688 227.838 376.485 228.327 376.124 228.688C375.763 229.049 375.274 229.251 374.764 229.251Z" fill="#263238" stroke="#263238" stroke-width="0.75" stroke-linecap="round" stroke-linejoin="round"/>
<path d="M366.747 244.284H290.75C290.24 244.284 289.751 244.081 289.39 243.72C289.029 243.359 288.826 242.87 288.826 242.36C288.826 241.849 289.029 241.36 289.39 240.999C289.751 240.639 290.24 240.436 290.75 240.436H366.747C367.257 240.436 367.747 240.639 368.108 240.999C368.468 241.36 368.671 241.849 368.671 242.36C368.671 242.87 368.468 243.359 368.108 243.72C367.747 244.081 367.257 244.284 366.747 244.284Z" fill="#263238" stroke="#263238" stroke-width="0.75" stroke-linecap="round" stroke-linejoin="round"/>
<path d="M355.845 259.33H290.75C290.24 259.33 289.751 259.127 289.39 258.766C289.029 258.405 288.826 257.916 288.826 257.406C288.826 256.895 289.029 256.406 289.39 256.045C289.751 255.684 290.24 255.482 290.75 255.482H355.845C356.355 255.482 356.844 255.684 357.205 256.045C357.566 256.406 357.769 256.895 357.769 257.406C357.769 257.916 357.566 258.405 357.205 258.766C356.844 259.127 356.355 259.33 355.845 259.33Z" fill="#263238" stroke="#263238" stroke-width="0.75" stroke-linecap="round" stroke-linejoin="round"/>
<path d="M340.132 57.941H215.716C215.205 57.941 214.716 57.7382 214.355 57.3774C213.994 57.0166 213.792 56.5273 213.792 56.017C213.792 55.5067 213.994 55.0174 214.355 54.6565C214.716 54.2957 215.205 54.093 215.716 54.093H340.132C340.642 54.093 341.132 54.2957 341.493 54.6565C341.853 55.0174 342.056 55.5067 342.056 56.017C342.056 56.5273 341.853 57.0166 341.493 57.3774C341.132 57.7382 340.642 57.941 340.132 57.941Z" fill="#263238" stroke="#263238" stroke-width="0.75" stroke-linecap="round" stroke-linejoin="round"/>
<path d="M277.924 323.449C289.258 323.449 298.446 314.261 298.446 302.927C298.446 291.592 289.258 282.404 277.924 282.404C266.59 282.404 257.402 291.592 257.402 302.927C257.402 314.261 266.59 323.449 277.924 323.449Z" fill="#334AC0" stroke="#263238" stroke-width="0.75" stroke-linecap="round" stroke-linejoin="round"/>
<path d="M216.357 323.449C227.691 323.449 236.879 314.261 236.879 302.927C236.879 291.592 227.691 282.404 216.357 282.404C205.023 282.404 195.835 291.592 195.835 302.927C195.835 314.261 205.023 323.449 216.357 323.449Z" fill="#334AC0" stroke="#263238" stroke-linecap="round" stroke-linejoin="round"/>
<path d="M339.492 323.449C350.826 323.449 360.014 314.261 360.014 302.927C360.014 291.592 350.826 282.404 339.492 282.404C328.157 282.404 318.969 291.592 318.969 302.927C318.969 314.261 328.157 323.449 339.492 323.449Z" fill="#334AC0" stroke="#263238" stroke-linecap="round" stroke-linejoin="round"/>
<path d="M331.949 211.141H297.523V163.747H322.599L331.949 173.084V211.141Z" fill="white" stroke="#263238" stroke-linecap="round" stroke-linejoin="round"/>
<path d="M322.598 163.747V165.029V174.38H331.949V173.084L322.598 163.747Z" fill="#263238" stroke="#263238" stroke-width="0.75" stroke-linecap="round" stroke-linejoin="round"/>
<path d="M322.598 173.097H331.949L322.598 163.747V173.097Z" fill="white" stroke="#263238" stroke-linecap="round" stroke-linejoin="round"/>
<path d="M313.351 175.688H318.918L323.176 201.828H319.059L318.315 196.634V196.711H313.646L312.902 201.841H309.054L313.351 175.688ZM317.866 193.132L316.045 180.216H315.968L314.172 193.132H317.866Z" fill="#334AC0" stroke="#334AC0" stroke-width="0.5" stroke-linecap="round" stroke-linejoin="round"/>
<path d="M310.785 174.406H316.352L320.61 200.546H316.493L315.749 195.351V195.428H311.08L310.336 200.559H306.488L310.785 174.406ZM315.3 191.849L313.479 178.933H313.402L311.606 191.849H315.3Z" fill="white" stroke="#263238" stroke-width="0.75" stroke-linecap="round" stroke-linejoin="round"/>
<path d="M434.496 296.397L457.583 383.617C457.583 383.617 457.904 393.237 462.393 400.612L468.691 474.082C468.691 474.082 473.501 481.457 490.817 474.082C490.817 474.082 491.574 421.494 485.16 388.748L479.709 326.437C480.938 316.648 480.613 306.726 478.747 297.039L434.496 296.397Z" fill="#263238"/>
<mask id="mask2_359_86" style="mask-type:luminance" maskUnits="userSpaceOnUse" x="434" y="296" width="57" height="182">
<path d="M434.496 296.397L457.583 383.617C457.583 383.617 457.904 393.237 462.393 400.612L468.691 474.082C468.691 474.082 473.501 481.457 490.817 474.082C490.817 474.082 491.574 421.494 485.16 388.748L479.709 326.437C480.938 316.648 480.613 306.726 478.747 297.039L434.496 296.397Z" fill="white"/>
</mask>
<g mask="url(#mask2_359_86)">
<path opacity="0.5" d="M472.321 304.799C469.179 305.902 465.728 306.569 462.663 307.364C462.473 307.419 462.281 307.462 462.086 307.492C459.443 313.905 456.801 320.319 453.838 326.655C450.349 334.094 445.886 343.457 445.732 352.308C446.907 352.445 448.006 352.961 448.862 353.778C449.718 354.595 450.285 355.668 450.478 356.835C450.798 358.909 451.226 360.964 451.76 362.992C452.53 365.365 453.466 367.584 454.056 370.047C454.21 370.688 454.364 371.329 454.505 371.958C454.172 358.054 453.325 344.522 462.65 332.35C469.435 323.577 471.654 312.584 472.321 304.799Z" fill="black"/>
</g>
<path d="M434.496 296.397L457.583 383.617C457.583 383.617 457.904 393.237 462.393 400.612L468.691 474.082C468.691 474.082 473.501 481.457 490.817 474.082C490.817 474.082 491.574 421.494 485.16 388.748L479.709 326.437C480.938 316.648 480.613 306.726 478.747 297.039L434.496 296.397Z" stroke="#263238" stroke-width="0.75" stroke-linecap="round" stroke-linejoin="round"/>
<path d="M470.026 474.044C470.026 474.044 458.905 479.175 454.916 479.175C452.184 479.175 447.079 476.417 444.655 482.817C444.655 482.817 441.756 488.474 459.328 490.513C470.499 491.616 481.748 491.698 492.934 490.757C493.275 490.73 493.608 490.632 493.909 490.469C494.21 490.305 494.474 490.079 494.682 489.807C494.89 489.535 495.039 489.221 495.118 488.888C495.196 488.554 495.204 488.208 495.14 487.871L494.922 486.729C494.922 486.729 494.486 478.315 489.252 474.095L470.026 474.044Z" fill="#334AC0" stroke="#263238" stroke-linecap="round" stroke-linejoin="round"/>
<path d="M456.135 487.269C444.706 485.037 445.001 481.894 445.001 481.894C444.86 482.176 444.732 482.459 444.604 482.779C444.604 482.779 441.705 488.436 459.277 490.475C470.448 491.578 481.697 491.66 492.882 490.719C493.224 490.692 493.557 490.594 493.858 490.431C494.159 490.267 494.423 490.042 494.631 489.769C494.839 489.497 494.987 489.184 495.066 488.85C495.145 488.516 495.153 488.17 495.089 487.833L494.999 487.41L484.571 488.346C484.571 488.346 467.55 489.488 456.135 487.269Z" fill="white" stroke="#263238" stroke-width="0.75" stroke-linecap="round" stroke-linejoin="round"/>
<path d="M469.782 386.042C471.379 387.754 473.359 389.064 475.559 389.865C477.759 390.665 480.118 390.933 482.442 390.646" stroke="#7F7F7F" stroke-width="0.75" stroke-linecap="round" stroke-linejoin="round"/>
<path d="M412.383 292.832C412.383 292.832 406.612 307.903 417.193 372.356C417.193 372.356 415.269 378.449 419.117 390.634L424.248 431.999V473.044C424.248 473.044 427.775 481.702 448.618 473.044C448.618 473.044 449.259 400.254 447.015 384.862L451.927 337.892C452.168 335.705 452.862 333.594 453.967 331.692C455.071 329.79 456.561 328.14 458.341 326.848C462.92 323.475 468.794 316.407 469.756 302.08L412.383 292.832Z" fill="#263238" stroke="#263238" stroke-width="0.75" stroke-linecap="round" stroke-linejoin="round"/>
<path d="M425.685 472.249C425.685 472.249 413.41 477.892 409.01 477.854C405.996 477.854 400.353 474.814 397.633 481.868C397.633 481.868 394.427 488.115 413.82 490.359C426.155 491.577 438.575 491.671 450.927 490.642C451.304 490.611 451.67 490.501 452.001 490.319C452.332 490.137 452.621 489.887 452.849 489.585C453.076 489.284 453.238 488.937 453.322 488.569C453.407 488.201 453.412 487.819 453.339 487.448L453.108 486.165C453.108 486.165 452.62 476.866 446.848 472.223L425.685 472.249Z" fill="#334AC0" stroke="#263238" stroke-linecap="round" stroke-linejoin="round"/>
<path d="M410.344 486.832C397.736 484.382 398.069 480.919 398.069 480.919C397.904 481.234 397.758 481.56 397.633 481.894C397.633 481.894 394.427 488.14 413.82 490.385C426.155 491.602 438.575 491.697 450.927 490.667C451.304 490.636 451.67 490.526 452.001 490.344C452.332 490.162 452.621 489.912 452.849 489.61C453.076 489.309 453.238 488.963 453.322 488.594C453.407 488.226 453.412 487.844 453.339 487.473L453.249 487.012L441.705 488.038C441.705 488.038 422.966 489.295 410.344 486.832Z" fill="white" stroke="#263238" stroke-width="0.75" stroke-linecap="round" stroke-linejoin="round"/>
<path d="M428.417 381.655C428.417 381.655 433.444 387.684 443.488 386.863" stroke="#7F7F7F" stroke-width="0.75" stroke-linecap="round" stroke-linejoin="round"/>
<path d="M437.664 130.578C437.664 130.578 427.288 135.234 426.493 130.578C429.006 129.605 431.19 127.936 432.79 125.768C435.356 122.241 448.182 123.203 448.182 123.203C448.182 123.203 470.795 121.086 467.909 132.656C467.909 132.656 476.888 141.134 469.192 153.486C461.496 165.838 457.058 169.968 457.058 169.968L449.362 168.685L438.665 136.144L437.664 130.578Z" fill="#263238" stroke="#263238" stroke-width="0.75" stroke-linecap="round" stroke-linejoin="round"/>
<path d="M439.242 178.42V173.559C439.242 173.559 430.918 174.841 429.776 172.699C428.635 170.557 430.495 161.656 430.495 161.656C430.495 161.656 426.493 161.797 426.493 159.937C426.493 158.077 431.213 150.202 431.213 150.202C431.213 150.202 430.648 143.891 431.213 141.89C431.777 139.889 437.626 128.563 437.626 128.563C437.626 128.563 446.22 133.284 445.938 135.862C445.655 138.44 443.218 140.877 445.219 143.032C447.22 145.187 449.952 150.984 449.067 153.742L450.35 154.64C450.35 154.64 451.068 149.509 453.941 148.624C456.814 147.739 459.072 153.485 457.084 157.5C455.096 161.515 452.787 160.796 452.787 160.796C452.787 160.796 453.941 167.684 456.943 169.967L457.853 177.137L439.242 178.42Z" fill="white"/>
<mask id="mask3_359_86" style="mask-type:luminance" maskUnits="userSpaceOnUse" x="426" y="128" width="32" height="51">
<path d="M439.242 178.42V173.559C439.242 173.559 430.918 174.841 429.776 172.699C428.635 170.557 430.495 161.656 430.495 161.656C430.495 161.656 426.493 161.797 426.493 159.937C426.493 158.077 431.213 150.202 431.213 150.202C431.213 150.202 430.648 143.891 431.213 141.89C431.777 139.889 437.626 128.563 437.626 128.563C437.626 128.563 446.22 133.284 445.938 135.862C445.655 138.44 443.218 140.877 445.219 143.032C447.22 145.187 449.952 150.984 449.067 153.742L450.35 154.64C450.35 154.64 451.068 149.509 453.941 148.624C456.814 147.739 459.072 153.485 457.084 157.5C455.096 161.515 452.787 160.796 452.787 160.796C452.787 160.796 453.941 167.684 456.943 169.967L457.853 177.137L439.242 178.42Z" fill="white"/>
</mask>
<g mask="url(#mask3_359_86)">
<path d="M429.776 172.699C429.776 172.699 434.022 173.763 443.321 169.967C452.62 166.17 452.851 160.796 452.851 160.796L453.262 161.527C453.262 161.527 452.466 169.967 439.242 173.558C428.571 176.444 428.571 174.353 428.571 174.353L429.776 172.699Z" fill="#263238" stroke="#263238" stroke-width="0.5" stroke-linecap="round" stroke-linejoin="round"/>
</g>
<path d="M439.242 178.42V173.559C439.242 173.559 430.918 174.841 429.776 172.699C428.635 170.557 430.495 161.656 430.495 161.656C430.495 161.656 426.493 161.797 426.493 159.937C426.493 158.077 431.213 150.202 431.213 150.202C431.213 150.202 430.648 143.891 431.213 141.89C431.777 139.889 437.626 128.563 437.626 128.563C437.626 128.563 446.22 133.284 445.938 135.862C445.655 138.44 443.218 140.877 445.219 143.032C447.22 145.187 449.952 150.984 449.067 153.742L450.35 154.64C450.35 154.64 451.068 149.509 453.941 148.624C456.814 147.739 459.072 153.485 457.084 157.5C455.096 161.515 452.787 160.796 452.787 160.796C452.787 160.796 453.941 167.684 456.943 169.967L457.853 177.137L439.242 178.42Z" stroke="#263238" stroke-linecap="round" stroke-linejoin="round"/>
<path d="M438.819 161.656C438.819 161.656 437.369 166.287 432.752 163.798" stroke="#263238" stroke-width="0.75" stroke-linecap="round" stroke-linejoin="round"/>
<path d="M433.727 143.75C434.58 143.644 435.444 143.843 436.164 144.313C436.885 144.782 437.416 145.492 437.664 146.316" stroke="#263238" stroke-width="0.75" stroke-linecap="round" stroke-linejoin="round"/>
<path d="M432.79 148.625C432.79 149.574 433.213 150.344 433.726 150.344C434.239 150.344 434.65 149.574 434.65 148.625C434.65 147.676 434.239 146.906 433.726 146.906C433.213 146.906 432.79 147.676 432.79 148.625Z" fill="#2E353A"/>
<path d="M486.931 206.382C486.931 206.382 511.148 256.238 506.017 263.96C500.886 271.682 478.761 297.001 478.761 297.001L469.782 286.74L487.739 256.264L478.44 237.358C478.44 237.358 474.271 222.531 486.931 206.382Z" fill="#334AC0"/>
<mask id="mask4_359_86" style="mask-type:luminance" maskUnits="userSpaceOnUse" x="469" y="206" width="38" height="92">
<path d="M486.931 206.382C486.931 206.382 511.148 256.238 506.017 263.96C500.886 271.682 478.761 297.001 478.761 297.001L469.782 286.74L487.739 256.264L478.44 237.358C478.44 237.358 474.271 222.531 486.931 206.382Z" fill="white"/>
</mask>
<g mask="url(#mask4_359_86)">
<path opacity="0.2" d="M488.021 240.243C489.407 232.548 488.329 218.438 488.021 215.309C486.67 224.818 484.764 234.24 482.313 243.527C482.206 243.968 482.056 244.398 481.865 244.81C484.173 248.427 486.905 251.851 486.508 256.43C486.11 261.009 481.647 266.974 479.043 270.822C478.746 271.26 478.402 271.664 478.017 272.027C478.222 272.407 478.39 272.807 478.517 273.22C479.594 276.876 479.428 280.634 479.453 284.392C482.583 265.332 493.973 259.38 494.96 255.071C496.153 249.838 486.456 248.901 488.021 240.243Z" fill="black"/>
</g>
<path d="M486.931 206.382C486.931 206.382 511.148 256.238 506.017 263.96C500.886 271.682 478.761 297.001 478.761 297.001L469.782 286.74L487.739 256.264L478.44 237.358C478.44 237.358 474.271 222.531 486.931 206.382Z" stroke="#263238" stroke-linecap="round" stroke-linejoin="round"/>
<path d="M490.855 255.558C493.576 254.813 496.447 254.813 499.167 255.558" stroke="#263238" stroke-width="0.75" stroke-linecap="round" stroke-linejoin="round"/>
<path d="M433.548 185.731L439.32 176.29C439.32 176.29 455.353 169.736 463.369 176.29L467.858 188.937L433.548 185.731Z" fill="#334AC0" stroke="#263238" stroke-linecap="round" stroke-linejoin="round"/>
<path d="M410.459 295.833L415.244 256.495L413.307 197.493C413.207 194.91 413.977 192.369 415.494 190.276C417.01 188.183 419.185 186.66 421.67 185.949C437.959 181.229 472.834 175.432 486.931 206.395C488.12 208.979 488.5 211.863 488.021 214.668L478.44 269.757L481.005 299.81C481.005 299.81 449.785 322.769 410.459 295.833Z" fill="#334AC0"/>
<mask id="mask5_359_86" style="mask-type:luminance" maskUnits="userSpaceOnUse" x="410" y="182" width="79" height="127">
<path d="M410.459 295.833L415.244 256.495L413.307 197.493C413.207 194.91 413.977 192.369 415.494 190.276C417.01 188.183 419.185 186.66 421.67 185.949C437.959 181.229 472.834 175.432 486.931 206.395C488.12 208.979 488.5 211.863 488.021 214.668L478.44 269.757L481.005 299.81C481.005 299.81 449.785 322.769 410.459 295.833Z" fill="white"/>
</mask>
<g mask="url(#mask5_359_86)">
<path opacity="0.2" d="M450.695 292.832C449.9 281.288 470.743 276.799 469.781 272.04C468.819 267.282 454.069 269.745 454.069 265.05C454.069 260.356 415.038 250.223 423.965 228.379C426.466 222.613 427.813 216.412 427.928 210.127C423.739 215.515 419.011 220.461 413.819 224.89C414.145 225.829 414.254 226.828 414.14 227.815C414.14 227.956 414.255 228.097 414.294 228.238C415.052 231.519 415.122 234.921 414.499 238.23C414.55 238.895 414.511 239.564 414.384 240.218C414.876 243.993 415.065 247.802 414.948 251.608C414.948 251.916 415.025 252.224 415.089 252.531C415.263 253.507 415.228 254.508 414.987 255.469C415.482 256.755 415.518 258.173 415.089 259.483C414.858 260.214 414.615 260.946 414.371 261.677C414.461 262.034 414.512 262.399 414.525 262.767C414.756 268.577 413.512 274.311 412.524 279.967C411.6 285.239 411.421 290.639 410.446 295.898C411.12 296.214 411.733 296.649 412.255 297.18C415.615 300.566 421.733 302.773 426.146 304.466C431.292 306.374 436.616 307.766 442.038 308.621C453.069 310.561 464.433 308.66 474.232 303.234C470.269 303.35 451.414 303.183 450.695 292.832Z" fill="black"/>
</g>
<path d="M410.459 295.833L415.244 256.495L413.307 197.493C413.207 194.91 413.977 192.369 415.494 190.276C417.01 188.183 419.185 186.66 421.67 185.949C437.959 181.229 472.834 175.432 486.931 206.395C488.12 208.979 488.5 211.863 488.021 214.668L478.44 269.757L481.005 299.81C481.005 299.81 449.785 322.769 410.459 295.833Z" stroke="#263238" stroke-linecap="round" stroke-linejoin="round"/>
<path d="M474.912 271.027C474.912 271.027 426.813 281.288 424.248 271.027C421.683 260.766 437.716 267.179 450.696 265.576" stroke="#263238" stroke-width="0.75" stroke-linecap="round" stroke-linejoin="round"/>
<path d="M355.832 210.319L340.44 204.74C340.44 204.74 336.4 194.197 333.501 192.016C330.602 189.836 327.088 185.603 326.139 187.219C325.459 188.361 327.229 191.4 329.691 193.517C332.359 195.813 331.205 198.724 330.653 199.93C330.102 201.136 325.818 203.111 322.355 204.329C318.892 205.548 310.811 202.534 308.746 204.624C306.681 206.715 311.991 207.421 311.991 207.421C311.991 207.421 308.04 207.703 307.681 209.986C307.476 211.358 311.414 210.499 313.376 210.294C315.339 210.089 319.366 209.832 319.366 209.832C319.366 209.832 312.543 212.205 313.043 214.103C313.543 216.002 318.314 213.116 322.278 212.436C322.278 212.436 316.955 215.078 317.66 216.848C318.366 218.618 320.918 216.066 325.484 214.283L335.053 212.089L350.611 220.581L355.832 210.319Z" fill="white" stroke="#263238" stroke-linecap="round" stroke-linejoin="round"/>
<path d="M313.453 207.395C315.622 207.889 317.849 208.088 320.071 207.985" stroke="#263238" stroke-width="0.75" stroke-linecap="round" stroke-linejoin="round"/>
<path d="M420.028 187.232C419.524 187.034 418.973 186.992 418.445 187.111C417.916 187.229 417.436 187.504 417.065 187.899L389.553 217.194L344.442 204.74L339.453 217.31C339.453 217.31 373.674 236.46 391.066 235.408C404.265 234.6 420.4 220.401 427.416 213.603C428.577 212.469 429.442 211.069 429.939 209.524C430.435 207.98 430.546 206.337 430.264 204.74" fill="#334AC0"/>
<path d="M420.028 187.232C419.524 187.034 418.973 186.992 418.445 187.111C417.916 187.229 417.436 187.504 417.065 187.899L389.553 217.194L344.442 204.74L339.453 217.31C339.453 217.31 373.674 236.46 391.066 235.408C404.265 234.6 420.4 220.401 427.416 213.603C428.577 212.469 429.442 211.069 429.939 209.524C430.435 207.98 430.546 206.337 430.264 204.74" stroke="#263238" stroke-linecap="round" stroke-linejoin="round"/>
<path d="M348.995 215.976C349.039 216.274 348.995 216.578 348.866 216.85C348.738 217.122 348.533 217.35 348.275 217.506C348.018 217.661 347.72 217.737 347.419 217.724C347.119 217.711 346.829 217.61 346.586 217.432C346.343 217.255 346.158 217.01 346.053 216.727C345.949 216.445 345.931 216.138 346.001 215.846C346.071 215.553 346.225 215.288 346.445 215.083C346.666 214.877 346.941 214.742 347.238 214.693C347.438 214.659 347.643 214.665 347.841 214.711C348.038 214.757 348.225 214.842 348.389 214.962C348.553 215.082 348.691 215.233 348.795 215.407C348.899 215.582 348.967 215.775 348.995 215.976Z" fill="white" stroke="#263238" stroke-width="0.75" stroke-linecap="round" stroke-linejoin="round"/>
<path d="M389.104 225.878C390.566 222.094 388.565 218.978 390.617 218.618C392.67 218.259 392.823 224.749 396.222 224.66" stroke="#263238" stroke-width="0.75" stroke-linecap="round" stroke-linejoin="round"/>
<path d="M230.646 482.97L198.272 479.328V406.089L214.882 396.11V392.454H170.362V396.084L187.036 406.037V479.328L154.662 482.97C153.208 483.134 151.866 483.828 150.891 484.918C149.917 486.009 149.378 487.421 149.377 488.883V491.885H236.02V488.883C236.017 487.407 235.466 485.984 234.473 484.891C233.48 483.798 232.116 483.114 230.646 482.97Z" fill="white" stroke="#263238" stroke-width="0.75" stroke-linecap="round" stroke-linejoin="round"/>
<path d="M160.69 349.538H151.84V389.736H160.69V349.538Z" fill="white" stroke="#263238" stroke-width="0.75" stroke-linecap="round" stroke-linejoin="round"/>
<path d="M239.663 381.411H145.607C142.539 381.411 140.053 383.898 140.053 386.965V392.506C140.053 395.573 142.539 398.06 145.607 398.06H239.663C242.73 398.06 245.217 395.573 245.217 392.506V386.965C245.217 383.898 242.73 381.411 239.663 381.411Z" fill="#263238" stroke="#263238" stroke-linecap="round" stroke-linejoin="round"/>
<path d="M174.812 308.455H137.731C131.837 308.455 127.06 313.233 127.06 319.126V342.535C127.06 348.428 131.837 353.206 137.731 353.206H174.812C180.706 353.206 185.484 348.428 185.484 342.535V319.126C185.484 313.233 180.706 308.455 174.812 308.455Z" fill="#263238"/>
<mask id="mask6_359_86" style="mask-type:luminance" maskUnits="userSpaceOnUse" x="127" y="308" width="59" height="46">
<path d="M174.812 308.455H137.731C131.837 308.455 127.06 313.233 127.06 319.126V342.535C127.06 348.428 131.837 353.206 137.731 353.206H174.812C180.706 353.206 185.484 348.428 185.484 342.535V319.126C185.484 313.233 180.706 308.455 174.812 308.455Z" fill="white"/>
</mask>
<g mask="url(#mask6_359_86)">
<path opacity="0.5" d="M184.56 308.455H147.479C141.585 308.455 136.808 313.233 136.808 319.127V342.535C136.808 348.429 141.585 353.207 147.479 353.207H184.56C190.454 353.207 195.232 348.429 195.232 342.535V319.127C195.232 313.233 190.454 308.455 184.56 308.455Z" fill="black"/>
</g>
<path d="M174.812 308.455H137.731C131.837 308.455 127.06 313.233 127.06 319.126V342.535C127.06 348.428 131.837 353.206 137.731 353.206H174.812C180.706 353.206 185.484 348.428 185.484 342.535V319.126C185.484 313.233 180.706 308.455 174.812 308.455Z" stroke="#263238" stroke-linecap="round" stroke-linejoin="round"/>
<path d="M226.529 378.897C229.296 376.686 232.367 374.884 235.648 373.549" stroke="#263238" stroke-width="0.75" stroke-linecap="round" stroke-linejoin="round"/>
<path d="M232.031 370.509C232.031 370.509 222.732 378.128 224.618 379.269" stroke="#263238" stroke-width="0.75" stroke-linecap="round" stroke-linejoin="round"/>
<path d="M261.429 441.733L264.315 462.063C264.315 462.063 258.915 466.476 258.646 478.481L268.163 481.867L270.729 478.481L279.22 487.331C279.22 487.331 294.265 494.104 296.317 489.576C298.37 485.048 290.071 481.701 283.055 471.747C281.233 469.182 275.141 461.845 275.141 461.845L275.744 440.63L261.429 441.733Z" fill="#263238" stroke="#263238" stroke-width="0.75" stroke-linecap="round" stroke-linejoin="round"/>
<path d="M188.78 355.451C188.78 355.451 268.42 350.115 272.049 361.364C275.679 372.612 277.385 408.616 277.565 422.931C277.744 437.245 276.616 455.317 276.616 455.317C271.832 456.767 266.726 456.767 261.942 455.317C261.942 455.317 258.441 434.551 255.914 424.457C253.387 414.363 250.706 400.895 252.233 379.564C252.233 379.564 175.915 391.108 175.492 377.717C175.069 364.327 188.78 355.451 188.78 355.451Z" fill="white"/>
<mask id="mask7_359_86" style="mask-type:luminance" maskUnits="userSpaceOnUse" x="175" y="354" width="103" height="103">
<path d="M188.78 355.451C188.78 355.451 268.42 350.115 272.049 361.364C275.679 372.612 277.385 408.616 277.565 422.931C277.744 437.245 276.616 455.317 276.616 455.317C271.832 456.767 266.726 456.767 261.942 455.317C261.942 455.317 258.441 434.551 255.914 424.457C253.387 414.363 250.706 400.895 252.233 379.564C252.233 379.564 175.915 391.108 175.492 377.717C175.069 364.327 188.78 355.451 188.78 355.451Z" fill="white"/>
</mask>
<g mask="url(#mask7_359_86)">
<path opacity="0.5" d="M188.78 355.451C188.78 355.451 268.42 350.115 272.049 361.364C275.679 372.612 277.385 408.616 277.565 422.931C277.744 437.245 276.616 455.317 276.616 455.317C271.832 456.767 266.726 456.767 261.942 455.317C261.942 455.317 258.441 434.551 255.914 424.457C253.387 414.363 250.706 400.895 252.233 379.564C252.233 379.564 175.915 391.108 175.492 377.717C175.069 364.327 188.78 355.451 188.78 355.451Z" fill="black"/>
<path opacity="0.2" d="M244.883 359.222L246.269 359.837L246.82 360.055L247.154 360.209C247.746 360.46 248.309 360.774 248.834 361.146C254.542 363.929 257.235 369.008 255.247 375.486C255.237 375.847 255.203 376.207 255.144 376.563C254.256 381.118 252.968 385.586 251.297 389.915C251.809 390.799 252.02 391.825 251.899 392.84C251.694 394.469 251.527 396.085 251.399 397.714C251.995 399.117 252.182 400.66 251.938 402.165C251.793 403.141 251.724 404.127 251.733 405.115C252.207 408.68 252.669 412.246 253.336 415.773L254.105 418.724C254.105 418.031 254.105 417.287 254.029 416.453C252.541 387.196 257.056 399.086 259.044 378.897C260.621 363.711 250.168 360.081 244.883 359.222Z" fill="black"/>
</g>
<path d="M188.78 355.451C188.78 355.451 268.42 350.115 272.049 361.364C275.679 372.612 277.385 408.616 277.565 422.931C277.744 437.245 276.616 455.317 276.616 455.317C271.832 456.767 266.726 456.767 261.942 455.317C261.942 455.317 258.441 434.551 255.914 424.457C253.387 414.363 250.706 400.895 252.233 379.564C252.233 379.564 175.915 391.108 175.492 377.717C175.069 364.327 188.78 355.451 188.78 355.451Z" stroke="#263238" stroke-linecap="round" stroke-linejoin="round"/>
<path d="M260.788 372.317C260.788 372.317 259.967 376.011 254.811 379.59" stroke="#263238" stroke-width="0.75" stroke-linecap="round" stroke-linejoin="round"/>
<path d="M278.463 450.738L277.911 456.125C277.911 456.125 268.805 461.012 260.788 456.497L259.121 451.2C259.121 451.2 264.546 454.919 278.463 450.738Z" fill="#334AC0"/>
<mask id="mask8_359_86" style="mask-type:luminance" maskUnits="userSpaceOnUse" x="259" y="450" width="20" height="9">
<path d="M278.463 450.738L277.911 456.125C277.911 456.125 268.805 461.012 260.788 456.497L259.121 451.2C259.121 451.2 264.546 454.919 278.463 450.738Z" fill="white"/>
</mask>
<g mask="url(#mask8_359_86)">
<path opacity="0.3" d="M278.463 450.738L277.911 456.125C277.911 456.125 268.805 461.012 260.788 456.497L259.121 451.2C259.121 451.2 264.546 454.919 278.463 450.738Z" fill="#334AC0" stroke="#263238" stroke-width="0.75" stroke-miterlimit="10"/>
</g>
<path d="M278.463 450.738L277.911 456.125C277.911 456.125 268.805 461.012 260.788 456.497L259.121 451.2C259.121 451.2 264.546 454.919 278.463 450.738Z" stroke="#263238" stroke-width="0.75" stroke-linecap="round" stroke-linejoin="round"/>
<path d="M274.64 463.667C278.28 467.309 281.499 471.349 284.235 475.711" stroke="#7F7F7F" stroke-linecap="round" stroke-linejoin="round"/>
<path d="M203.544 427.535L194.655 446.044C194.655 446.044 187.716 446.711 180.828 456.549L186.869 464.642L190.884 463.257L193.039 475.339C193.039 475.339 201.787 489.32 206.006 486.691C210.226 484.061 205.198 476.673 204.891 464.501C204.801 461.333 203.8 451.867 203.8 451.867L216.088 434.564L203.544 427.535Z" fill="#263238" stroke="#263238" stroke-width="0.75" stroke-linecap="round" stroke-linejoin="round"/>
<path d="M161.383 358.452C161.383 358.452 150.083 381.026 164.526 383.027C178.968 385.028 223.117 382.463 223.117 382.463C217.585 391.335 212.682 400.584 208.443 410.142C202.723 423.661 197.015 437.578 197.015 437.578C197.015 437.578 199.49 444.248 209.585 445.582C209.585 445.582 217.781 432.755 235.687 412.81C253.592 392.865 258.556 372.792 254.747 365.93C250.937 359.067 231.12 355.361 199.106 353.885L161.383 358.452Z" fill="white"/>
<mask id="mask9_359_86" style="mask-type:luminance" maskUnits="userSpaceOnUse" x="157" y="353" width="99" height="93">
<path d="M161.383 358.452C161.383 358.452 150.083 381.026 164.526 383.027C178.968 385.028 223.117 382.463 223.117 382.463C217.585 391.335 212.682 400.584 208.443 410.142C202.723 423.661 197.015 437.578 197.015 437.578C197.015 437.578 199.49 444.248 209.585 445.582C209.585 445.582 217.781 432.755 235.687 412.81C253.592 392.865 258.556 372.792 254.747 365.93C250.937 359.067 231.12 355.361 199.106 353.885L161.383 358.452Z" fill="white"/>
</mask>
<g mask="url(#mask9_359_86)">
<path opacity="0.5" d="M161.383 358.452C161.383 358.452 150.083 381.026 164.526 383.027C178.968 385.028 223.117 382.463 223.117 382.463C217.585 391.335 212.682 400.584 208.443 410.142C202.723 423.661 197.015 437.578 197.015 437.578C197.015 437.578 199.49 444.248 209.585 445.582C209.585 445.582 217.781 432.755 235.687 412.81C253.592 392.865 258.556 372.792 254.747 365.93C250.937 359.067 231.12 355.361 199.106 353.885L161.383 358.452Z" fill="black"/>
</g>
<path d="M161.383 358.452C161.383 358.452 150.083 381.026 164.526 383.027C178.968 385.028 223.117 382.463 223.117 382.463C217.585 391.335 212.682 400.584 208.443 410.142C202.723 423.661 197.015 437.578 197.015 437.578C197.015 437.578 199.49 444.248 209.585 445.582C209.585 445.582 217.781 432.755 235.687 412.81C253.592 392.865 258.556 372.792 254.747 365.93C250.937 359.067 231.12 355.361 199.106 353.885L161.383 358.452Z" stroke="#263238" stroke-linecap="round" stroke-linejoin="round"/>
<path d="M212.971 443.67L209.546 447.865C209.546 447.865 199.285 446.915 195.065 438.719L196.592 433.384C196.592 433.384 199.067 439.476 212.971 443.67Z" fill="#334AC0"/>
<mask id="mask10_359_86" style="mask-type:luminance" maskUnits="userSpaceOnUse" x="195" y="433" width="18" height="15">
<path d="M212.971 443.67L209.546 447.865C209.546 447.865 199.285 446.915 195.065 438.719L196.592 433.384C196.592 433.384 199.067 439.476 212.971 443.67Z" fill="white"/>
</mask>
<g mask="url(#mask10_359_86)">
<path opacity="0.3" d="M212.971 443.67L209.546 447.865C209.546 447.865 199.285 446.915 195.065 438.719L196.592 433.384C196.592 433.384 199.067 439.476 212.971 443.67Z" fill="#334AC0" stroke="#263238" stroke-width="0.75" stroke-miterlimit="10"/>
</g>
<path d="M212.971 443.67L209.546 447.865C209.546 447.865 199.285 446.915 195.065 438.719L196.592 433.384C196.592 433.384 199.067 439.476 212.971 443.67Z" stroke="#263238" stroke-width="0.75" stroke-linecap="round" stroke-linejoin="round"/>
<path d="M202.042 453.611C202.556 456.407 203.518 462.102 204.018 468.246" stroke="#7F7F7F" stroke-linecap="round" stroke-linejoin="round"/>
<path d="M197.926 223.427C197.926 223.427 207.738 218.553 197.4 212.05C187.062 205.547 168.989 223.427 168.989 223.427L167.232 231.777C167.232 231.777 167.989 238.434 170.387 242.295C172.311 245.412 175.736 245.425 177.352 248.516C179.827 253.21 179.007 256.545 181.559 254.493C187.87 249.362 189.909 229.084 189.909 229.084L197.926 223.427Z" fill="#263238" stroke="#263238" stroke-linecap="round" stroke-linejoin="round"/>
<path d="M194.142 263.485L195.848 253.48L182.944 242.36L179.302 259.111L194.142 263.485Z" fill="white"/>
<mask id="mask11_359_86" style="mask-type:luminance" maskUnits="userSpaceOnUse" x="179" y="242" width="17" height="22">
<path d="M194.142 263.485L195.848 253.48L182.944 242.36L179.302 259.111L194.142 263.485Z" fill="white"/>
</mask>
<g mask="url(#mask11_359_86)">
<path d="M181.688 243.528C181.688 243.528 182.74 249.299 185.882 252.929C189.024 256.559 197.221 260.869 197.221 260.869L197.926 253.994L185.1 244.22L182.945 242.386L181.688 243.528Z" fill="#263238" stroke="#263238" stroke-width="0.5" stroke-linecap="round" stroke-linejoin="round"/>
</g>
<path d="M194.142 263.485L195.848 253.48L182.944 242.36L179.302 259.111L194.142 263.485Z" stroke="#263238" stroke-linecap="round" stroke-linejoin="round"/>
<path d="M198.246 219.9C198.246 219.9 204.108 230.162 203.98 233.124C203.98 233.124 211.676 253.326 203.98 256.648C198.003 259.213 190.499 254.211 187.562 251.928C186.757 251.293 186.082 250.509 185.574 249.619L183.073 245.22C183.073 245.22 179.994 246.105 177.185 242.103C174.376 238.101 177.262 234.304 180.353 236.665C180.353 236.665 182.688 231.829 181.957 229.161C181.226 226.493 184.727 226.455 184.881 223.62C184.92 223.62 193.244 223.325 198.246 219.9Z" fill="white"/>
<path d="M198.246 219.9C198.246 219.9 204.108 230.162 203.98 233.124C203.98 233.124 211.676 253.326 203.98 256.648C198.003 259.213 190.499 254.211 187.562 251.928C186.757 251.293 186.082 250.509 185.574 249.619L183.073 245.22C183.073 245.22 179.994 246.105 177.185 242.103C174.376 238.101 177.262 234.304 180.353 236.665C180.353 236.665 182.688 231.829 181.957 229.161C181.226 226.493 184.727 226.455 184.881 223.62C184.92 223.62 193.244 223.325 198.246 219.9Z" stroke="#263238" stroke-linecap="round" stroke-linejoin="round"/>
<path d="M197.169 247.593C197.169 247.593 199.067 250.158 202.928 246.734" stroke="#263238" stroke-width="0.75" stroke-linecap="round" stroke-linejoin="round"/>
<path d="M200.363 235.626C201.068 238.396 200.247 240.987 198.528 241.423C196.81 241.859 194.847 239.987 194.142 237.229C193.436 234.471 194.565 233.381 196.284 232.958C198.003 232.534 199.657 232.868 200.363 235.626Z" stroke="#263238" stroke-width="0.75" stroke-linecap="round" stroke-linejoin="round"/>
<path d="M208.212 233.407C208.918 236.177 208.353 238.704 206.93 239.063C205.506 239.422 203.813 237.473 203.082 234.715C202.351 231.957 203.274 230.944 204.672 230.585C206.07 230.226 207.558 230.585 208.212 233.407Z" fill="white" stroke="#263238" stroke-width="0.75" stroke-linecap="round" stroke-linejoin="round"/>
<path d="M193.231 232.881C193.455 232.419 193.768 232.007 194.153 231.669C194.539 231.33 194.988 231.072 195.474 230.91C195.96 230.747 196.474 230.683 196.986 230.722C197.497 230.761 197.995 230.902 198.451 231.136" stroke="#263238" stroke-width="0.75" stroke-linecap="round" stroke-linejoin="round"/>
<path d="M201.722 230.02C201.813 229.596 202.01 229.201 202.295 228.874C202.58 228.546 202.944 228.297 203.351 228.148" stroke="#263238" stroke-width="0.75" stroke-linecap="round" stroke-linejoin="round"/>
<path d="M194.142 237.229L190.871 238.55L180.392 236.665" stroke="#263238" stroke-width="0.75" stroke-linecap="round" stroke-linejoin="round"/>
<path d="M203.031 234.188L200.414 235.253" stroke="#263238" stroke-width="0.75" stroke-linecap="round" stroke-linejoin="round"/>
<path d="M198.913 236.293C199.003 237.165 198.657 237.922 198.105 237.986C197.554 238.05 197.041 237.383 196.938 236.511C196.836 235.639 197.195 234.882 197.733 234.818C198.272 234.754 198.811 235.408 198.913 236.293Z" fill="#263238"/>
<path d="M205.313 233.971C205.416 234.83 205.185 235.549 204.788 235.6C204.39 235.651 204.005 234.984 203.915 234.138C203.826 233.291 204.044 232.56 204.428 232.522C204.813 232.483 205.211 233.125 205.313 233.971Z" fill="#263238"/>
<path d="M202.351 234.484L207.738 239.217C207.866 239.33 207.965 239.472 208.029 239.631C208.093 239.789 208.119 239.96 208.106 240.131C208.092 240.301 208.039 240.466 207.95 240.613C207.862 240.759 207.741 240.883 207.597 240.974L204.826 242.706" fill="white"/>
<path d="M202.351 234.484L207.738 239.217C207.866 239.33 207.965 239.472 208.029 239.631C208.093 239.789 208.119 239.96 208.106 240.131C208.092 240.301 208.039 240.466 207.95 240.613C207.862 240.759 207.741 240.883 207.597 240.974L204.826 242.706" stroke="#263238" stroke-width="0.75" stroke-linecap="round" stroke-linejoin="round"/>
<path d="M171.836 223.774C171.836 223.774 170.887 206.715 157.65 213.513C144.413 220.311 157.06 240.32 153.097 244.733C149.133 249.145 156.714 247.17 157.65 243.976C158.587 240.782 157.817 249.299 159.651 249.607C161.485 249.914 161.78 242.295 163.499 242.295C165.218 242.295 163.05 247.041 164.423 247.567C165.795 248.093 168.989 238.255 169.899 232.817C170.381 229.77 171.028 226.751 171.836 223.774Z" fill="#263238" stroke="#263238" stroke-linecap="round" stroke-linejoin="round"/>
<path d="M171.836 221.452C171.836 221.452 167.206 226.583 169.015 239.409C169.079 239.384 160.1 226.39 171.836 221.452Z" fill="#334AC0" stroke="#263238" stroke-linecap="round" stroke-linejoin="round"/>
<path d="M182.803 223.428C182.803 223.428 187.934 224.851 188.64 229.084C189.345 233.317 191.731 219.362 182.803 223.428Z" fill="#263238" stroke="#263238" stroke-width="0.75" stroke-linecap="round" stroke-linejoin="round"/>
<path d="M199.863 222.517C199.863 222.517 205.442 220.837 207.109 224.492C207.071 224.492 206.276 215.68 199.863 222.517Z" fill="#263238" stroke="#263238" stroke-width="0.75" stroke-linecap="round" stroke-linejoin="round"/>
<path d="M243.908 218.849C245.037 218.541 246.204 220.003 246.204 220.003C247.41 217.951 249.334 221.363 249.334 221.363C250.95 219.387 251.771 223.71 251.771 223.71C251.771 223.71 253.477 223.312 253.272 225.48C253.002 228.327 249.693 234.843 249.693 234.843L247.538 245.874L239.47 244.925L242.036 234.343L239.624 229.7C238.738 227.834 238.299 225.788 238.342 223.723C238.726 221.093 242.78 219.144 243.908 218.849Z" fill="white" stroke="#263238" stroke-linecap="round" stroke-linejoin="round"/>
<path d="M243.921 221.491C243.921 221.491 246.333 226.532 246.037 221.491C246.037 221.491 247.795 227.737 248.911 222.658C248.911 222.658 248.231 228.494 250.604 225.223C250.604 225.223 249.603 226.968 250.052 227.789C250.501 228.61 251.771 227.263 251.771 227.263" fill="white"/>
<path d="M243.921 221.491C243.921 221.491 246.333 226.532 246.037 221.491C246.037 221.491 247.795 227.737 248.911 222.658C248.911 222.658 248.231 228.494 250.604 225.223C250.604 225.223 249.603 226.968 250.052 227.789C250.501 228.61 251.771 227.263 251.771 227.263" stroke="#263238" stroke-width="0.75" stroke-linecap="round" stroke-linejoin="round"/>
<path d="M204.544 267.063L230.377 267.602L240.073 240.667L248.603 243.668C248.603 243.668 244.229 277.773 239.855 279.8C235.481 281.827 208.841 284.713 208.841 284.713C208.841 284.713 200.555 275.567 204.544 267.063Z" fill="#334AC0"/>
<mask id="mask12_359_86" style="mask-type:luminance" maskUnits="userSpaceOnUse" x="203" y="240" width="46" height="45">
<path d="M204.544 267.063L230.377 267.602L240.073 240.667L248.603 243.668C248.603 243.668 244.229 277.773 239.855 279.8C235.481 281.827 208.841 284.713 208.841 284.713C208.841 284.713 200.555 275.567 204.544 267.063Z" fill="white"/>
</mask>
<g mask="url(#mask12_359_86)">
<path opacity="0.2" d="M213.715 274.797C212.571 272.708 211.011 270.874 209.131 269.409C207.252 267.945 205.093 266.88 202.787 266.281C206.75 268.846 209.11 273.977 210.662 278.171C211.288 279.871 211.764 281.622 212.086 283.404C217.686 283.391 223.272 282.823 228.76 281.711C224.733 281.493 216.947 280.364 213.715 274.797Z" fill="black"/>
</g>
<path d="M204.544 267.063L230.377 267.602L240.073 240.667L248.603 243.668C248.603 243.668 244.229 277.773 239.855 279.8C235.481 281.827 208.841 284.713 208.841 284.713C208.841 284.713 200.555 275.567 204.544 267.063Z" stroke="#263238" stroke-linecap="round" stroke-linejoin="round"/>
<path d="M238.547 242.744L248.603 246.169L249.283 241.59L239.765 238.563L238.547 242.744Z" fill="#334AC0" stroke="#263238" stroke-linecap="round" stroke-linejoin="round"/>
<path d="M252.656 230.495C251.734 230.708 250.779 230.737 249.845 230.579C248.912 230.422 248.019 230.083 247.217 229.58C246.415 229.077 245.72 228.421 245.172 227.649C244.624 226.878 244.234 226.005 244.024 225.083L234.058 181.537L248.167 178.317L258.082 221.863C258.292 222.786 258.319 223.742 258.16 224.675C258.002 225.609 257.661 226.502 257.157 227.303C256.653 228.105 255.996 228.799 255.224 229.347C254.452 229.895 253.579 230.285 252.656 230.495Z" fill="white" stroke="#263238" stroke-width="0.75" stroke-linecap="round" stroke-linejoin="round"/>
<path d="M246.018 181.015L236.966 183.086L238.443 189.538L247.495 187.466L246.018 181.015Z" fill="#334AC0"/>
<mask id="mask13_359_86" style="mask-type:luminance" maskUnits="userSpaceOnUse" x="236" y="181" width="12" height="9">
<path d="M246.018 181.014L236.966 183.086L238.443 189.537L247.495 187.466L246.018 181.014Z" fill="white"/>
</mask>
<g mask="url(#mask13_359_86)">
<path opacity="0.7" d="M246.018 181.014L236.966 183.086L238.443 189.537L247.495 187.466L246.018 181.014Z" fill="white"/>
</g>
<path d="M247.858 188.997L238.805 191.069L240.282 197.521L249.334 195.449L247.858 188.997Z" fill="#334AC0"/>
<mask id="mask14_359_86" style="mask-type:luminance" maskUnits="userSpaceOnUse" x="238" y="188" width="12" height="10">
<path d="M247.858 188.997L238.805 191.069L240.282 197.52L249.334 195.449L247.858 188.997Z" fill="white"/>
</mask>
<g mask="url(#mask14_359_86)">
<path opacity="0.3" d="M247.858 188.997L238.805 191.069L240.282 197.52L249.334 195.449L247.858 188.997Z" fill="white"/>
</g>
<path d="M249.684 196.996L240.632 199.067L242.108 205.519L251.16 203.447L249.684 196.996Z" fill="#334AC0"/>
<path d="M251.507 204.967L242.455 207.039L243.932 213.49L252.984 211.419L251.507 204.967Z" fill="#334AC0"/>
<mask id="mask15_359_86" style="mask-type:luminance" maskUnits="userSpaceOnUse" x="242" y="204" width="11" height="10">
<path d="M251.507 204.967L242.455 207.039L243.931 213.49L252.984 211.419L251.507 204.967Z" fill="white"/>
</mask>
<g mask="url(#mask15_359_86)">
<path opacity="0.2" d="M251.507 204.967L242.455 207.039L243.931 213.49L252.984 211.419L251.507 204.967Z" fill="black"/>
</g>
<path d="M253.334 212.966L244.281 215.038L245.758 221.489L254.81 219.418L253.334 212.966Z" fill="#334AC0"/>
<mask id="mask16_359_86" style="mask-type:luminance" maskUnits="userSpaceOnUse" x="244" y="212" width="11" height="10">
<path d="M253.334 212.966L244.281 215.038L245.758 221.489L254.81 219.418L253.334 212.966Z" fill="white"/>
</mask>
<g mask="url(#mask16_359_86)">
<path opacity="0.3" d="M253.334 212.966L244.281 215.038L245.758 221.489L254.81 219.418L253.334 212.966Z" fill="black"/>
</g>
<path d="M240.471 222.799C240.508 222.51 240.627 222.238 240.814 222.015C241.001 221.791 241.247 221.626 241.525 221.538C241.803 221.45 242.1 221.444 242.382 221.52C242.663 221.596 242.917 221.75 243.113 221.966C245.191 223.492 248.244 223.992 247.897 224.941C247.551 225.891 246.756 226.468 243.78 225.262C243.78 225.262 243.254 225.583 243.998 226.545C244.998 227.591 245.682 228.898 245.973 230.316" fill="white"/>
<path d="M240.471 222.799C240.508 222.51 240.627 222.238 240.814 222.015C241.001 221.791 241.247 221.626 241.525 221.538C241.803 221.45 242.1 221.444 242.382 221.52C242.663 221.596 242.917 221.75 243.113 221.966C245.191 223.492 248.244 223.992 247.897 224.941C247.551 225.891 246.756 226.468 243.78 225.262C243.78 225.262 243.254 225.583 243.998 226.545C244.998 227.591 245.682 228.898 245.973 230.316" stroke="#263238" stroke-width="0.75" stroke-linecap="round" stroke-linejoin="round"/>
<path d="M156.458 267.628L164.526 339.764L159.395 361.453C159.395 361.453 164.795 362.672 179.763 357.964C194.732 353.257 210.752 354.668 210.752 354.668C210.752 354.668 217.383 306.646 214.728 291.639C213.22 282.791 209.749 274.394 204.57 267.063C204.57 267.063 175.826 254.493 158.266 264.1C157.649 264.442 157.147 264.96 156.824 265.588C156.502 266.217 156.375 266.927 156.458 267.628Z" fill="#334AC0"/>
<mask id="mask17_359_86" style="mask-type:luminance" maskUnits="userSpaceOnUse" x="156" y="260" width="60" height="102">
<path d="M156.458 267.628L164.526 339.764L159.395 361.453C159.395 361.453 164.795 362.672 179.763 357.964C194.732 353.257 210.752 354.668 210.752 354.668C210.752 354.668 217.383 306.646 214.728 291.639C213.22 282.791 209.749 274.394 204.57 267.063C204.57 267.063 175.826 254.493 158.266 264.1C157.649 264.442 157.147 264.96 156.824 265.588C156.502 266.217 156.375 266.927 156.458 267.628Z" fill="white"/>
</mask>
<g mask="url(#mask17_359_86)">
<path opacity="0.12" d="M171.837 309.326C172.439 300.348 168.438 285.584 168.438 285.584L165.449 285.982C164.852 294.671 164.93 303.394 165.68 312.071C165.988 315.547 167.822 319.164 167.706 322.614C167.604 325.68 165.847 327.745 164.359 330.31C164.102 330.746 163.871 331.182 163.615 331.593C164.348 332.733 164.635 334.102 164.423 335.441C164.256 337.07 163.987 338.673 163.692 340.264C163.784 341.066 163.732 341.878 163.538 342.662C162.64 346.433 161.845 350.166 161.152 353.975C160.475 356.507 159.949 359.077 159.574 361.671C165.221 361.502 170.836 360.746 176.326 359.413C178.58 358.869 180.769 358.082 182.854 357.066C162.088 360.132 169.207 346.702 169.836 341.123C170.464 335.543 190.512 328.733 191.512 322.64C192.513 316.548 171.221 318.266 171.837 309.326Z" fill="black"/>
</g>
<path d="M156.458 267.628L164.526 339.764L159.395 361.453C159.395 361.453 164.795 362.672 179.763 357.964C194.732 353.257 210.752 354.668 210.752 354.668C210.752 354.668 217.383 306.646 214.728 291.639C213.22 282.791 209.749 274.394 204.57 267.063C204.57 267.063 175.826 254.493 158.266 264.1C157.649 264.442 157.147 264.96 156.824 265.588C156.502 266.217 156.375 266.927 156.458 267.628Z" stroke="#263238" stroke-linecap="round" stroke-linejoin="round"/>
<path d="M174.646 260.868L178.43 253.48C182.785 254.951 187.216 256.184 191.705 257.174C198.978 258.764 197.22 260.868 197.22 260.868L195.36 266.473C195.36 266.473 192.5 269.321 174.646 260.868Z" fill="#334AC0" stroke="#263238" stroke-linecap="round" stroke-linejoin="round"/>
<path d="M160.588 316.778C160.588 316.778 164.705 313.533 165.718 314.918C166.732 316.304 164.564 315.842 162.935 320.562" stroke="#263238" stroke-linecap="round" stroke-linejoin="round"/>
<path d="M197.502 350.974C197.216 349.47 197.537 347.915 198.396 346.648C199.254 345.381 200.579 344.506 202.081 344.214L237.174 337.467L239.355 348.793L204.262 355.54C202.76 355.83 201.204 355.511 199.937 354.655C198.67 353.799 197.794 352.475 197.502 350.974Z" fill="white" stroke="#263238" stroke-width="0.75" stroke-linecap="round" stroke-linejoin="round"/>
<path d="M237.255 347.043L235.849 339.738L230.647 340.738L232.053 348.044L237.255 347.043Z" fill="#334AC0"/>
<mask id="mask18_359_86" style="mask-type:luminance" maskUnits="userSpaceOnUse" x="230" y="339" width="8" height="10">
<path d="M237.254 347.043L235.849 339.737L230.647 340.738L232.052 348.043L237.254 347.043Z" fill="white"/>
</mask>
<g mask="url(#mask18_359_86)">
<path opacity="0.7" d="M237.254 347.043L235.849 339.737L230.647 340.738L232.052 348.043L237.254 347.043Z" fill="white"/>
</g>
<path d="M230.814 348.29L229.409 340.984L224.207 341.985L225.612 349.291L230.814 348.29Z" fill="#334AC0"/>
<mask id="mask19_359_86" style="mask-type:luminance" maskUnits="userSpaceOnUse" x="224" y="340" width="7" height="10">
<path d="M230.814 348.29L229.409 340.984L224.207 341.985L225.612 349.291L230.814 348.29Z" fill="white"/>
</mask>
<g mask="url(#mask19_359_86)">
<path opacity="0.3" d="M230.814 348.29L229.409 340.984L224.207 341.985L225.612 349.291L230.814 348.29Z" fill="white"/>
</g>
<path d="M224.372 349.513L222.969 342.22L217.767 343.221L219.17 350.514L224.372 349.513Z" fill="#334AC0"/>
<path d="M217.932 350.749L216.529 343.456L211.327 344.457L212.73 351.75L217.932 350.749Z" fill="#334AC0"/>
<mask id="mask20_359_86" style="mask-type:luminance" maskUnits="userSpaceOnUse" x="211" y="343" width="7" height="9">
<path d="M217.932 350.749L216.529 343.457L211.327 344.457L212.73 351.75L217.932 350.749Z" fill="white"/>
</mask>
<g mask="url(#mask20_359_86)">
<path opacity="0.2" d="M217.932 350.749L216.529 343.457L211.327 344.457L212.73 351.75L217.932 350.749Z" fill="black"/>
</g>
<path d="M211.491 351.983L210.088 344.69L204.886 345.691L206.289 352.983L211.491 351.983Z" fill="#334AC0"/>
<mask id="mask21_359_86" style="mask-type:luminance" maskUnits="userSpaceOnUse" x="204" y="344" width="8" height="9">
<path d="M211.491 351.982L210.088 344.689L204.886 345.69L206.289 352.983L211.491 351.982Z" fill="white"/>
</mask>
<g mask="url(#mask21_359_86)">
<path opacity="0.3" d="M211.491 351.982L210.088 344.689L204.886 345.69L206.289 352.983L211.491 351.982Z" fill="black"/>
</g>
<path d="M198.9 352.487C198.403 351.915 198.024 351.25 197.784 350.531C197.544 349.811 197.448 349.052 197.501 348.295C197.555 347.539 197.757 346.801 198.096 346.122C198.435 345.444 198.905 344.839 199.477 344.343L226.49 320.947L234.045 329.669L207.032 353.065C206.461 353.561 205.797 353.941 205.079 354.18C204.36 354.42 203.602 354.516 202.847 354.463C202.091 354.409 201.354 354.207 200.677 353.868C200 353.529 199.396 353.06 198.9 352.487Z" fill="white" stroke="#263238" stroke-width="0.75" stroke-linecap="round" stroke-linejoin="round"/>
<path d="M231.343 329.2L226.481 323.586L222.477 327.054L227.338 332.668L231.343 329.2Z" fill="#334AC0"/>
<mask id="mask22_359_86" style="mask-type:luminance" maskUnits="userSpaceOnUse" x="222" y="323" width="10" height="10">
<path d="M231.343 329.201L226.481 323.586L222.477 327.054L227.338 332.668L231.343 329.201Z" fill="white"/>
</mask>
<g mask="url(#mask22_359_86)">
<path opacity="0.7" d="M231.343 329.201L226.481 323.586L222.477 327.054L227.338 332.668L231.343 329.201Z" fill="white"/>
</g>
<path d="M226.403 333.495L221.533 327.872L217.528 331.339L222.398 336.963L226.403 333.495Z" fill="#334AC0"/>
<mask id="mask23_359_86" style="mask-type:luminance" maskUnits="userSpaceOnUse" x="217" y="327" width="10" height="10">
<path d="M226.402 333.495L221.532 327.871L217.528 331.339L222.398 336.963L226.402 333.495Z" fill="white"/>
</mask>
<g mask="url(#mask23_359_86)">
<path opacity="0.3" d="M226.402 333.495L221.532 327.871L217.528 331.339L222.398 336.963L226.402 333.495Z" fill="white"/>
</g>
<path d="M221.431 337.788L216.569 332.174L212.565 335.642L217.426 341.256L221.431 337.788Z" fill="#334AC0"/>
<path d="M216.481 342.092L211.619 336.478L207.615 339.945L212.476 345.559L216.481 342.092Z" fill="#334AC0"/>
<mask id="mask24_359_86" style="mask-type:luminance" maskUnits="userSpaceOnUse" x="207" y="336" width="10" height="10">
<path d="M216.481 342.092L211.619 336.478L207.615 339.945L212.476 345.559L216.481 342.092Z" fill="white"/>
</mask>
<g mask="url(#mask24_359_86)">
<path opacity="0.2" d="M216.481 342.092L211.619 336.478L207.615 339.945L212.476 345.559L216.481 342.092Z" fill="black"/>
</g>
<path d="M211.528 346.374L206.658 340.75L202.653 344.218L207.523 349.842L211.528 346.374Z" fill="#334AC0"/>
<mask id="mask25_359_86" style="mask-type:luminance" maskUnits="userSpaceOnUse" x="202" y="340" width="10" height="10">
<path d="M211.528 346.374L206.658 340.75L202.653 344.218L207.523 349.842L211.528 346.374Z" fill="white"/>
</mask>
<g mask="url(#mask25_359_86)">
<path opacity="0.3" d="M211.528 346.374L206.658 340.75L202.653 344.218L207.523 349.842L211.528 346.374Z" fill="black"/>
</g>
<path d="M199.991 352.693C198.548 352.189 197.363 351.134 196.697 349.759C196.031 348.383 195.938 346.8 196.438 345.356L208.135 311.648L219.025 315.419L207.327 349.191C206.816 350.626 205.757 351.801 204.382 352.457C203.007 353.114 201.428 353.198 199.991 352.693Z" fill="white" stroke="#263238" stroke-width="0.75" stroke-linecap="round" stroke-linejoin="round"/>
<path d="M216.468 316.318L209.438 313.883L207.704 318.888L214.734 321.323L216.468 316.318Z" fill="#334AC0"/>
<mask id="mask26_359_86" style="mask-type:luminance" maskUnits="userSpaceOnUse" x="207" y="313" width="10" height="9">
<path d="M216.468 316.318L209.439 313.883L207.704 318.888L214.734 321.323L216.468 316.318Z" fill="white"/>
</mask>
<g mask="url(#mask26_359_86)">
<path opacity="0.7" d="M216.468 316.318L209.439 313.883L207.704 318.888L214.734 321.323L216.468 316.318Z" fill="white"/>
</g>
<path d="M214.302 322.501L207.285 320.07L205.551 325.075L212.568 327.506L214.302 322.501Z" fill="#334AC0"/>
<mask id="mask27_359_86" style="mask-type:luminance" maskUnits="userSpaceOnUse" x="205" y="320" width="10" height="8">
<path d="M214.303 322.501L207.285 320.069L205.551 325.075L212.568 327.506L214.303 322.501Z" fill="white"/>
</mask>
<g mask="url(#mask27_359_86)">
<path opacity="0.3" d="M214.303 322.501L207.285 320.069L205.551 325.075L212.568 327.506L214.303 322.501Z" fill="white"/>
</g>
<path d="M212.162 328.692L205.144 326.261L203.41 331.266L210.427 333.697L212.162 328.692Z" fill="#334AC0"/>
<path d="M210.033 334.901L203.003 332.465L201.269 337.471L208.298 339.906L210.033 334.901Z" fill="#334AC0"/>
<mask id="mask28_359_86" style="mask-type:luminance" maskUnits="userSpaceOnUse" x="201" y="332" width="10" height="8">
<path d="M210.033 334.901L203.003 332.465L201.269 337.471L208.299 339.906L210.033 334.901Z" fill="white"/>
</mask>
<g mask="url(#mask28_359_86)">
<path opacity="0.2" d="M210.033 334.901L203.003 332.465L201.269 337.471L208.299 339.906L210.033 334.901Z" fill="black"/>
</g>
<path d="M207.867 341.083L200.85 338.652L199.116 343.657L206.133 346.089L207.867 341.083Z" fill="#334AC0"/>
<mask id="mask29_359_86" style="mask-type:luminance" maskUnits="userSpaceOnUse" x="199" y="338" width="9" height="9">
<path d="M207.867 341.083L200.85 338.652L199.116 343.657L206.133 346.089L207.867 341.083Z" fill="white"/>
</mask>
<g mask="url(#mask29_359_86)">
<path opacity="0.3" d="M207.867 341.083L200.85 338.652L199.116 343.657L206.133 346.089L207.867 341.083Z" fill="black"/>
</g>
<path d="M186.51 331.568L196.232 338.661C196.232 338.661 207.263 338.661 209.264 341.675C211.265 344.689 211.829 348.088 210.034 349.307C208.238 350.525 210.97 346.049 205.981 343.778C205.981 343.778 208.546 355.412 204.095 352.924C204.095 352.924 203.518 354.899 201.838 353.09C202.129 351.642 201.911 350.138 201.222 348.832C201.023 348.348 200.702 347.924 200.291 347.6C199.88 347.277 199.392 347.065 198.875 346.985C198.875 346.985 202.004 351.256 199.939 352.423C198.272 353.36 197.374 347.216 195.142 346.523C193.936 346.443 192.772 346.044 191.77 345.368C190.767 344.693 189.962 343.763 189.434 342.675L181.905 338.584L186.51 331.568Z" fill="white" stroke="#263238" stroke-linecap="round" stroke-linejoin="round"/>
<path d="M204.48 351.115C204.728 348.95 204.12 346.773 202.787 345.048" stroke="#263238" stroke-width="0.75" stroke-linecap="round" stroke-linejoin="round"/>
<path d="M206.891 341.777C206.891 341.777 206.686 342.662 204.685 342.469C203.21 342.328 201.042 345.304 198.785 344.855" stroke="#263238" stroke-width="0.75" stroke-linecap="round" stroke-linejoin="round"/>
<path d="M158.561 265.639C158.445 265.481 158.289 265.357 158.108 265.28C157.928 265.203 157.73 265.177 157.536 265.203C157.341 265.229 157.158 265.307 157.004 265.429C156.851 265.551 156.733 265.712 156.663 265.895C154.547 271.334 148.877 289.509 151.93 321.729C151.93 321.729 154.38 328.309 183.162 340.879L188.639 332.413L167.36 315.136C167.36 315.136 170.143 292.049 168.04 283.429" fill="#334AC0"/>
<path d="M158.561 265.639C158.445 265.481 158.289 265.357 158.108 265.28C157.928 265.203 157.73 265.177 157.536 265.203C157.341 265.229 157.158 265.307 157.004 265.429C156.851 265.551 156.733 265.712 156.663 265.895C154.547 271.334 148.877 289.509 151.93 321.729C151.93 321.729 154.38 328.309 183.162 340.879L188.639 332.413L167.36 315.136C167.36 315.136 170.143 292.049 168.04 283.429" stroke="#263238" stroke-linecap="round" stroke-linejoin="round"/>
<path d="M187.369 330.464L180.764 341.161L185.946 343.021L191.512 333.671L187.369 330.464Z" fill="#334AC0" stroke="#263238" stroke-linecap="round" stroke-linejoin="round"/>
<path d="M71.5215 161.809C71.6369 165.247 71.9961 175.559 71.9961 175.559L92.4414 187.821L93.7241 164.452L94.4295 132.386L97.79 127.717C97.79 127.717 102.818 120.021 94.4295 117.032C86.041 114.044 88.3754 119.598 80.0383 120.534C71.7011 121.47 52.1536 134.643 61.0038 146.097C69.8541 157.551 71.3163 156.063 71.5215 161.809Z" fill="#999999"/>
<mask id="mask30_359_86" style="mask-type:luminance" maskUnits="userSpaceOnUse" x="58" y="116" width="42" height="72">
<path d="M71.5215 161.809C71.6369 165.247 71.9961 175.559 71.9961 175.559L92.4414 187.821L93.7241 164.452L94.4295 132.386L97.79 127.717C97.79 127.717 102.818 120.021 94.4295 117.032C86.041 114.044 88.3754 119.598 80.0383 120.534C71.7011 121.47 52.1536 134.643 61.0038 146.097C69.8541 157.551 71.3163 156.063 71.5215 161.809Z" fill="white"/>
</mask>
<g mask="url(#mask30_359_86)">
<path d="M79.3583 155.691C80.556 156.726 81.9934 157.445 83.5397 157.782C83.5397 157.782 86.7078 166.761 88.2983 167.966C89.8888 169.172 95.5581 170.134 95.5581 170.134L97.2255 158.295L85.4508 150.599L79.0376 148.675L79.3583 155.691Z" fill="#263238" stroke="#263238" stroke-linecap="round" stroke-linejoin="round"/>
</g>
<path d="M71.5215 161.809C71.6369 165.247 71.9961 175.559 71.9961 175.559L92.4414 187.821L93.7241 164.452L94.4295 132.386L97.79 127.717C97.79 127.717 102.818 120.021 94.4295 117.032C86.041 114.044 88.3754 119.598 80.0383 120.534C71.7011 121.47 52.1536 134.643 61.0038 146.097C69.8541 157.551 71.3163 156.063 71.5215 161.809Z" stroke="#263238" stroke-linecap="round" stroke-linejoin="round"/>
<path d="M94.4163 132.411L97.7768 127.742C97.7768 127.742 102.805 120.046 94.4163 117.057C86.0278 114.069 88.3622 119.623 80.025 120.559C71.6878 121.495 52.1532 134.642 61.0034 146.096C66.7497 153.587 69.3919 155.55 70.5848 157.64C71.5272 157.034 72.6505 156.773 73.7635 156.902C74.8766 157.031 75.9107 157.541 76.6902 158.346C80.025 161.668 83.424 143.108 83.424 143.108L94.3522 135.348L94.4163 132.411Z" fill="#263238" stroke="#263238" stroke-linecap="round" stroke-linejoin="round"/>
<path d="M79.525 144.763C79.525 144.763 71.2904 144.981 75.6771 151.176C80.0637 157.372 84.6556 156.192 84.6556 156.192L89.6707 165.747C89.6707 165.747 107.128 168.21 111.245 167.03C115.362 165.85 108.243 151.459 108.243 151.459L110.975 148.329C111.128 148.158 111.243 147.957 111.315 147.739C111.387 147.522 111.413 147.292 111.393 147.063C111.372 146.835 111.305 146.613 111.196 146.412C111.087 146.21 110.938 146.034 110.757 145.892L104.242 140.659C104.793 137.439 97.6744 127.755 97.6744 127.755C97.6744 127.755 87.1054 127.64 86.1306 131.206C85.5325 133.316 85.0487 135.457 84.6812 137.619L78.6785 140.069L79.525 144.763Z" fill="#999999"/>
<mask id="mask31_359_86" style="mask-type:luminance" maskUnits="userSpaceOnUse" x="74" y="127" width="39" height="41">
<path d="M79.525 144.763C79.525 144.763 71.2904 144.981 75.6771 151.176C80.0637 157.372 84.6556 156.192 84.6556 156.192L89.6707 165.747C89.6707 165.747 107.128 168.21 111.245 167.03C115.362 165.85 108.243 151.459 108.243 151.459L110.975 148.329C111.128 148.158 111.243 147.957 111.315 147.739C111.387 147.522 111.413 147.292 111.393 147.063C111.372 146.835 111.305 146.613 111.196 146.412C111.087 146.21 110.938 146.034 110.757 145.892L104.242 140.659C104.793 137.439 97.6744 127.755 97.6744 127.755C97.6744 127.755 87.1054 127.64 86.1306 131.206C85.5325 133.316 85.0487 135.457 84.6812 137.619L78.6785 140.069L79.525 144.763Z" fill="white"/>
</mask>
<g mask="url(#mask31_359_86)">
<path opacity="0.3" d="M83.5398 135.079L84.8225 137.645C84.8225 137.645 90.107 141.262 90.3892 143.211C90.7483 145.777 88.0163 147.547 93.5958 152.998C99.1753 158.449 104.524 152.113 108.41 151.446C112.297 150.779 115.529 160.681 115.529 160.681L115.093 169.66L93.5958 170.326L88.9398 167.441L82.8472 157.179C82.8472 157.179 89.4528 156.589 86.1564 150.766C81.5902 142.724 76.2544 143.866 76.2544 143.866L72.5732 140.595L82.0392 133.784L83.5398 135.079Z" fill="black"/>
</g>
<path d="M79.525 144.763C79.525 144.763 71.2904 144.981 75.6771 151.176C80.0637 157.372 84.6556 156.192 84.6556 156.192L89.6707 165.747C89.6707 165.747 107.128 168.21 111.245 167.03C115.362 165.85 108.243 151.459 108.243 151.459L110.975 148.329C111.128 148.158 111.243 147.957 111.315 147.739C111.387 147.522 111.413 147.292 111.393 147.063C111.372 146.835 111.305 146.613 111.196 146.412C111.087 146.21 110.938 146.034 110.757 145.892L104.242 140.659C104.793 137.439 97.6744 127.755 97.6744 127.755C97.6744 127.755 87.1054 127.64 86.1306 131.206C85.5325 133.316 85.0487 135.457 84.6812 137.619L78.6785 140.069L79.525 144.763Z" stroke="#263238" stroke-linecap="round" stroke-linejoin="round"/>
<path d="M102.741 141.505C103.074 142.493 103.023 143.416 102.612 143.557C102.202 143.699 101.599 143.006 101.266 142.005C100.932 141.005 100.996 140.107 101.394 139.966C101.791 139.825 102.381 140.518 102.741 141.505Z" fill="#263238"/>
<path d="M101.099 136.862C101.099 136.862 98.0975 136.195 97.251 140.312" stroke="#263238" stroke-linecap="round" stroke-linejoin="round"/>
<path d="M107.063 153.459C107.063 153.459 106.024 156.358 102.061 154.896" stroke="#263238" stroke-linecap="round" stroke-linejoin="round"/>
<path d="M179.456 152.908C180.739 153.459 180.841 155.781 180.841 155.781C183.586 154.665 182.919 159.462 182.919 159.462C185.985 158.731 183.56 163.618 183.56 163.618C183.56 163.618 185.549 164.515 183.714 166.491C181.303 169.056 173.145 173.032 173.145 173.032L162.73 182.319L155.483 175.315L165.924 166.76C165.924 166.76 166.424 163.977 167.079 160.347C167.079 160.347 168.04 155.883 170.349 153.536C172.658 151.189 178.058 152.356 179.456 152.908Z" fill="#999999" stroke="#263238" stroke-linecap="round" stroke-linejoin="round"/>
<path d="M177.493 155.525C177.493 155.525 176.069 162.323 179.584 157.089C179.584 157.089 176.634 164.58 181.546 160.412C181.546 160.412 176.48 165.658 181.303 164.17C181.303 164.17 179.02 165.144 178.84 166.273C178.66 167.402 180.931 167.043 180.931 167.043" fill="#999999"/>
<path d="M177.493 155.525C177.493 155.525 176.069 162.323 179.584 157.089C179.584 157.089 176.634 164.58 181.546 160.412C181.546 160.412 176.48 165.658 181.303 164.17C181.303 164.17 179.02 165.144 178.84 166.273C178.66 167.402 180.931 167.043 180.931 167.043" stroke="#263238" stroke-linecap="round" stroke-linejoin="round"/>
<path d="M71.0081 210.319C71.0081 210.319 89.5679 214.642 129.33 208.78C129.33 208.78 159.87 192.824 167.668 178.138L160.421 169.813L122.904 190.874C122.904 190.874 83.8345 184.846 76.6004 185.744L71.0081 210.319Z" fill="#263238" stroke="#263238" stroke-linecap="round" stroke-linejoin="round"/>
<path d="M231.997 110.576L169.321 121.639L177.541 168.21L240.217 157.148L231.997 110.576Z" fill="#999999" stroke="#263238" stroke-width="0.75" stroke-linecap="round" stroke-linejoin="round"/>
<path d="M180.468 122.772L173.9 123.931L174.76 128.807L181.328 127.647L180.468 122.772Z" fill="#263238" stroke="#263238" stroke-linecap="round" stroke-linejoin="round"/>
<path d="M185.933 156.269L196.784 130.962L215.639 151.023L185.933 156.269Z" fill="#334AC0"/>
<mask id="mask32_359_86" style="mask-type:luminance" maskUnits="userSpaceOnUse" x="185" y="130" width="31" height="27">
<path d="M185.933 156.269L196.784 130.962L215.639 151.023L185.933 156.269Z" fill="white"/>
</mask>
<g mask="url(#mask32_359_86)">
<path opacity="0.5" d="M185.933 156.269L196.784 130.962L215.639 151.023L185.933 156.269Z" fill="white"/>
</g>
<path d="M185.933 156.269L196.784 130.962L215.639 151.023L185.933 156.269Z" stroke="#263238" stroke-width="0.75" stroke-linecap="round" stroke-linejoin="round"/>
<path d="M205.558 152.805L213.843 133.489L228.248 148.804L205.558 152.805Z" fill="#334AC0" stroke="#263238" stroke-width="0.75" stroke-linecap="round" stroke-linejoin="round"/>
<path d="M211.548 128.358C211.681 129.108 211.589 129.88 211.283 130.578C210.977 131.275 210.471 131.866 209.829 132.275C209.187 132.685 208.438 132.895 207.676 132.879C206.915 132.862 206.176 132.62 205.552 132.183C204.928 131.747 204.448 131.135 204.172 130.425C203.896 129.715 203.838 128.939 204.003 128.196C204.168 127.452 204.551 126.775 205.101 126.249C205.652 125.723 206.347 125.372 207.097 125.241C208.1 125.066 209.132 125.295 209.966 125.88C210.801 126.464 211.369 127.355 211.548 128.358Z" fill="#334AC0"/>
<mask id="mask33_359_86" style="mask-type:luminance" maskUnits="userSpaceOnUse" x="203" y="125" width="9" height="8">
<path d="M211.548 128.358C211.681 129.108 211.589 129.88 211.283 130.578C210.977 131.275 210.471 131.866 209.829 132.275C209.187 132.685 208.438 132.895 207.676 132.879C206.915 132.862 206.176 132.62 205.552 132.183C204.928 131.747 204.448 131.135 204.172 130.425C203.896 129.715 203.838 128.939 204.003 128.196C204.168 127.452 204.551 126.775 205.101 126.249C205.652 125.723 206.347 125.372 207.097 125.241C208.1 125.066 209.132 125.295 209.966 125.88C210.801 126.464 211.369 127.355 211.548 128.358Z" fill="white"/>
</mask>
<g mask="url(#mask33_359_86)">
<path opacity="0.7" d="M211.548 128.358C211.681 129.108 211.589 129.88 211.283 130.578C210.977 131.275 210.471 131.866 209.829 132.275C209.187 132.685 208.438 132.895 207.676 132.879C206.915 132.862 206.176 132.62 205.552 132.183C204.928 131.747 204.448 131.135 204.172 130.425C203.896 129.715 203.838 128.939 204.003 128.196C204.168 127.452 204.551 126.775 205.101 126.249C205.652 125.723 206.347 125.372 207.097 125.241C208.1 125.066 209.132 125.295 209.966 125.88C210.801 126.464 211.369 127.355 211.548 128.358Z" fill="white"/>
</g>
<path d="M211.548 128.358C211.681 129.108 211.589 129.88 211.283 130.578C210.977 131.275 210.471 131.866 209.829 132.275C209.187 132.685 208.438 132.895 207.676 132.879C206.915 132.862 206.176 132.62 205.552 132.183C204.928 131.747 204.448 131.135 204.172 130.425C203.896 129.715 203.838 128.939 204.003 128.196C204.168 127.452 204.551 126.775 205.101 126.249C205.652 125.723 206.347 125.372 207.097 125.241C208.1 125.066 209.132 125.295 209.966 125.88C210.801 126.464 211.369 127.355 211.548 128.358Z" stroke="#263238" stroke-width="0.75" stroke-linecap="round" stroke-linejoin="round"/>
<path d="M173.081 152.934C173.337 152.678 173.66 152.501 174.013 152.424C174.366 152.346 174.734 152.37 175.073 152.494C175.412 152.618 175.709 152.836 175.929 153.123C176.149 153.41 176.282 153.754 176.313 154.114C177.224 157.166 181.162 158.693 180.084 159.347C179.007 160.001 176.531 161.284 174.492 157.859C174.492 157.859 173.735 157.782 173.786 159.257C173.851 161.053 173.786 163.297 172.901 164.452" fill="#999999"/>
<path d="M173.081 152.934C173.337 152.678 173.66 152.501 174.013 152.424C174.366 152.346 174.734 152.37 175.073 152.494C175.412 152.618 175.709 152.836 175.929 153.123C176.149 153.41 176.282 153.754 176.313 154.114C177.224 157.166 181.162 158.693 180.084 159.347C179.007 160.001 176.531 161.284 174.492 157.859C174.492 157.859 173.735 157.782 173.786 159.257C173.851 161.053 173.786 163.297 172.901 164.452" stroke="#263238" stroke-linecap="round" stroke-linejoin="round"/>
<path d="M31.3488 465.346C27.9981 469.647 25.6414 474.636 24.4482 479.956C24.3283 480.482 24.3152 481.027 24.4099 481.558C24.5046 482.089 24.705 482.596 24.9993 483.048C25.2936 483.5 25.6758 483.889 26.1232 484.19C26.5705 484.492 27.0739 484.701 27.6035 484.804L53.6412 490.114C59.3618 491.294 68.1223 491.051 72.5474 490.833C73.0578 490.814 73.5584 490.687 74.0158 490.459C74.4731 490.232 74.8767 489.91 75.1996 489.514C75.5225 489.118 75.7573 488.658 75.8883 488.165C76.0193 487.671 76.0435 487.155 75.9592 486.651C75.7172 485.664 75.2528 484.745 74.6015 483.965C73.9502 483.185 73.1291 482.564 72.2011 482.149C66.0444 478.737 51.4094 476.441 45.381 467.193L31.3488 465.346Z" fill="#263238" stroke="#263238" stroke-linecap="round" stroke-linejoin="round"/>
<path d="M108.987 305.158C108.987 305.158 95.2886 343.214 77.7549 379.628C77.7549 379.628 74.3559 395.636 66.6985 406.564L47.4588 467.989C47.4588 467.989 39.019 471.465 29.0144 465.424C29.0144 465.424 33.7858 426.124 45.9838 397.611L53.1794 375.023L62.1579 329.541C62.1579 329.541 54.5518 316.381 56.5784 297.064L90.3504 296.603L108.987 305.158Z" fill="#334AC0"/>
<mask id="mask34_359_86" style="mask-type:luminance" maskUnits="userSpaceOnUse" x="29" y="296" width="80" height="173">
<path d="M108.987 305.158C108.987 305.158 95.2886 343.214 77.7549 379.628C77.7549 379.628 74.3559 395.636 66.6985 406.564L47.4588 467.989C47.4588 467.989 39.019 471.465 29.0144 465.424C29.0144 465.424 33.7858 426.124 45.9838 397.611L53.1794 375.023L62.1579 329.541C62.1579 329.541 54.5518 316.381 56.5784 297.064L90.3504 296.603L108.987 305.158Z" fill="white"/>
</mask>
<g mask="url(#mask34_359_86)">
<path opacity="0.2" d="M65.6211 299.206C63.3508 300.488 61.196 301.938 58.8872 303.144C57.6861 303.719 56.5248 304.375 55.4113 305.106C55.4882 305.106 55.3343 305.221 55.1804 305.363C55.2036 305.571 55.2036 305.782 55.1804 305.991C55.1162 306.38 55.0042 306.759 54.8469 307.12C55.4444 307.702 55.9033 308.412 56.1898 309.195C56.4762 309.979 56.5827 310.817 56.5015 311.647C56.5015 312.237 56.5015 312.828 56.3989 313.418L56.5657 313.674C57.3131 315.338 57.8184 317.1 58.0664 318.907C58.61 321.598 59.5026 324.207 60.7214 326.667C60.9808 327.238 61.1745 327.836 61.2986 328.45L62.158 329.54C62.158 329.54 70.4695 385.156 76.6647 383.912C82.8599 382.667 86.9258 353.038 86.9258 353.038L65.6211 299.206Z" fill="black"/>
</g>
<path d="M108.987 305.158C108.987 305.158 95.2886 343.214 77.7549 379.628C77.7549 379.628 74.3559 395.636 66.6985 406.564L47.4588 467.989C47.4588 467.989 39.019 471.465 29.0144 465.424C29.0144 465.424 33.7858 426.124 45.9838 397.611L53.1794 375.023L62.1579 329.541C62.1579 329.541 54.5518 316.381 56.5784 297.064L90.3504 296.603L108.987 305.158Z" stroke="#263238" stroke-linecap="round" stroke-linejoin="round"/>
<path d="M89.5554 471.453C89.5554 471.453 85.4509 476.929 85.2328 486.703C85.2277 487.27 85.3352 487.832 85.549 488.357C85.7629 488.882 86.0788 489.36 86.4784 489.762C86.8781 490.164 87.3536 490.483 87.8774 490.7C88.4012 490.917 88.9628 491.027 89.5297 491.026H117.748C123.943 491.026 132.986 488.909 137.539 487.742C138.069 487.61 138.566 487.366 138.994 487.028C139.423 486.689 139.775 486.262 140.026 485.777C140.277 485.291 140.422 484.758 140.451 484.212C140.48 483.667 140.393 483.121 140.194 482.612C139.724 481.647 139.043 480.8 138.202 480.134C137.36 479.468 136.38 479 135.333 478.764C128.201 476.545 112.515 477.276 104.28 468.951L89.5554 471.453Z" fill="#263238" stroke="#263238" stroke-linecap="round" stroke-linejoin="round"/>
<path d="M106.55 293.434C106.55 293.434 112.207 334.363 106.55 374.42C106.55 374.42 106.896 391.095 102.895 403.793L106.088 469.554C106.088 469.554 99.2263 474.89 87.8749 472.222C87.8749 472.222 76.19 430.831 78.8964 401.125L77.6137 377.422L68.5198 328.322C68.5198 328.322 58.0919 320.626 54.167 301.618L86.2331 290.933L106.55 293.434Z" fill="#334AC0" stroke="#263238" stroke-linecap="round" stroke-linejoin="round"/>
<path d="M68.8529 174.469C68.8529 174.469 54.8336 185.154 52.8199 211.859C50.8061 238.563 46.4836 294.307 55.1671 308.993C55.1671 308.993 63.5043 293.999 108.576 300.015C108.576 300.015 113.245 277.645 106.229 233.92C99.2131 190.195 91.2094 179.151 68.8529 174.469Z" fill="#263238" stroke="#263238" stroke-linecap="round" stroke-linejoin="round"/>
<path d="M68.8535 175.803L70.1362 167.466C76.8674 167.815 83.3056 170.33 88.4908 174.636C94.4551 179.664 96.3406 184.487 91.9924 190.156L68.8535 176.804V175.803Z" fill="#263238" stroke="#263238" stroke-linecap="round" stroke-linejoin="round"/>
<path d="M91.6843 187.027C86.7974 180.703 80.5509 177.33 72.0854 175.188" stroke="#7F7F7F" stroke-width="0.75" stroke-linecap="round" stroke-linejoin="round"/>
<path d="M102.51 213.628C100.137 203.598 97.4694 196.159 94.1089 190.541" stroke="#7F7F7F" stroke-width="0.75" stroke-linecap="round" stroke-linejoin="round"/>
<path d="M140.872 270.626L77.2271 270.715L77.2931 318.006L140.938 317.917L140.872 270.626Z" fill="#999999" stroke="#263238" stroke-width="0.75" stroke-linecap="round" stroke-linejoin="round"/>
<path d="M88.0186 273.752L81.3489 273.762L81.3558 278.713L88.0255 278.703L88.0186 273.752Z" fill="#263238" stroke="#263238" stroke-linecap="round" stroke-linejoin="round"/>
<path d="M87.6057 307.711L102.664 284.649L117.773 307.659L87.6057 307.711Z" fill="#334AC0"/>
<mask id="mask35_359_86" style="mask-type:luminance" maskUnits="userSpaceOnUse" x="87" y="284" width="31" height="24">
<path d="M87.6057 307.711L102.664 284.649L117.773 307.659L87.6057 307.711Z" fill="white"/>
</mask>
<g mask="url(#mask35_359_86)">
<path opacity="0.5" d="M87.6057 307.711L102.664 284.649L117.773 307.659L87.6057 307.711Z" fill="white"/>
</g>
<path d="M87.6057 307.711L102.664 284.649L117.773 307.659L87.6057 307.711Z" stroke="#263238" stroke-width="0.75" stroke-linecap="round" stroke-linejoin="round"/>
<path d="M107.538 307.685L119.031 290.074L130.574 307.646L107.538 307.685Z" fill="#334AC0" stroke="#263238" stroke-width="0.75" stroke-linecap="round" stroke-linejoin="round"/>
<path d="M117.658 284.622C117.658 285.383 117.432 286.127 117.01 286.76C116.587 287.393 115.986 287.886 115.283 288.177C114.58 288.468 113.806 288.545 113.059 288.396C112.313 288.248 111.627 287.881 111.089 287.343C110.551 286.805 110.185 286.119 110.036 285.373C109.888 284.626 109.964 283.853 110.255 283.15C110.546 282.446 111.04 281.845 111.672 281.423C112.305 281 113.049 280.774 113.81 280.774C114.831 280.774 115.809 281.18 116.531 281.901C117.253 282.623 117.658 283.602 117.658 284.622Z" fill="#334AC0"/>
<mask id="mask36_359_86" style="mask-type:luminance" maskUnits="userSpaceOnUse" x="109" y="280" width="9" height="9">
<path d="M117.658 284.622C117.658 285.383 117.432 286.127 117.01 286.76C116.587 287.393 115.986 287.886 115.283 288.177C114.58 288.468 113.806 288.545 113.059 288.396C112.313 288.248 111.627 287.881 111.089 287.343C110.551 286.805 110.185 286.119 110.036 285.373C109.888 284.626 109.964 283.853 110.255 283.15C110.546 282.446 111.04 281.845 111.672 281.423C112.305 281 113.049 280.774 113.81 280.774C114.831 280.774 115.809 281.18 116.531 281.901C117.253 282.623 117.658 283.602 117.658 284.622Z" fill="white"/>
</mask>
<g mask="url(#mask36_359_86)">
<path opacity="0.7" d="M117.658 284.622C117.658 285.383 117.432 286.127 117.01 286.76C116.587 287.393 115.986 287.886 115.283 288.177C114.58 288.468 113.806 288.545 113.059 288.396C112.313 288.248 111.627 287.881 111.089 287.343C110.551 286.805 110.185 286.119 110.036 285.373C109.888 284.626 109.964 283.853 110.255 283.15C110.546 282.446 111.04 281.845 111.672 281.423C112.305 281 113.049 280.774 113.81 280.774C114.831 280.774 115.809 281.18 116.531 281.901C117.253 282.623 117.658 283.602 117.658 284.622Z" fill="white"/>
</g>
<path d="M117.658 284.622C117.658 285.383 117.432 286.127 117.01 286.76C116.587 287.393 115.986 287.886 115.283 288.177C114.58 288.468 113.806 288.545 113.059 288.396C112.313 288.248 111.627 287.881 111.089 287.343C110.551 286.805 110.185 286.119 110.036 285.373C109.888 284.626 109.964 283.853 110.255 283.15C110.546 282.446 111.04 281.845 111.672 281.423C112.305 281 113.049 280.774 113.81 280.774C114.831 280.774 115.809 281.18 116.531 281.901C117.253 282.623 117.658 283.602 117.658 284.622Z" stroke="#263238" stroke-width="0.75" stroke-linecap="round" stroke-linejoin="round"/>
<path d="M137.528 266.746L74.4248 275.031L80.5812 321.92L143.684 313.635L137.528 266.746Z" fill="white" stroke="#263238" stroke-width="0.75" stroke-linecap="round" stroke-linejoin="round"/>
<path d="M85.5341 276.661L78.9211 277.529L79.5657 282.438L86.1787 281.57L85.5341 276.661Z" fill="#263238" stroke="#263238" stroke-linecap="round" stroke-linejoin="round"/>
<path d="M89.5039 310.366L101.471 285.56L119.428 306.428L89.5039 310.366Z" fill="#334AC0"/>
<mask id="mask37_359_86" style="mask-type:luminance" maskUnits="userSpaceOnUse" x="89" y="285" width="31" height="26">
<path d="M89.5039 310.366L101.471 285.56L119.428 306.428L89.5039 310.366Z" fill="white"/>
</mask>
<g mask="url(#mask37_359_86)">
<path opacity="0.5" d="M89.5039 310.366L101.471 285.56L119.428 306.428L89.5039 310.366Z" fill="white"/>
</g>
<path d="M89.5039 310.366L101.471 285.56L119.428 306.428L89.5039 310.366Z" stroke="#263238" stroke-width="0.75" stroke-linecap="round" stroke-linejoin="round"/>
<path d="M109.269 307.762L118.402 288.83L132.113 304.761L109.269 307.762Z" fill="#334AC0" stroke="#263238" stroke-width="0.75" stroke-linecap="round" stroke-linejoin="round"/>
<path d="M116.337 283.597C116.437 284.351 116.31 285.118 115.975 285.801C115.639 286.483 115.108 287.051 114.449 287.432C113.79 287.813 113.034 287.991 112.274 287.942C111.515 287.893 110.787 287.62 110.183 287.157C109.579 286.694 109.125 286.063 108.88 285.343C108.634 284.623 108.608 283.846 108.804 283.11C109 282.375 109.409 281.715 109.981 281.212C110.552 280.71 111.26 280.388 112.014 280.287C112.515 280.221 113.025 280.253 113.513 280.383C114.002 280.514 114.46 280.739 114.861 281.046C115.263 281.354 115.599 281.737 115.853 282.175C116.106 282.612 116.27 283.095 116.337 283.597Z" fill="#334AC0"/>
<mask id="mask38_359_86" style="mask-type:luminance" maskUnits="userSpaceOnUse" x="108" y="280" width="9" height="8">
<path d="M116.337 283.597C116.437 284.351 116.31 285.118 115.975 285.801C115.639 286.483 115.108 287.051 114.449 287.432C113.79 287.813 113.034 287.991 112.274 287.942C111.515 287.893 110.787 287.62 110.183 287.157C109.579 286.694 109.125 286.063 108.88 285.343C108.634 284.623 108.608 283.846 108.804 283.11C109 282.375 109.409 281.715 109.981 281.212C110.552 280.71 111.26 280.388 112.014 280.287C112.515 280.221 113.025 280.253 113.513 280.383C114.002 280.514 114.46 280.739 114.861 281.046C115.263 281.354 115.599 281.737 115.853 282.175C116.106 282.612 116.27 283.095 116.337 283.597Z" fill="white"/>
</mask>
<g mask="url(#mask38_359_86)">
<path opacity="0.7" d="M116.337 283.597C116.437 284.351 116.31 285.118 115.975 285.801C115.639 286.483 115.108 287.051 114.449 287.432C113.79 287.813 113.034 287.991 112.274 287.942C111.515 287.893 110.787 287.62 110.183 287.157C109.579 286.694 109.125 286.063 108.88 285.343C108.634 284.623 108.608 283.846 108.804 283.11C109 282.375 109.409 281.715 109.981 281.212C110.552 280.71 111.26 280.388 112.014 280.287C112.515 280.221 113.025 280.253 113.513 280.383C114.002 280.514 114.46 280.739 114.861 281.046C115.263 281.354 115.599 281.737 115.853 282.175C116.106 282.612 116.27 283.095 116.337 283.597Z" fill="white"/>
</g>
<path d="M116.337 283.597C116.437 284.351 116.31 285.118 115.975 285.801C115.639 286.483 115.108 287.051 114.449 287.432C113.79 287.813 113.034 287.991 112.274 287.942C111.515 287.893 110.787 287.62 110.183 287.157C109.579 286.694 109.125 286.063 108.88 285.343C108.634 284.623 108.608 283.846 108.804 283.11C109 282.375 109.409 281.715 109.981 281.212C110.552 280.71 111.26 280.388 112.014 280.287C112.515 280.221 113.025 280.253 113.513 280.383C114.002 280.514 114.46 280.739 114.861 281.046C115.263 281.354 115.599 281.737 115.853 282.175C116.106 282.612 116.27 283.095 116.337 283.597Z" stroke="#263238" stroke-width="0.75" stroke-linecap="round" stroke-linejoin="round"/>
<path d="M100.471 293.435L107.205 303.029L114.9 304.812C118.056 305.543 119.723 306.235 120.929 309.262C121.788 311.43 121.211 312.097 119.646 312.661C119.646 312.661 124.238 321.473 119.454 320.614C119.454 320.614 119.851 324.654 115.08 323.179C115.08 323.179 113.554 325.911 110.244 323.692C110.244 323.692 107.679 325.655 104.113 319.023L98.9828 309.583L91.428 301.066L100.471 293.435Z" fill="#999999" stroke="#263238" stroke-linecap="round" stroke-linejoin="round"/>
<path d="M119.056 317.766C119.056 317.766 119.697 320.434 117.068 320.332C114.438 320.229 114.913 322.897 108.769 321.961" fill="#999999"/>
<path d="M119.056 317.766C119.056 317.766 119.697 320.434 117.068 320.332C114.438 320.229 114.913 322.897 108.769 321.961" stroke="#263238" stroke-linecap="round" stroke-linejoin="round"/>
<path d="M64.1717 197.492C64.1717 197.492 57.502 217.514 61.1703 261.624C61.1703 261.624 77.601 296.333 94.4165 306.017L104.896 297.333L84.5401 255.942C84.5401 255.942 94.9552 213.551 94.4165 205.547" fill="#263238"/>
<path d="M64.1717 197.492C64.1717 197.492 57.502 217.514 61.1703 261.624C61.1703 261.624 77.601 296.333 94.4165 306.017L104.896 297.333L84.5401 255.942C84.5401 255.942 94.9552 213.551 94.4165 205.547" stroke="#263238" stroke-linecap="round" stroke-linejoin="round"/>
<path d="M92.0305 222.761C93.5569 215.065 94.5958 208.267 94.4804 205.522" stroke="#7F7F7F" stroke-width="0.75" stroke-linecap="round" stroke-linejoin="round"/>
<path d="M85.7072 258.136L84.6169 255.917C84.6169 255.917 88.4649 240.23 91.3637 226.134" stroke="#7F7F7F" stroke-width="0.75" stroke-linecap="round" stroke-linejoin="round"/>
<path d="M91.3512 269.654L87.0415 260.88" stroke="#7F7F7F" stroke-width="0.75" stroke-linecap="round" stroke-linejoin="round"/>
<path d="M60.8755 256.866C60.9781 258.418 61.0935 259.983 61.2346 261.599C65.2333 269.786 69.7889 277.688 74.8691 285.251" stroke="#7F7F7F" stroke-width="0.75" stroke-linecap="round" stroke-linejoin="round"/>
<path d="M64.2357 197.492C64.2357 197.492 58.4254 214.949 60.6315 253.108" stroke="#7F7F7F" stroke-width="0.75" stroke-linecap="round" stroke-linejoin="round"/>
<path d="M490.818 125.152C489.628 113.862 487.043 102.764 483.122 92.1106" stroke="#263238" stroke-linecap="round" stroke-linejoin="round"/>
<path d="M451.351 42.4465C451.413 42.5002 451.469 42.5607 451.518 42.6268" stroke="#263238" stroke-linecap="round" stroke-linejoin="round"/>
<path d="M447.733 39.0602C447.156 38.5343 446.579 38.0341 446.002 37.5467C431.713 25.2718 420.554 22.5397 415.873 21.9241" stroke="#263238" stroke-linecap="round" stroke-linejoin="round"/>
<path d="M414.581 19.2969L411.699 20.7041L413.106 23.5854L415.988 22.1783L414.581 19.2969Z" stroke="#263238" stroke-linecap="round" stroke-linejoin="round"/>
<path d="M491.688 124.734L488.807 126.141L490.214 129.022L493.095 127.615L491.688 124.734Z" stroke="#263238" stroke-linecap="round" stroke-linejoin="round"/>
<path d="M466.652 57.4407L468.358 59.1595C468.303 59.3756 468.188 59.5714 468.025 59.7238C467.879 59.8815 467.692 59.9968 467.486 60.0573L465.754 58.3129L450.606 43.2162L451.479 42.3184L466.652 57.4407Z" fill="#263238" stroke="#263238" stroke-linecap="round" stroke-linejoin="round"/>
<path d="M468.692 57.787C468.931 58.0229 469.099 58.3206 469.178 58.6468C469.258 58.973 469.245 59.3148 469.141 59.634C469.067 59.9251 468.917 60.191 468.705 60.4036C468.496 60.6011 468.246 60.75 467.974 60.8397C467.649 60.947 467.302 60.9631 466.97 60.8862C466.637 60.8093 466.332 60.6423 466.088 60.4036C465.846 60.159 465.676 59.8524 465.597 59.5175C465.518 59.1826 465.532 58.8324 465.639 58.5053C465.728 58.2293 465.882 57.9787 466.088 57.7742C466.295 57.5585 466.556 57.4033 466.845 57.3253C467.165 57.2244 467.507 57.2141 467.833 57.2956C468.159 57.3771 468.456 57.5472 468.692 57.787Z" fill="#263238" stroke="#263238" stroke-linecap="round" stroke-linejoin="round"/>
<path d="M447.528 39.0603L432.663 24.3228" stroke="#263238" stroke-linecap="round" stroke-linejoin="round"/>
<path d="M432.944 22.6937C433.063 22.9509 433.104 23.2375 433.06 23.5174C433.017 23.7974 432.891 24.0582 432.7 24.2672C432.509 24.4761 432.26 24.6238 431.985 24.6917C431.71 24.7595 431.421 24.7445 431.154 24.6486C430.887 24.5526 430.655 24.3799 430.487 24.1523C430.318 23.9247 430.22 23.6523 430.206 23.3693C430.192 23.0863 430.261 22.8055 430.406 22.562C430.551 22.3186 430.765 22.1234 431.02 22.0011C431.192 21.919 431.378 21.8718 431.568 21.8622C431.758 21.8526 431.948 21.8808 432.127 21.9453C432.306 22.0097 432.471 22.1091 432.611 22.2375C432.751 22.366 432.865 22.5211 432.944 22.6937Z" stroke="#263238" stroke-linecap="round" stroke-linejoin="round"/>
<path d="M451.543 39.0603L451.517 42.2669L451.35 42.4465L451.158 42.6517L450.478 43.3443L447.259 43.3187L447.272 39.0603H451.543Z" stroke="#263238" stroke-linecap="round" stroke-linejoin="round"/>
<path d="M451.517 42.2671V43.0238V43.3445H450.478L451.158 42.6519L451.35 42.4467L451.517 42.2671Z" stroke="#5C5C5C" stroke-miterlimit="10"/>
<path d="M480.556 50.3736L485.943 64.5596L473.425 77.1039L459.239 71.7681L449.208 44.6145L451.158 42.6521L451.351 42.4469L453.364 40.4331L480.556 50.3736Z" stroke="#263238" stroke-linecap="round" stroke-linejoin="round"/>
<path d="M502.644 73.5635L483.532 92.7134L473.425 77.1164L485.944 64.5593L502.644 73.5635Z" stroke="#263238" stroke-linecap="round" stroke-linejoin="round"/>
<path d="M479.658 75.6799L487.367 67.9456L494.55 71.7807" stroke="#263238" stroke-linecap="round" stroke-linejoin="round"/>
<path d="M477.26 78.091L478.029 77.3086" stroke="#263238" stroke-linecap="round" stroke-linejoin="round"/>
<path d="M107.371 55.1189C106.44 52.6605 105.03 50.4121 103.221 48.5048C101.412 46.5976 99.2418 45.0697 96.8361 44.0104C94.4304 42.9512 91.8379 42.3817 89.2098 42.3354C86.5816 42.289 83.9706 42.7666 81.5291 43.7403C79.0875 44.714 76.8644 46.1643 74.9895 48.0066C73.1146 49.8488 71.6255 52.0461 70.609 54.4702C69.5925 56.8942 69.0691 59.4964 69.0693 62.125C69.0695 64.7535 69.5933 67.3557 70.6102 69.7796C73.5474 77.142 81.3972 79.7842 87.4256 84.1324C89.2983 85.492 91.8636 92.29 91.8636 92.29L107.512 86.082C107.512 86.082 104.69 79.3866 105.126 77.1035C106.434 69.8181 110.308 62.4942 107.371 55.1189Z" stroke="#263238" stroke-linecap="round" stroke-linejoin="round"/>
<path d="M92.2845 93.3275L107.88 87.1087L108.042 87.5138C108.256 88.0503 108.361 88.6239 108.352 89.2015C108.343 89.779 108.22 90.3491 107.99 90.8788C107.759 91.4085 107.426 91.8872 107.01 92.2875C106.593 92.6878 106.102 93.0016 105.563 93.2108L98.0931 96.1896C97.0156 96.6192 95.8115 96.6033 94.7458 96.1452C93.6801 95.6871 92.84 94.8244 92.4103 93.7469L92.2488 93.3418L92.2845 93.3275Z" stroke="#263238" stroke-linecap="round" stroke-linejoin="round"/>
<path opacity="0.5" d="M92.2845 93.3275L107.88 87.1087L108.042 87.5138C108.256 88.0503 108.361 88.6239 108.352 89.2015C108.343 89.779 108.22 90.3491 107.99 90.8788C107.759 91.4085 107.426 91.8872 107.01 92.2875C106.593 92.6878 106.102 93.0016 105.563 93.2108L98.0931 96.1896C97.0156 96.6192 95.8115 96.6033 94.7458 96.1452C93.6801 95.6871 92.84 94.8244 92.4103 93.7469L92.2488 93.3418L92.2845 93.3275Z" stroke="#263238" stroke-linecap="round" stroke-linejoin="round"/>
<path d="M98.6292 97.2043L105.921 94.2981L106.054 94.6317C106.404 95.5102 106.391 96.4918 106.017 97.3606C105.644 98.2293 104.94 98.9141 104.062 99.2642L103.407 99.5254C102.528 99.8756 101.546 99.8623 100.678 99.4887C99.8089 99.1151 99.1242 98.4117 98.774 97.5332L98.6411 97.1996L98.6292 97.2043Z" stroke="#263238" stroke-linecap="round" stroke-linejoin="round"/>
<path opacity="0.2" d="M98.6292 97.2043L105.921 94.2981L106.054 94.6317C106.404 95.5102 106.391 96.4918 106.017 97.3606C105.644 98.2293 104.94 98.9141 104.062 99.2642L103.407 99.5254C102.528 99.8756 101.546 99.8623 100.678 99.4887C99.8089 99.1151 99.1242 98.4117 98.774 97.5332L98.6411 97.1996L98.6292 97.2043Z" stroke="#263238" stroke-linecap="round" stroke-linejoin="round"/>
<path d="M78.165 20.4619L82.6928 37.3928" stroke="#263238" stroke-linecap="round" stroke-linejoin="round"/>
<path d="M76.3311 13.6255L77.2546 17.0758" stroke="#263238" stroke-linecap="round" stroke-linejoin="round"/>
<path d="M58.5277 69.8313L41.1992 74.4745" stroke="#263238" stroke-linecap="round" stroke-linejoin="round"/>
<path d="M64.9666 68.1121L62.0293 68.8945" stroke="#263238" stroke-linecap="round" stroke-linejoin="round"/>
<path d="M131.548 50.2576L113.412 55.1188" stroke="#263238" stroke-linecap="round" stroke-linejoin="round"/>
<path d="M137.166 48.7571L134.588 49.4497" stroke="#263238" stroke-linecap="round" stroke-linejoin="round"/>
<path d="M76.6516 83.3367L64.3511 104.641" stroke="#263238" stroke-linecap="round" stroke-linejoin="round"/>
<path d="M114.028 18.5891L101.727 39.8938" stroke="#263238" stroke-linecap="round" stroke-linejoin="round"/>
<path d="M67.455 49.0779L46.1631 36.7773" stroke="#263238" stroke-linecap="round" stroke-linejoin="round"/>
<path d="M114.143 76.0257L110.911 74.1531" stroke="#263238" stroke-linecap="round" stroke-linejoin="round"/>
<path d="M132.216 86.4544L117.093 77.7324" stroke="#263238" stroke-linecap="round" stroke-linejoin="round"/>
</svg>
