<svg width="640" height="585" viewBox="0 0 640 585" fill="none" xmlns="http://www.w3.org/2000/svg">
<path d="M613.844 364.671C611.142 344.167 606.632 323.942 600.367 304.233C593.682 282.42 585.892 260.435 586.702 237.687C587.279 221.654 592.124 206.105 594.493 190.228C598.372 164.847 595.973 138.717 589.289 113.882C584.474 96.0415 577.338 78.5598 565.917 64.0228C555.696 51.0128 542.328 40.6515 527.931 32.5806C489.883 11.0635 445.353 4.28578 401.726 1.4189C359.845 -1.38566 317.106 -0.871481 276.799 10.7674C251.732 17.9676 228.41 30.2333 208.273 46.8061C188.135 63.3789 171.612 83.9065 159.724 107.119C133.813 157.851 118.824 214.861 82.521 259.812C63.3566 283.542 38.3649 303.719 27.3959 332.169C11.706 372.851 31.1977 421.868 66.7532 447.109C89.1741 463.033 116.332 470.637 140.7 483.397C163.183 495.161 183.158 511.24 205.298 523.643C286.63 569.185 387.579 560.304 477.371 535.749C522.275 523.518 569.298 505.397 595.069 466.632C614.826 436.857 618.176 400.788 613.844 364.671Z" fill="#334AC0"/>
<path opacity="0.8" d="M613.844 364.671C611.142 344.167 606.632 323.942 600.367 304.233C593.682 282.42 585.892 260.435 586.702 237.687C587.279 221.654 592.124 206.105 594.493 190.228C598.372 164.847 595.973 138.717 589.289 113.882C584.474 96.0415 577.338 78.5598 565.917 64.0228C555.696 51.0128 542.328 40.6515 527.931 32.5806C489.883 11.0635 445.353 4.28578 401.726 1.4189C359.845 -1.38566 317.106 -0.871481 276.799 10.7674C251.732 17.9676 228.41 30.2333 208.273 46.8061C188.135 63.3789 171.612 83.9065 159.724 107.119C133.813 157.851 118.824 214.861 82.521 259.812C63.3566 283.542 38.3649 303.719 27.3959 332.169C11.706 372.851 31.1977 421.868 66.7532 447.109C89.1741 463.033 116.332 470.637 140.7 483.397C163.183 495.161 183.158 511.24 205.298 523.643C286.63 569.185 387.579 560.304 477.371 535.749C522.275 523.518 569.298 505.397 595.069 466.632C614.826 436.857 618.176 400.788 613.844 364.671Z" fill="white"/>
<path d="M344.388 585C489.633 585 607.377 576.894 607.377 566.895C607.377 556.896 489.633 548.79 344.388 548.79C199.143 548.79 81.3984 556.896 81.3984 566.895C81.3984 576.894 199.143 585 344.388 585Z" fill="#263238"/>
<path d="M186.4 430.5C185.309 425.234 183.86 417.677 182.536 408.547C182.146 405.913 181.772 403.124 181.429 400.242C182.613 400.024 192.024 398.185 195.686 395.568C199.02 393.215 202.604 389.335 202.744 384.973C202.824 383.952 202.687 382.925 202.341 381.962C201.995 380.998 201.448 380.119 200.736 379.382C200.025 378.645 199.165 378.068 198.214 377.689C197.262 377.31 196.241 377.137 195.218 377.182C189.111 377.603 183.47 387.076 182.146 392.389C182.068 392.732 181.523 396.845 181.289 398.964C181.087 397.219 180.884 395.49 180.697 393.682C180.417 391.065 180.198 388.307 179.98 385.627C179.98 384.225 179.84 382.823 179.778 381.405C179.715 379.987 179.778 378.6 179.778 377.167C179.778 375.079 179.934 372.913 180.043 370.763C182.723 370.638 190.56 370.124 194.065 368.348C197.571 366.572 201.856 363.191 202.65 358.999C202.869 358.01 202.877 356.985 202.675 355.992C202.473 354.998 202.066 354.058 201.479 353.232C200.892 352.406 200.138 351.711 199.266 351.194C198.395 350.676 197.425 350.347 196.418 350.227C190.326 349.729 183.299 358.236 181.211 363.284C181.133 363.44 180.806 364.562 180.417 365.886C180.604 363.783 180.775 361.679 181.04 359.56C181.757 353.562 182.691 347.454 183.595 341.331C183.782 340.053 183.953 338.791 184.14 337.513C186.384 337.404 194.891 336.937 198.584 335.083C202.277 333.229 206.374 329.91 207.169 325.734C207.39 324.744 207.4 323.719 207.199 322.725C206.998 321.73 206.591 320.789 206.003 319.962C205.416 319.135 204.661 318.441 203.789 317.924C202.916 317.408 201.944 317.08 200.937 316.962C194.829 316.464 187.817 324.971 185.714 330.019C185.714 330.19 185.247 331.577 184.81 333.011C185.262 329.692 185.652 326.358 185.948 323.054C186.496 317.359 186.658 311.633 186.431 305.915C187.225 305.915 197.197 305.526 201.311 303.469C204.972 301.646 209.101 298.312 209.896 294.121C210.116 293.132 210.126 292.107 209.926 291.114C209.725 290.12 209.317 289.18 208.729 288.355C208.142 287.529 207.387 286.836 206.514 286.321C205.641 285.806 204.67 285.48 203.663 285.364C197.556 284.85 190.544 293.373 188.441 298.406C188.285 298.764 186.883 303.594 186.462 305.323C186.454 305.256 186.454 305.188 186.462 305.121C186.101 299.525 185.246 293.972 183.907 288.527C182.731 283.659 181.274 278.862 179.544 274.162C177.986 269.799 176.288 265.888 174.761 262.445C173.919 260.575 173.109 258.892 172.346 257.334H172.47C172.579 257.334 172.283 249.933 172.221 249.544C171.38 244.153 166.596 234.212 160.551 233.246C159.543 233.112 158.518 233.193 157.544 233.482C156.569 233.771 155.666 234.262 154.894 234.924C154.122 235.586 153.498 236.403 153.064 237.322C152.629 238.241 152.393 239.241 152.371 240.258C152.122 244.574 155.347 248.796 158.448 251.445C161.548 254.094 169.931 256.68 171.987 257.272C172.751 258.924 173.545 260.684 174.402 262.647C175.851 266.122 177.519 270.048 178.905 274.442C179.295 275.611 179.669 276.888 180.058 278.104C178.983 276.172 177.472 273.538 177.285 273.305C174.06 268.895 165.225 262.273 159.429 264.206C158.473 264.551 157.6 265.093 156.868 265.798C156.136 266.503 155.561 267.355 155.18 268.297C154.799 269.24 154.621 270.252 154.658 271.268C154.695 272.284 154.946 273.28 155.394 274.193C157.154 278.135 161.969 280.425 165.958 281.313C169.946 282.201 178.827 280.628 180.728 280.254C181.538 282.98 182.286 285.801 182.941 288.792C184.119 294.168 184.817 299.637 185.029 305.136C185.029 305.464 185.029 305.791 185.029 306.118C184.655 305.059 182.224 299.465 182.021 299.091C179.295 294.417 171.239 286.798 165.256 288.075C164.267 288.315 163.339 288.76 162.533 289.382C161.727 290.004 161.061 290.789 160.579 291.686C160.096 292.583 159.809 293.571 159.734 294.587C159.66 295.602 159.8 296.622 160.146 297.58C161.47 301.677 166.02 304.466 169.868 305.806C174.309 307.364 184.639 306.367 185.013 306.336C185.098 311.854 184.822 317.371 184.187 322.852C183.735 326.918 183.112 331.016 182.442 335.114C181.928 333.758 179.684 328.554 179.466 328.196C176.755 323.522 168.7 315.918 162.717 317.196C161.729 317.436 160.803 317.881 159.998 318.502C159.193 319.123 158.528 319.906 158.046 320.801C157.564 321.696 157.276 322.683 157.2 323.696C157.124 324.71 157.263 325.728 157.606 326.685C158.931 330.798 163.465 333.572 167.329 334.927C171.66 336.485 181.554 335.535 182.395 335.457C182.084 337.311 181.788 339.181 181.476 341.05C180.432 347.127 179.373 353.235 178.516 359.28C178.204 361.383 177.986 363.456 177.768 365.512C176.942 363.502 175.368 359.888 175.197 359.592C172.47 354.917 164.415 347.298 158.432 348.591C157.444 348.831 156.518 349.276 155.713 349.897C154.909 350.518 154.244 351.302 153.762 352.197C153.28 353.092 152.991 354.078 152.916 355.092C152.84 356.105 152.978 357.123 153.321 358.08C154.646 362.194 159.18 364.967 163.044 366.322C166.908 367.678 175.244 367.086 177.596 366.899C177.238 370.358 176.973 373.801 176.864 377.198C176.864 378.663 176.724 380.174 176.864 381.576C177.004 382.978 176.864 384.412 176.958 385.799C177.145 388.681 177.285 391.361 177.519 394.041C177.628 395.396 177.752 396.674 177.877 397.983C177.347 395.833 176.443 392.42 176.319 392.124C174.34 387.029 167.531 378.351 161.408 378.709C160.396 378.8 159.414 379.102 158.525 379.595C157.637 380.089 156.862 380.764 156.252 381.576C155.641 382.389 155.207 383.32 154.979 384.31C154.75 385.301 154.732 386.328 154.926 387.326C155.612 391.579 159.601 395.022 163.278 396.939C167.266 399.042 176.849 399.666 178.017 399.743C178.329 402.953 178.672 406.085 179.03 408.998C180.183 418.254 181.476 425.904 182.458 431.264C183.439 436.623 184.14 439.662 184.14 439.662C184.187 439.955 184.295 440.236 184.456 440.486C184.617 440.736 184.828 440.95 185.076 441.114C185.325 441.279 185.604 441.39 185.897 441.44C186.19 441.491 186.491 441.48 186.78 441.409C187.068 441.338 187.339 441.207 187.575 441.026C187.811 440.844 188.006 440.616 188.149 440.355C188.292 440.094 188.379 439.806 188.405 439.51C188.431 439.214 188.396 438.915 188.3 438.633C188.3 438.633 187.49 435.782 186.4 430.5Z" fill="#334AC0"/>
<path d="M181.163 279.116C181.163 279.116 191.447 276 195.015 272.775C198.131 270.064 201.247 265.748 200.795 261.432C200.747 260.417 200.485 259.424 200.026 258.518C199.568 257.611 198.924 256.812 198.136 256.171C197.348 255.53 196.434 255.062 195.453 254.798C194.473 254.534 193.447 254.48 192.444 254.638C186.43 255.76 181.896 265.825 181.21 271.248C181.148 271.715 181.054 279.147 181.163 279.116Z" fill="#334AC0"/>
<path d="M186.586 441.406C186.84 441.582 187.053 441.81 187.211 442.075C187.369 442.34 187.468 442.636 187.501 442.943C187.535 443.249 187.502 443.56 187.405 443.852C187.308 444.145 187.149 444.414 186.938 444.64C186.728 444.866 186.472 445.044 186.187 445.162C185.902 445.28 185.595 445.335 185.287 445.324C184.978 445.313 184.676 445.236 184.4 445.097C184.124 444.959 183.881 444.763 183.688 444.523C183.688 444.523 181.413 442.341 177.658 438.431C173.903 434.52 168.575 428.833 162.514 421.759C160.597 419.515 158.603 417.085 156.562 414.592C155.549 415.168 147.213 419.936 142.726 420.372C138.659 420.762 133.378 420.139 130.448 416.96C129.736 416.236 129.184 415.37 128.828 414.419C128.472 413.468 128.32 412.453 128.381 411.439C128.443 410.425 128.717 409.436 129.186 408.535C129.655 407.634 130.308 406.842 131.103 406.209C136.011 402.532 146.481 406.022 150.937 409.185C151.202 409.372 153.835 411.709 155.456 413.205C154.63 412.177 153.897 411.195 152.978 410.089C151.311 407.986 149.706 405.835 147.977 403.514L145.562 400.055C144.72 398.917 144.004 397.609 143.193 396.378C141.402 393.48 139.735 390.457 138.13 387.372C136.276 388.821 129.638 393.9 125.665 394.913C121.692 395.926 116.316 396.097 113.013 393.355C112.198 392.747 111.52 391.975 111.023 391.088C110.526 390.201 110.221 389.219 110.129 388.206C110.036 387.194 110.158 386.173 110.486 385.211C110.814 384.248 111.34 383.365 112.032 382.62C116.332 378.257 127.207 380.111 132.084 382.62C132.396 382.776 135.699 384.926 137.491 386.141C136.54 384.271 135.574 382.417 134.671 380.501C132.053 374.985 129.576 369.314 127.083 363.658C126.319 361.928 125.525 360.215 124.761 358.485C124.107 359.015 116.348 365.232 111.907 366.353C107.95 367.366 102.559 367.538 99.2554 364.795C98.4402 364.188 97.7621 363.415 97.2652 362.528C96.7682 361.641 96.4635 360.659 96.3709 359.647C96.2784 358.634 96.3999 357.613 96.7278 356.651C97.0556 355.688 97.5824 354.806 98.2738 354.06C102.559 349.698 113.434 351.552 118.326 354.06C118.7 354.247 123.453 357.348 124.559 358.189C122.845 354.403 121.115 350.648 119.246 347.002C116.749 342.08 113.939 337.323 110.832 332.761C110.52 333.01 102.465 339.539 97.8999 340.692C93.9424 341.689 88.5514 341.876 85.2482 339.134C84.4321 338.526 83.7534 337.753 83.2564 336.866C82.7595 335.978 82.4554 334.995 82.3643 333.982C82.2731 332.969 82.3968 331.948 82.7273 330.986C83.0578 330.023 83.5876 329.142 84.2822 328.398C88.5669 324.036 99.4424 325.89 104.319 328.398C104.709 328.585 109.819 331.92 110.707 332.59C110.52 332.325 110.365 332.044 110.178 331.779C106.915 327.313 103.265 323.142 99.271 319.315C97.0897 317.165 94.8928 315.233 92.7115 313.394C91.3248 314.765 84.921 320.951 80.9791 322.447C77.0371 323.942 71.8954 324.643 68.2339 322.322C67.3576 321.809 66.5992 321.116 66.0082 320.29C65.4173 319.464 65.007 318.523 64.8041 317.528C64.6012 316.533 64.6104 315.506 64.8308 314.514C65.0513 313.523 65.4783 312.589 66.0838 311.774C69.8699 306.959 80.8856 307.598 86.0117 309.499C86.2921 309.608 89.0032 310.963 90.9664 311.976C89.9692 311.166 88.9565 310.309 87.9905 309.561C84.3445 306.694 80.8388 304.295 77.7227 302.207C75.9309 301.038 74.2949 300.01 72.7524 299.091C70.6957 299.73 62.3911 302.207 58.2466 301.693C54.1021 301.179 49.163 299.449 46.9816 295.71C46.444 294.848 46.0932 293.883 45.9517 292.878C45.8102 291.872 45.8812 290.848 46.1602 289.872C46.4392 288.895 46.9199 287.988 47.5713 287.209C48.2228 286.43 49.0304 285.796 49.942 285.349C55.5199 282.824 64.9931 288.465 68.639 292.516C68.9507 292.874 73.3133 298.904 73.1886 298.935H73.064C74.6221 299.808 76.1802 300.774 77.8941 301.864C81.0102 303.89 84.6406 306.211 88.3644 309C92.3947 311.97 96.2544 315.163 99.9254 318.567C104.039 322.388 107.813 326.558 111.206 331.032C111.233 331.094 111.27 331.152 111.315 331.203C110.723 329.52 109.227 324.721 109.149 324.347C108.121 318.988 109.29 308.003 114.649 305.058C115.554 304.595 116.546 304.327 117.561 304.272C118.575 304.217 119.59 304.377 120.54 304.74C121.489 305.102 122.351 305.661 123.07 306.379C123.79 307.097 124.35 307.958 124.715 308.907C126.397 312.895 124.715 317.959 122.751 321.496C120.445 325.485 112.328 331.296 111.689 331.748C115.011 336.386 118.025 341.237 120.71 346.27C122.268 349.199 123.826 352.19 125.26 355.213C124.792 353.733 124.387 352.409 124.356 352.222C123.328 346.862 124.481 335.877 129.856 332.932C130.762 332.47 131.755 332.203 132.77 332.149C133.786 332.095 134.801 332.255 135.751 332.62C136.7 332.984 137.562 333.545 138.281 334.264C138.999 334.984 139.558 335.847 139.921 336.797C141.604 340.77 139.921 345.833 137.958 349.37C135.995 352.907 129.062 358.049 127.239 359.373C127.784 360.542 128.345 361.695 128.89 362.863C131.523 368.457 134.11 374.066 136.821 379.488C137.771 381.389 138.784 383.228 139.781 385.082C139.376 383.773 139.049 382.667 139.002 382.48C137.974 377.12 139.142 366.151 144.502 363.206C145.407 362.743 146.399 362.475 147.413 362.42C148.428 362.365 149.443 362.524 150.392 362.887C151.342 363.25 152.204 363.809 152.923 364.527C153.643 365.245 154.203 366.106 154.567 367.055C156.25 371.028 154.645 376.107 152.604 379.644C150.563 383.181 144.378 387.808 142.212 389.398C143.303 391.252 144.378 393.121 145.515 394.882C146.325 396.066 147.073 397.266 147.883 398.403L150.376 401.815C152.043 403.919 153.742 406.116 155.424 408.126C156.577 409.544 157.699 410.868 158.837 412.208C157.855 410.323 156.032 406.583 155.923 406.256C154.084 401.099 153.57 390.083 158.432 386.359C159.255 385.764 160.195 385.349 161.189 385.14C162.184 384.932 163.211 384.935 164.205 385.15C165.198 385.364 166.135 385.785 166.955 386.386C167.775 386.986 168.46 387.752 168.964 388.634C171.223 392.311 170.398 397.577 168.964 401.379C167.406 405.57 160.504 412.286 159.616 413.127C161.501 415.34 163.34 417.459 165.131 419.453C171.27 426.324 176.646 431.824 180.463 435.626C184.28 439.428 186.586 441.406 186.586 441.406ZM92.5868 312.194C92.5868 312.194 99.4268 303.89 100.642 299.262C101.67 295.32 101.889 289.914 99.2243 286.611C98.6225 285.79 97.8545 285.105 96.9704 284.601C96.0863 284.097 95.1059 283.785 94.0931 283.685C93.0803 283.585 92.0578 283.699 91.0923 284.021C90.1267 284.342 89.2397 284.864 88.489 285.551C84.0952 289.805 85.8715 300.696 88.2865 305.604C88.4267 306.024 92.5089 312.272 92.5868 312.194Z" fill="#334AC0"/>
<path opacity="0.1" d="M186.586 441.406C186.84 441.582 187.053 441.81 187.211 442.075C187.369 442.34 187.468 442.636 187.501 442.943C187.535 443.249 187.502 443.56 187.405 443.852C187.308 444.145 187.149 444.414 186.938 444.64C186.728 444.866 186.472 445.044 186.187 445.162C185.902 445.28 185.595 445.335 185.287 445.324C184.978 445.313 184.676 445.236 184.4 445.097C184.124 444.959 183.881 444.763 183.688 444.523C183.688 444.523 181.413 442.341 177.658 438.431C173.903 434.52 168.575 428.833 162.514 421.759C160.597 419.515 158.603 417.085 156.562 414.592C155.549 415.168 147.213 419.936 142.726 420.372C138.659 420.762 133.378 420.139 130.448 416.96C129.736 416.236 129.184 415.37 128.828 414.419C128.472 413.468 128.32 412.453 128.381 411.439C128.443 410.425 128.717 409.436 129.186 408.535C129.655 407.634 130.308 406.842 131.103 406.209C136.011 402.532 146.481 406.022 150.937 409.185C151.202 409.372 153.835 411.709 155.456 413.205C154.63 412.177 153.897 411.195 152.978 410.089C151.311 407.986 149.706 405.835 147.977 403.514L145.562 400.055C144.72 398.917 144.004 397.609 143.193 396.378C141.402 393.48 139.735 390.457 138.13 387.372C136.276 388.821 129.638 393.9 125.665 394.913C121.692 395.926 116.316 396.097 113.013 393.355C112.198 392.747 111.52 391.975 111.023 391.088C110.526 390.201 110.221 389.219 110.129 388.206C110.036 387.194 110.158 386.173 110.486 385.211C110.814 384.248 111.34 383.365 112.032 382.62C116.332 378.257 127.207 380.111 132.084 382.62C132.396 382.776 135.699 384.926 137.491 386.141C136.54 384.271 135.574 382.417 134.671 380.501C132.053 374.985 129.576 369.314 127.083 363.658C126.319 361.928 125.525 360.215 124.761 358.485C124.107 359.015 116.348 365.232 111.907 366.353C107.95 367.366 102.559 367.538 99.2554 364.795C98.4402 364.188 97.7621 363.415 97.2652 362.528C96.7682 361.641 96.4635 360.659 96.3709 359.647C96.2784 358.634 96.3999 357.613 96.7278 356.651C97.0556 355.688 97.5824 354.806 98.2738 354.06C102.559 349.698 113.434 351.552 118.326 354.06C118.7 354.247 123.453 357.348 124.559 358.189C122.845 354.403 121.115 350.648 119.246 347.002C116.749 342.08 113.939 337.323 110.832 332.761C110.52 333.01 102.465 339.539 97.8999 340.692C93.9424 341.689 88.5514 341.876 85.2482 339.134C84.4321 338.526 83.7534 337.753 83.2564 336.866C82.7595 335.978 82.4554 334.995 82.3643 333.982C82.2731 332.969 82.3968 331.948 82.7273 330.986C83.0578 330.023 83.5876 329.142 84.2822 328.398C88.5669 324.036 99.4424 325.89 104.319 328.398C104.709 328.585 109.819 331.92 110.707 332.59C110.52 332.325 110.365 332.044 110.178 331.779C106.915 327.313 103.265 323.142 99.271 319.315C97.0897 317.165 94.8928 315.233 92.7115 313.394C91.3248 314.765 84.921 320.951 80.9791 322.447C77.0371 323.942 71.8954 324.643 68.2339 322.322C67.3576 321.809 66.5992 321.116 66.0082 320.29C65.4173 319.464 65.007 318.523 64.8041 317.528C64.6012 316.533 64.6104 315.506 64.8308 314.514C65.0513 313.523 65.4783 312.589 66.0838 311.774C69.8699 306.959 80.8856 307.598 86.0117 309.499C86.2921 309.608 89.0032 310.963 90.9664 311.976C89.9692 311.166 88.9565 310.309 87.9905 309.561C84.3445 306.694 80.8388 304.295 77.7227 302.207C75.9309 301.038 74.2949 300.01 72.7524 299.091C70.6957 299.73 62.3911 302.207 58.2466 301.693C54.1021 301.179 49.163 299.449 46.9816 295.71C46.444 294.848 46.0932 293.883 45.9517 292.878C45.8102 291.872 45.8812 290.848 46.1602 289.872C46.4392 288.895 46.9199 287.988 47.5713 287.209C48.2228 286.43 49.0304 285.796 49.942 285.349C55.5199 282.824 64.9931 288.465 68.639 292.516C68.9507 292.874 73.3133 298.904 73.1886 298.935H73.064C74.6221 299.808 76.1802 300.774 77.8941 301.864C81.0102 303.89 84.6406 306.211 88.3644 309C92.3947 311.97 96.2544 315.163 99.9254 318.567C104.039 322.388 107.813 326.558 111.206 331.032C111.233 331.094 111.27 331.152 111.315 331.203C110.723 329.52 109.227 324.721 109.149 324.347C108.121 318.988 109.29 308.003 114.649 305.058C115.554 304.595 116.546 304.327 117.561 304.272C118.575 304.217 119.59 304.377 120.54 304.74C121.489 305.102 122.351 305.661 123.07 306.379C123.79 307.097 124.35 307.958 124.715 308.907C126.397 312.895 124.715 317.959 122.751 321.496C120.445 325.485 112.328 331.296 111.689 331.748C115.011 336.386 118.025 341.237 120.71 346.27C122.268 349.199 123.826 352.19 125.26 355.213C124.792 353.733 124.387 352.409 124.356 352.222C123.328 346.862 124.481 335.877 129.856 332.932C130.762 332.47 131.755 332.203 132.77 332.149C133.786 332.095 134.801 332.255 135.751 332.62C136.7 332.984 137.562 333.545 138.281 334.264C138.999 334.984 139.558 335.847 139.921 336.797C141.604 340.77 139.921 345.833 137.958 349.37C135.995 352.907 129.062 358.049 127.239 359.373C127.784 360.542 128.345 361.695 128.89 362.863C131.523 368.457 134.11 374.066 136.821 379.488C137.771 381.389 138.784 383.228 139.781 385.082C139.376 383.773 139.049 382.667 139.002 382.48C137.974 377.12 139.142 366.151 144.502 363.206C145.407 362.743 146.399 362.475 147.413 362.42C148.428 362.365 149.443 362.524 150.392 362.887C151.342 363.25 152.204 363.809 152.923 364.527C153.643 365.245 154.203 366.106 154.567 367.055C156.25 371.028 154.645 376.107 152.604 379.644C150.563 383.181 144.378 387.808 142.212 389.398C143.303 391.252 144.378 393.121 145.515 394.882C146.325 396.066 147.073 397.266 147.883 398.403L150.376 401.815C152.043 403.919 153.742 406.116 155.424 408.126C156.577 409.544 157.699 410.868 158.837 412.208C157.855 410.323 156.032 406.583 155.923 406.256C154.084 401.099 153.57 390.083 158.432 386.359C159.255 385.764 160.195 385.349 161.189 385.14C162.184 384.932 163.211 384.935 164.205 385.15C165.198 385.364 166.135 385.785 166.955 386.386C167.775 386.986 168.46 387.752 168.964 388.634C171.223 392.311 170.398 397.577 168.964 401.379C167.406 405.57 160.504 412.286 159.616 413.127C161.501 415.34 163.34 417.459 165.131 419.453C171.27 426.324 176.646 431.824 180.463 435.626C184.28 439.428 186.586 441.406 186.586 441.406ZM92.5868 312.194C92.5868 312.194 99.4268 303.89 100.642 299.262C101.67 295.32 101.889 289.914 99.2243 286.611C98.6225 285.79 97.8545 285.105 96.9704 284.601C96.0863 284.097 95.1059 283.785 94.0931 283.685C93.0803 283.585 92.0578 283.699 91.0923 284.021C90.1267 284.342 89.2397 284.864 88.489 285.551C84.0952 289.805 85.8715 300.696 88.2865 305.604C88.4267 306.024 92.5089 312.272 92.5868 312.194Z" fill="black"/>
<path d="M146.652 544.162C145.328 538.943 143.536 531.464 141.822 522.349C141.323 519.747 140.825 516.958 140.357 514.107C141.51 513.826 150.843 511.583 154.38 508.825C157.605 506.316 161.017 502.234 160.971 497.918C160.993 496.908 160.804 495.904 160.415 494.972C160.026 494.039 159.445 493.199 158.711 492.504C157.977 491.81 157.106 491.277 156.153 490.94C155.2 490.603 154.188 490.47 153.18 490.549C147.088 491.234 141.869 500.957 140.716 506.316C140.716 506.659 140.279 510.804 140.155 512.923C139.859 511.193 139.578 509.479 139.313 507.672C138.924 505.086 138.581 502.328 138.238 499.663L137.864 495.457C137.693 494.023 137.724 492.636 137.646 491.219C137.646 489.131 137.646 486.965 137.646 484.815C140.311 484.566 148.117 483.709 151.575 481.777C155.034 479.845 159.132 476.277 159.724 472.007C159.902 471.006 159.866 469.979 159.619 468.992C159.372 468.005 158.92 467.082 158.293 466.282C157.665 465.482 156.875 464.824 155.975 464.35C155.076 463.876 154.086 463.597 153.071 463.531C146.964 463.282 140.326 472.101 138.441 477.243C138.441 477.398 138.098 478.52 137.786 479.86C137.786 477.757 137.958 475.669 138.114 473.534C138.581 467.489 139.235 461.366 139.874 455.211C139.999 453.918 140.108 452.64 140.248 451.363C142.492 451.16 150.952 450.303 154.567 448.247C158.182 446.19 162.124 442.746 162.731 438.462C162.906 437.461 162.869 436.434 162.621 435.449C162.373 434.463 161.921 433.541 161.294 432.741C160.666 431.942 159.878 431.284 158.979 430.809C158.081 430.334 157.092 430.054 156.078 429.986C149.971 429.752 143.318 438.571 141.448 443.697C141.448 443.884 141.043 445.255 140.684 446.735C140.98 443.385 141.23 440.051 141.386 436.732C141.677 431.02 141.584 425.294 141.105 419.593C141.9 419.593 151.84 418.721 155.876 416.477C159.428 414.498 163.433 410.977 164.025 406.692C164.202 405.691 164.166 404.664 163.92 403.677C163.673 402.69 163.221 401.767 162.593 400.967C161.965 400.167 161.175 399.509 160.276 399.035C159.376 398.561 158.386 398.282 157.372 398.216C151.264 397.983 144.626 406.801 142.741 411.928C142.616 412.286 141.432 417.163 141.074 418.923C141.074 418.923 141.074 418.783 141.074 418.721C140.477 413.145 139.382 407.633 137.802 402.252C136.407 397.444 134.737 392.721 132.801 388.104C131.055 383.804 129.186 379.971 127.503 376.59C126.584 374.767 125.711 373.131 124.87 371.589H124.995C125.104 371.589 124.496 364.219 124.402 363.798C123.327 358.438 118.17 348.716 111.938 348.015C110.93 347.936 109.918 348.07 108.965 348.406C108.012 348.743 107.141 349.276 106.407 349.971C105.673 350.665 105.092 351.506 104.703 352.438C104.314 353.371 104.125 354.374 104.147 355.385C104.147 359.701 107.497 363.783 110.722 366.291C113.948 368.8 122.408 370.965 124.496 371.526C125.337 373.084 126.21 374.861 127.145 376.777C128.703 380.189 130.51 384.038 132.162 388.369C132.614 389.522 133.034 390.769 133.471 391.984C132.318 390.099 130.682 387.528 130.495 387.31C127.082 383.056 118.03 376.839 112.249 379.021C111.311 379.41 110.465 379.993 109.767 380.73C109.068 381.468 108.533 382.344 108.195 383.302C107.857 384.26 107.724 385.278 107.805 386.291C107.886 387.303 108.18 388.288 108.666 389.18C110.598 393.044 115.506 395.085 119.572 395.833C123.639 396.58 132.395 394.57 134.281 394.103C135.216 396.799 136.104 399.588 136.867 402.548C138.319 407.893 139.284 413.358 139.75 418.877C139.75 419.188 139.75 419.531 139.75 419.843C139.345 418.814 136.633 413.314 136.446 412.956C133.517 408.282 125.135 401.161 119.214 402.704C118.237 402.986 117.331 403.471 116.554 404.127C115.778 404.784 115.149 405.596 114.707 406.512C114.266 407.428 114.023 408.427 113.994 409.444C113.966 410.46 114.151 411.471 114.54 412.411C116.098 416.462 120.772 419.048 124.605 420.201C129.108 421.557 139.376 420.107 139.765 420.061C140.079 425.568 140.042 431.089 139.656 436.592C139.376 440.674 138.939 444.788 138.456 448.917C137.895 447.592 135.34 442.482 135.184 442.139C132.255 437.465 123.873 430.344 117.952 431.887C116.975 432.169 116.069 432.654 115.292 433.31C114.516 433.967 113.886 434.779 113.445 435.695C113.004 436.611 112.761 437.61 112.732 438.627C112.704 439.643 112.889 440.654 113.278 441.594C114.836 445.645 119.51 448.215 123.343 449.384C127.737 450.693 137.584 449.384 138.425 449.244C138.192 451.113 137.989 452.999 137.755 454.868C136.992 460.992 136.197 467.146 135.59 473.223C135.387 475.326 135.262 477.414 135.122 479.455C134.203 477.492 132.473 473.939 132.286 473.659C129.357 468.985 120.99 461.864 115.147 463.407C114.172 463.691 113.267 464.177 112.492 464.834C111.717 465.491 111.089 466.303 110.648 467.219C110.207 468.134 109.964 469.132 109.934 470.148C109.903 471.163 110.087 472.174 110.473 473.114C112.031 477.165 116.706 479.735 120.538 480.904C124.371 482.073 132.769 481.138 135.107 480.826C134.904 484.301 134.779 487.76 134.826 491.156C134.826 492.636 134.826 494.132 134.966 495.534L135.247 499.757C135.558 502.624 135.823 505.288 136.166 507.968C136.337 509.308 136.524 510.57 136.711 511.879C136.073 509.76 135.029 506.394 134.904 506.098C132.691 501.097 125.555 492.73 119.417 493.353C118.41 493.486 117.442 493.83 116.577 494.361C115.712 494.892 114.968 495.6 114.393 496.437C113.819 497.275 113.427 498.223 113.243 499.222C113.058 500.221 113.086 501.247 113.324 502.234C114.197 506.472 118.404 509.729 122.096 511.474C126.163 513.406 135.761 513.608 136.945 513.624C137.397 516.834 137.864 519.934 138.363 522.848C139.921 532.025 141.479 539.628 142.757 544.926C144.034 550.223 144.813 553.246 144.813 553.246C145.005 553.755 145.381 554.172 145.868 554.414C146.354 554.657 146.914 554.706 147.435 554.552C147.957 554.398 148.4 554.052 148.677 553.584C148.953 553.117 149.043 552.562 148.927 552.031C148.927 552.031 147.976 549.398 146.652 544.162Z" fill="#334AC0"/>
<path d="M134.733 393.153C134.733 393.153 144.876 389.569 148.288 386.219C151.202 383.352 154.131 378.912 153.586 374.627C153.49 373.615 153.183 372.633 152.683 371.748C152.184 370.862 151.503 370.091 150.686 369.485C149.869 368.88 148.933 368.453 147.94 368.233C146.947 368.013 145.919 368.004 144.923 368.208C138.971 369.595 134.889 379.847 134.437 385.347C134.39 385.799 134.624 393.2 134.733 393.153Z" fill="#334AC0"/>
<path d="M140.809 546.36C136.836 542.745 131.227 537.479 124.776 530.873C122.922 528.972 120.975 526.931 119.012 524.812C119.822 523.939 126.35 516.912 127.799 512.659C129.108 508.795 129.7 503.513 127.269 499.929C126.728 499.07 126.012 498.335 125.167 497.771C124.322 497.207 123.368 496.828 122.367 496.657C121.366 496.487 120.341 496.529 119.357 496.781C118.374 497.034 117.454 497.49 116.659 498.122C111.985 502.048 112.966 513.048 115.023 518.096C115.147 518.423 117.142 522.085 118.139 523.924C116.939 522.646 115.755 521.368 114.54 519.997C112.779 518.065 110.987 515.946 109.227 513.921L106.578 510.617C105.659 509.511 104.926 508.343 104.069 507.205C102.854 505.507 101.686 503.684 100.517 501.861C102.605 500.194 108.65 495.161 110.473 491.656C112.296 488.15 113.745 482.899 111.875 479.004C111.471 478.072 110.874 477.235 110.124 476.549C109.374 475.863 108.488 475.343 107.524 475.022C106.559 474.702 105.538 474.588 104.527 474.689C103.515 474.79 102.537 475.103 101.654 475.607C96.4193 478.723 95.7493 489.786 96.9802 495.099C96.9802 495.286 97.4164 496.377 97.8839 497.67C96.7932 495.862 95.7025 494.071 94.6586 492.201C91.7138 486.903 88.8781 481.434 86.0112 475.95C85.4192 474.813 84.8115 473.675 84.2039 472.538C85.9645 471.136 92.5552 465.745 94.4717 462.068C96.3881 458.39 97.7281 453.311 95.8739 449.416C95.4692 448.484 94.8725 447.647 94.1226 446.961C93.3728 446.275 92.4867 445.755 91.5222 445.434C90.5577 445.114 89.5365 445 88.5252 445.101C87.5138 445.202 86.5351 445.515 85.6529 446.019C80.4177 449.135 79.7477 460.198 80.9786 465.511C80.9786 465.713 81.4928 467.069 82.0226 468.471C80.4645 465.511 78.7817 462.597 77.0834 459.73C74.1713 454.823 70.9391 450.112 67.4077 445.63C68.0465 445.131 75.8993 438.977 78.0183 434.894C79.9036 431.28 81.2903 426.138 79.4206 422.243C79.0173 421.309 78.4217 420.471 77.6725 419.783C76.9233 419.096 76.0375 418.574 75.0729 418.252C74.1082 417.93 73.0865 417.815 72.0744 417.915C71.0623 418.014 70.0827 418.326 69.1995 418.831C63.9643 421.947 63.2944 433.025 64.5253 438.338C64.6187 438.712 66.3326 443.433 66.987 445.1L66.878 444.929C63.2911 440.618 59.334 436.63 55.0521 433.009C51.2903 429.77 47.3472 426.748 43.2418 423.957C39.4089 421.339 35.7318 419.173 32.4754 417.288C30.6992 416.275 29.0476 415.387 27.5207 414.577H27.6298C27.7388 414.577 23.1425 408.703 22.7997 408.345C18.9512 404.465 9.24435 399.245 3.79105 402.019C2.89745 402.502 2.11571 403.168 1.49679 403.974C0.877862 404.779 0.435643 405.706 0.198961 406.694C-0.0377204 407.682 -0.063551 408.708 0.12315 409.707C0.309852 410.706 0.704893 411.654 1.28253 412.489C3.61966 416.135 8.7146 417.662 12.7968 417.974C16.879 418.285 25.1524 415.45 27.1623 414.733C28.7204 415.605 30.4343 416.556 32.2729 417.662C35.4825 419.61 39.0973 421.853 42.8523 424.549C43.865 425.266 44.9089 426.107 45.9684 426.839C43.9741 425.904 41.1851 424.673 40.9047 424.58C35.7007 422.913 24.6694 422.741 21.1014 427.696C20.5354 428.54 20.1528 429.492 19.9781 430.493C19.8034 431.494 19.8406 432.52 20.0873 433.505C20.334 434.49 20.7847 435.413 21.4103 436.213C22.0358 437.014 22.8223 437.674 23.719 438.151C27.474 440.285 32.6935 439.304 36.4485 437.699C40.2035 436.094 46.4515 429.566 47.7758 428.148C50.035 429.877 52.3098 431.716 54.5847 433.757C58.7382 437.418 62.5552 441.443 65.9898 445.786C66.1924 446.035 66.3638 446.315 66.5663 446.58C65.6471 445.941 60.334 442.841 59.9912 442.669C55.0053 440.441 44.052 439.055 39.9698 443.62C39.3131 444.395 38.8267 445.299 38.542 446.274C38.2574 447.249 38.1809 448.272 38.3176 449.279C38.4542 450.285 38.8009 451.252 39.3352 452.115C39.8694 452.979 40.5794 453.721 41.4188 454.293C44.9089 456.832 50.222 456.427 54.1172 455.243C58.6201 453.888 66.395 447.016 66.691 446.767C70.0012 451.183 73.0199 455.81 75.7279 460.618C77.7534 464.171 79.6543 467.848 81.524 471.525C80.3242 470.73 75.4318 467.848 75.0579 467.677C70.072 465.449 59.1187 464.077 55.0209 468.627C54.3627 469.402 53.8753 470.307 53.5905 471.283C53.3056 472.259 53.2299 473.284 53.3681 474.291C53.5063 475.298 53.8554 476.265 54.3926 477.128C54.9297 477.991 55.6429 478.731 56.4855 479.3C59.9756 481.855 65.2731 481.435 69.1839 480.266C73.5777 478.926 81.0565 472.382 81.6486 471.837C82.5056 473.519 83.3625 475.202 84.2039 476.885C86.9461 482.432 89.6572 487.978 92.524 493.385C93.5056 495.255 94.5496 497.078 95.6402 498.885C93.7861 497.748 90.3895 495.769 90.0779 495.613C85.092 493.385 74.1386 492.014 70.0564 496.564C69.3998 497.338 68.9133 498.242 68.6287 499.217C68.3441 500.192 68.2676 501.216 68.4042 502.223C68.5408 503.229 68.8875 504.196 69.4218 505.059C69.9561 505.923 70.666 506.665 71.5055 507.236C74.9956 509.792 80.2931 509.371 84.2039 508.202C88.1147 507.034 94.534 501.643 96.3258 500.1C98.0708 503.107 99.8626 506.068 101.779 508.872C102.636 510.072 103.431 511.35 104.303 512.456L106.874 515.806C108.713 518.034 110.411 520.122 112.172 522.147L114.774 525.123C113.075 523.69 110.349 521.477 110.099 521.306C105.425 518.346 94.8923 515.323 90.1558 519.203C89.3871 519.869 88.7673 520.689 88.3368 521.611C87.9062 522.533 87.6746 523.535 87.657 524.552C87.6393 525.569 87.8361 526.578 88.2344 527.514C88.6327 528.45 89.2237 529.292 89.9688 529.984C93.085 533.023 98.3513 533.428 102.433 532.851C106.89 532.213 115.007 527.086 116.004 526.448C118.139 528.863 120.258 531.122 122.237 533.35C128.594 540.159 134.156 545.596 138.098 549.336C142.04 553.075 144.33 555.163 144.33 555.163C144.771 555.486 145.317 555.629 145.859 555.564C146.401 555.498 146.898 555.229 147.249 554.811C147.6 554.393 147.778 553.857 147.749 553.311C147.719 552.766 147.483 552.253 147.088 551.876C147.088 551.876 144.798 549.99 140.809 546.36Z" fill="#334AC0"/>
<path d="M47.5734 426.994C47.5734 426.994 54.0395 418.409 55.0522 413.719C55.9092 409.731 55.8936 404.371 53.0735 401.13C52.434 400.34 51.6358 399.693 50.7306 399.231C49.8254 398.769 48.8333 398.502 47.8184 398.448C46.8036 398.394 45.7887 398.553 44.8393 398.916C43.8899 399.278 43.0272 399.836 42.3071 400.553C38.1003 404.994 40.3595 415.807 42.9771 420.59C43.2419 421.011 47.4955 427.072 47.5734 426.994Z" fill="#334AC0"/>
<g opacity="0.1">
<path d="M146.652 544.162C145.328 538.942 143.536 531.463 141.822 522.349C141.323 519.747 140.825 516.958 140.357 514.106C141.51 513.826 150.843 511.582 154.38 508.824C157.605 506.316 161.017 502.234 160.971 497.918C160.993 496.908 160.804 495.904 160.415 494.971C160.026 494.039 159.445 493.198 158.711 492.504C157.977 491.809 157.106 491.277 156.153 490.94C155.2 490.603 154.188 490.469 153.18 490.548C147.088 491.234 141.869 500.956 140.716 506.316C140.716 506.659 140.279 510.803 140.155 512.922C139.859 511.193 139.578 509.479 139.313 507.671C138.924 505.085 138.581 502.327 138.238 499.663L137.864 495.456C137.693 494.023 137.724 492.636 137.646 491.218C137.646 489.13 137.646 486.964 137.646 484.814C140.311 484.565 148.117 483.708 151.575 481.776C155.034 479.844 159.132 476.276 159.724 472.007C159.902 471.006 159.866 469.978 159.619 468.991C159.372 468.005 158.92 467.082 158.293 466.282C157.665 465.482 156.875 464.823 155.975 464.349C155.076 463.875 154.086 463.596 153.071 463.531C146.964 463.282 140.326 472.1 138.441 477.242C138.441 477.398 138.098 478.52 137.786 479.86C137.786 477.756 137.958 475.668 138.114 473.534C138.581 467.488 139.235 461.365 139.874 455.211C139.999 453.917 140.108 452.64 140.248 451.362C142.492 451.16 150.952 450.303 154.567 448.246C158.182 446.189 162.124 442.746 162.731 438.461C162.906 437.46 162.869 436.434 162.621 435.448C162.373 434.463 161.921 433.54 161.294 432.741C160.666 431.941 159.878 431.283 158.979 430.808C158.081 430.334 157.092 430.053 156.078 429.985C149.971 429.752 143.318 438.57 141.448 443.696C141.448 443.883 141.043 445.255 140.684 446.735C140.98 443.385 141.23 440.051 141.386 436.732C141.677 431.019 141.584 425.293 141.105 419.593C141.9 419.593 151.84 418.72 155.876 416.477C159.428 414.498 163.433 410.977 164.025 406.692C164.202 405.691 164.166 404.663 163.92 403.677C163.673 402.69 163.221 401.767 162.593 400.967C161.965 400.167 161.175 399.508 160.276 399.034C159.376 398.56 158.386 398.281 157.372 398.216C151.264 397.982 144.626 406.801 142.741 411.927C142.616 412.285 141.432 417.162 141.074 418.923C141.074 418.923 141.074 418.783 141.074 418.72C140.477 413.144 139.382 407.632 137.802 402.251C136.407 397.444 134.737 392.72 132.801 388.104C131.055 383.804 129.186 379.971 127.503 376.59C126.584 374.767 125.711 373.131 124.87 371.588H124.995C125.104 371.588 124.496 364.218 124.402 363.798C123.327 358.438 118.17 348.716 111.938 348.014C110.93 347.936 109.918 348.069 108.965 348.406C108.012 348.743 107.141 349.276 106.407 349.97C105.673 350.664 105.092 351.505 104.703 352.438C104.314 353.37 104.125 354.374 104.147 355.384C104.147 359.7 107.497 363.782 110.722 366.291C113.948 368.799 122.408 370.965 124.496 371.526C125.337 373.084 126.21 374.86 127.145 376.777C128.703 380.189 130.51 384.037 132.162 388.369C132.614 389.522 133.034 390.768 133.471 391.984C132.318 390.098 130.682 387.527 130.495 387.309C127.082 383.056 118.03 376.839 112.249 379.02C111.311 379.41 110.465 379.992 109.767 380.73C109.068 381.467 108.533 382.343 108.195 383.301C107.857 384.259 107.724 385.278 107.805 386.29C107.886 387.303 108.18 388.287 108.666 389.179C110.598 393.043 115.506 395.084 119.572 395.832C123.639 396.58 132.395 394.57 134.281 394.103C135.216 396.798 136.104 399.587 136.867 402.547C138.319 407.892 139.284 413.357 139.75 418.876C139.75 419.188 139.75 419.531 139.75 419.842C139.345 418.814 136.633 413.314 136.446 412.955C133.517 408.281 125.135 401.161 119.214 402.703C118.237 402.985 117.331 403.471 116.554 404.127C115.778 404.783 115.149 405.596 114.707 406.512C114.266 407.428 114.023 408.427 113.994 409.443C113.966 410.459 114.151 411.47 114.54 412.41C116.098 416.461 120.772 419.048 124.605 420.2C129.108 421.556 139.376 420.107 139.765 420.06C140.079 425.567 140.042 431.089 139.656 436.592C139.376 440.674 138.939 444.787 138.456 448.916C137.895 447.592 135.34 442.481 135.184 442.138C132.255 437.464 123.873 430.344 117.952 431.886C116.975 432.168 116.069 432.654 115.292 433.31C114.516 433.966 113.886 434.779 113.445 435.695C113.004 436.611 112.761 437.61 112.732 438.626C112.704 439.642 112.889 440.653 113.278 441.593C114.836 445.644 119.51 448.215 123.343 449.383C127.737 450.692 137.584 449.383 138.425 449.243C138.192 451.113 137.989 452.998 137.755 454.868C136.992 460.991 136.197 467.146 135.59 473.222C135.387 475.326 135.262 477.413 135.122 479.455C134.203 477.491 132.473 473.939 132.286 473.658C129.357 468.984 120.99 461.864 115.147 463.406C114.172 463.691 113.267 464.177 112.492 464.834C111.717 465.491 111.089 466.303 110.648 467.218C110.207 468.134 109.964 469.132 109.934 470.147C109.903 471.163 110.087 472.173 110.473 473.113C112.031 477.164 116.706 479.735 120.538 480.904C124.371 482.072 132.769 481.137 135.107 480.826C134.904 484.3 134.779 487.759 134.826 491.156C134.826 492.636 134.826 494.132 134.966 495.534L135.247 499.756C135.558 502.623 135.823 505.288 136.166 507.968C136.337 509.307 136.524 510.57 136.711 511.878C136.073 509.759 135.029 506.394 134.904 506.098C132.691 501.096 125.555 492.729 119.417 493.353C118.41 493.486 117.442 493.829 116.577 494.361C115.712 494.892 114.968 495.599 114.393 496.437C113.819 497.274 113.427 498.223 113.243 499.222C113.058 500.22 113.086 501.247 113.324 502.234C114.197 506.472 118.404 509.728 122.096 511.473C126.163 513.405 135.761 513.608 136.945 513.623C137.397 516.833 137.864 519.934 138.363 522.847C139.921 532.024 141.479 539.628 142.757 544.925C144.034 550.223 144.813 553.246 144.813 553.246C145.005 553.754 145.381 554.172 145.868 554.414C146.354 554.656 146.914 554.705 147.435 554.551C147.957 554.397 148.4 554.052 148.677 553.584C148.953 553.116 149.043 552.561 148.927 552.03C148.927 552.03 147.976 549.397 146.652 544.162Z" fill="black"/>
<path d="M134.733 393.153C134.733 393.153 144.876 389.569 148.288 386.219C151.202 383.352 154.131 378.912 153.586 374.627C153.49 373.614 153.183 372.633 152.683 371.747C152.184 370.861 151.503 370.091 150.686 369.485C149.869 368.879 148.933 368.453 147.94 368.233C146.947 368.013 145.919 368.004 144.923 368.208C138.971 369.594 134.889 379.846 134.437 385.347C134.39 385.798 134.624 393.199 134.733 393.153Z" fill="black"/>
<path d="M140.809 546.359C136.836 542.745 131.227 537.478 124.776 530.872C122.922 528.971 120.975 526.93 119.012 524.811C119.822 523.939 126.35 516.912 127.799 512.658C129.108 508.794 129.7 503.512 127.269 499.929C126.728 499.069 126.012 498.334 125.167 497.77C124.322 497.207 123.368 496.827 122.367 496.657C121.366 496.486 120.341 496.529 119.357 496.781C118.374 497.033 117.454 497.49 116.659 498.121C111.985 502.048 112.966 513.048 115.023 518.096C115.147 518.423 117.142 522.084 118.139 523.923C116.939 522.645 115.755 521.368 114.54 519.997C112.779 518.065 110.987 515.946 109.227 513.92L106.578 510.617C105.659 509.511 104.926 508.342 104.069 507.205C102.854 505.506 101.686 503.683 100.517 501.861C102.605 500.193 108.65 495.161 110.473 491.655C112.296 488.149 113.745 482.899 111.875 479.003C111.471 478.071 110.874 477.235 110.124 476.549C109.374 475.862 108.488 475.342 107.524 475.022C106.559 474.701 105.538 474.588 104.527 474.688C103.515 474.789 102.537 475.102 101.654 475.607C96.4193 478.723 95.7493 489.785 96.9802 495.098C96.9802 495.285 97.4164 496.376 97.8839 497.669C96.7932 495.862 95.7025 494.07 94.6586 492.2C91.7138 486.903 88.8781 481.434 86.0112 475.95C85.4192 474.812 84.8115 473.675 84.2039 472.537C85.9645 471.135 92.5552 465.744 94.4717 462.067C96.3881 458.39 97.7281 453.311 95.8739 449.415C95.4692 448.483 94.8725 447.647 94.1226 446.96C93.3728 446.274 92.4867 445.754 91.5222 445.434C90.5577 445.113 89.5365 445 88.5252 445.1C87.5138 445.201 86.5351 445.514 85.6529 446.019C80.4177 449.135 79.7477 460.197 80.9786 465.51C80.9786 465.713 81.4928 467.068 82.0226 468.471C80.4645 465.51 78.7817 462.597 77.0834 459.73C74.1713 454.822 70.9391 450.112 67.4077 445.629C68.0465 445.131 75.8993 438.976 78.0183 434.894C79.9036 431.279 81.2903 426.138 79.4206 422.242C79.0173 421.309 78.4217 420.471 77.6725 419.783C76.9233 419.095 76.0375 418.573 75.0729 418.251C74.1082 417.929 73.0865 417.814 72.0744 417.914C71.0623 418.014 70.0827 418.326 69.1995 418.83C63.9643 421.946 63.2944 433.024 64.5253 438.337C64.6187 438.711 66.3326 443.432 66.987 445.099L66.878 444.928C63.2911 440.618 59.334 436.629 55.0521 433.009C51.2903 429.769 47.3472 426.747 43.2418 423.956C39.4089 421.339 35.7318 419.173 32.4754 417.288C30.6992 416.275 29.0476 415.387 27.5207 414.577H27.6298C27.7388 414.577 23.1425 408.703 22.7997 408.344C18.9512 404.465 9.24435 399.245 3.79105 402.018C2.89745 402.502 2.11571 403.168 1.49679 403.973C0.877862 404.779 0.435643 405.706 0.198961 406.693C-0.0377204 407.681 -0.063551 408.708 0.12315 409.707C0.309852 410.705 0.704893 411.653 1.28253 412.489C3.61966 416.135 8.7146 417.662 12.7968 417.973C16.879 418.285 25.1524 415.449 27.1623 414.732C28.7204 415.605 30.4343 416.555 32.2729 417.662C35.4825 419.609 39.0973 421.853 42.8523 424.548C43.865 425.265 44.9089 426.106 45.9684 426.839C43.9741 425.904 41.1851 424.673 40.9047 424.579C35.7007 422.912 24.6694 422.741 21.1014 427.696C20.5354 428.539 20.1528 429.492 19.9781 430.493C19.8034 431.493 19.8406 432.519 20.0873 433.505C20.334 434.49 20.7847 435.413 21.4103 436.213C22.0358 437.013 22.8223 437.673 23.719 438.15C27.474 440.285 32.6935 439.303 36.4485 437.699C40.2035 436.094 46.4515 429.565 47.7758 428.147C50.035 429.877 52.3098 431.715 54.5847 433.757C58.7382 437.417 62.5552 441.443 65.9898 445.785C66.1924 446.034 66.3638 446.315 66.5663 446.58C65.6471 445.941 60.334 442.84 59.9912 442.669C55.0053 440.441 44.052 439.054 39.9698 443.619C39.3131 444.394 38.8267 445.298 38.542 446.273C38.2574 447.248 38.1809 448.272 38.3176 449.278C38.4542 450.285 38.8009 451.251 39.3352 452.115C39.8694 452.979 40.5794 453.72 41.4188 454.292C44.9089 456.832 50.222 456.427 54.1172 455.243C58.6201 453.887 66.395 447.016 66.691 446.767C70.0012 451.182 73.0199 455.809 75.7279 460.618C77.7534 464.17 79.6543 467.847 81.524 471.525C80.3242 470.73 75.4318 467.847 75.0579 467.676C70.072 465.448 59.1187 464.077 55.0209 468.627C54.3627 469.401 53.8753 470.306 53.5905 471.282C53.3056 472.258 53.2299 473.283 53.3681 474.29C53.5063 475.298 53.8554 476.264 54.3926 477.127C54.9297 477.991 55.6429 478.731 56.4855 479.299C59.9756 481.855 65.2731 481.434 69.1839 480.265C73.5777 478.926 81.0565 472.382 81.6486 471.836C82.5056 473.519 83.3625 475.202 84.2039 476.884C86.9461 482.431 89.6572 487.978 92.524 493.385C93.5056 495.254 94.5496 497.077 95.6402 498.885C93.7861 497.747 90.3895 495.768 90.0779 495.613C85.092 493.385 74.1386 492.013 70.0564 496.563C69.3998 497.338 68.9133 498.242 68.6287 499.217C68.3441 500.192 68.2676 501.216 68.4042 502.222C68.5408 503.229 68.8875 504.195 69.4218 505.059C69.9561 505.923 70.666 506.664 71.5055 507.236C74.9956 509.791 80.2931 509.371 84.2039 508.202C88.1147 507.033 94.534 501.642 96.3258 500.1C98.0708 503.107 99.8626 506.067 101.779 508.872C102.636 510.072 103.431 511.349 104.303 512.456L106.874 515.805C108.713 518.033 110.411 520.121 112.172 522.147L114.774 525.123C113.075 523.689 110.349 521.477 110.099 521.305C105.425 518.345 94.8923 515.322 90.1558 519.202C89.3871 519.868 88.7673 520.689 88.3368 521.611C87.9062 522.532 87.6746 523.534 87.657 524.551C87.6393 525.568 87.8361 526.578 88.2344 527.514C88.6327 528.45 89.2237 529.292 89.9688 529.984C93.085 533.022 98.3513 533.427 102.433 532.851C106.89 532.212 115.007 527.086 116.004 526.447C118.139 528.862 120.258 531.121 122.237 533.349C128.594 540.158 134.156 545.596 138.098 549.335C142.04 553.075 144.33 555.163 144.33 555.163C144.771 555.485 145.317 555.629 145.859 555.563C146.401 555.498 146.898 555.229 147.249 554.81C147.6 554.392 147.778 553.856 147.749 553.311C147.719 552.766 147.483 552.253 147.088 551.875C147.088 551.875 144.798 549.99 140.809 546.359Z" fill="black"/>
<path d="M47.5734 426.994C47.5734 426.994 54.0395 418.409 55.0522 413.719C55.9092 409.73 55.8936 404.37 53.0735 401.13C52.434 400.34 51.6358 399.693 50.7306 399.231C49.8254 398.769 48.8333 398.502 47.8184 398.448C46.8036 398.394 45.7887 398.553 44.8393 398.915C43.8899 399.278 43.0272 399.836 42.3071 400.553C38.1003 404.994 40.3595 415.807 42.9771 420.59C43.2419 421.011 47.4955 427.072 47.5734 426.994Z" fill="black"/>
</g>
<g opacity="0.1">
<path d="M186.4 430.5C185.309 425.234 183.86 417.677 182.536 408.547C182.146 405.913 181.772 403.124 181.429 400.242C182.613 400.024 192.024 398.185 195.686 395.568C199.02 393.215 202.604 389.335 202.744 384.973C202.824 383.952 202.687 382.925 202.341 381.962C201.995 380.998 201.448 380.119 200.736 379.382C200.025 378.645 199.165 378.068 198.214 377.689C197.262 377.31 196.241 377.137 195.218 377.182C189.111 377.603 183.47 387.076 182.146 392.389C182.068 392.732 181.523 396.845 181.289 398.964C181.087 397.219 180.884 395.49 180.697 393.682C180.417 391.065 180.198 388.307 179.98 385.627C179.98 384.225 179.84 382.823 179.778 381.405C179.715 379.987 179.778 378.6 179.778 377.167C179.778 375.079 179.934 372.913 180.043 370.763C182.723 370.638 190.56 370.124 194.065 368.348C197.571 366.572 201.856 363.191 202.65 358.999C202.869 358.01 202.877 356.985 202.675 355.992C202.473 354.998 202.066 354.058 201.479 353.232C200.892 352.406 200.138 351.711 199.266 351.194C198.395 350.676 197.425 350.347 196.418 350.227C190.326 349.729 183.299 358.236 181.211 363.284C181.133 363.44 180.806 364.562 180.417 365.886C180.604 363.783 180.775 361.679 181.04 359.56C181.757 353.562 182.691 347.454 183.595 341.331C183.782 340.053 183.953 338.791 184.14 337.513C186.384 337.404 194.891 336.937 198.584 335.083C202.277 333.229 206.374 329.91 207.169 325.734C207.39 324.744 207.4 323.719 207.199 322.725C206.998 321.73 206.591 320.789 206.003 319.962C205.416 319.135 204.661 318.441 203.789 317.924C202.916 317.408 201.944 317.08 200.937 316.962C194.829 316.464 187.817 324.971 185.714 330.019C185.714 330.19 185.247 331.577 184.81 333.011C185.262 329.692 185.652 326.358 185.948 323.054C186.496 317.359 186.658 311.633 186.431 305.915C187.225 305.915 197.197 305.526 201.311 303.469C204.972 301.646 209.101 298.312 209.896 294.121C210.116 293.132 210.126 292.107 209.926 291.114C209.725 290.12 209.317 289.18 208.729 288.355C208.142 287.529 207.387 286.836 206.514 286.321C205.641 285.806 204.67 285.48 203.663 285.364C197.556 284.85 190.544 293.373 188.441 298.406C188.285 298.764 186.883 303.594 186.462 305.323C186.454 305.256 186.454 305.188 186.462 305.121C186.101 299.525 185.246 293.972 183.907 288.527C182.731 283.659 181.274 278.862 179.544 274.162C177.986 269.799 176.288 265.888 174.761 262.445C173.919 260.575 173.109 258.892 172.346 257.334H172.47C172.579 257.334 172.283 249.933 172.221 249.544C171.38 244.153 166.596 234.212 160.551 233.246C159.543 233.112 158.518 233.193 157.544 233.482C156.569 233.771 155.666 234.262 154.894 234.924C154.122 235.586 153.498 236.403 153.064 237.322C152.629 238.241 152.393 239.241 152.371 240.258C152.122 244.574 155.347 248.796 158.448 251.445C161.548 254.094 169.931 256.68 171.987 257.272C172.751 258.924 173.545 260.684 174.402 262.647C175.851 266.122 177.519 270.048 178.905 274.442C179.295 275.611 179.669 276.888 180.058 278.104C178.983 276.172 177.472 273.538 177.285 273.305C174.06 268.895 165.225 262.273 159.429 264.206C158.473 264.551 157.6 265.093 156.868 265.798C156.136 266.503 155.561 267.355 155.18 268.297C154.799 269.24 154.621 270.252 154.658 271.268C154.695 272.284 154.946 273.28 155.394 274.193C157.154 278.135 161.969 280.425 165.958 281.313C169.946 282.201 178.827 280.628 180.728 280.254C181.538 282.98 182.286 285.801 182.941 288.792C184.119 294.168 184.817 299.637 185.029 305.136C185.029 305.464 185.029 305.791 185.029 306.118C184.655 305.059 182.224 299.465 182.021 299.091C179.295 294.417 171.239 286.798 165.256 288.075C164.267 288.315 163.339 288.76 162.533 289.382C161.727 290.004 161.061 290.789 160.579 291.686C160.096 292.583 159.809 293.571 159.734 294.587C159.66 295.602 159.8 296.622 160.146 297.58C161.47 301.677 166.02 304.466 169.868 305.806C174.309 307.364 184.639 306.367 185.013 306.336C185.098 311.854 184.822 317.371 184.187 322.852C183.735 326.918 183.112 331.016 182.442 335.114C181.928 333.758 179.684 328.554 179.466 328.196C176.755 323.522 168.7 315.918 162.717 317.196C161.729 317.436 160.803 317.881 159.998 318.502C159.193 319.123 158.528 319.906 158.046 320.801C157.564 321.696 157.276 322.683 157.2 323.696C157.124 324.71 157.263 325.728 157.606 326.685C158.931 330.798 163.465 333.572 167.329 334.927C171.66 336.485 181.554 335.535 182.395 335.457C182.084 337.311 181.788 339.181 181.476 341.05C180.432 347.127 179.373 353.235 178.516 359.28C178.204 361.383 177.986 363.456 177.768 365.512C176.942 363.502 175.368 359.888 175.197 359.592C172.47 354.917 164.415 347.298 158.432 348.591C157.444 348.831 156.518 349.276 155.713 349.897C154.909 350.518 154.244 351.302 153.762 352.197C153.28 353.092 152.991 354.078 152.916 355.092C152.84 356.105 152.978 357.123 153.321 358.08C154.646 362.194 159.18 364.967 163.044 366.322C166.908 367.678 175.244 367.086 177.596 366.899C177.238 370.358 176.973 373.801 176.864 377.198C176.864 378.663 176.724 380.174 176.864 381.576C177.004 382.978 176.864 384.412 176.958 385.799C177.145 388.681 177.285 391.361 177.519 394.041C177.628 395.396 177.752 396.674 177.877 397.983C177.347 395.833 176.443 392.42 176.319 392.124C174.34 387.029 167.531 378.351 161.408 378.709C160.396 378.8 159.414 379.102 158.525 379.595C157.637 380.089 156.862 380.764 156.252 381.576C155.641 382.389 155.207 383.32 154.979 384.31C154.75 385.301 154.732 386.328 154.926 387.326C155.612 391.579 159.601 395.022 163.278 396.939C167.266 399.042 176.849 399.666 178.017 399.743C178.329 402.953 178.672 406.085 179.03 408.998C180.183 418.254 181.476 425.904 182.458 431.264C183.439 436.623 184.14 439.662 184.14 439.662C184.187 439.955 184.295 440.236 184.456 440.486C184.617 440.736 184.828 440.95 185.076 441.114C185.325 441.279 185.604 441.39 185.897 441.44C186.19 441.491 186.491 441.48 186.78 441.409C187.068 441.338 187.339 441.207 187.575 441.026C187.811 440.844 188.006 440.616 188.149 440.355C188.292 440.094 188.379 439.806 188.405 439.51C188.431 439.214 188.396 438.915 188.3 438.633C188.3 438.633 187.49 435.782 186.4 430.5Z" fill="black"/>
<path d="M181.163 279.116C181.163 279.116 191.447 276 195.015 272.774C198.131 270.063 201.247 265.747 200.795 261.431C200.747 260.417 200.485 259.424 200.026 258.518C199.568 257.611 198.924 256.811 198.136 256.17C197.348 255.53 196.434 255.062 195.453 254.798C194.473 254.534 193.447 254.479 192.444 254.638C186.43 255.76 181.896 265.825 181.21 271.247C181.148 271.715 181.054 279.147 181.163 279.116Z" fill="black"/>
</g>
<path d="M515.919 469.375C516.121 518.189 554.965 557.609 554.965 557.609C554.965 557.609 593.48 517.862 593.262 469.047C593.044 420.233 554.295 380.813 554.295 380.813C554.295 380.813 515.701 420.56 515.919 469.375Z" fill="#334AC0"/>
<path d="M554.964 557.609L554.216 380.813" stroke="white" stroke-width="0.910297" stroke-miterlimit="10"/>
<path d="M554.481 443.651L532.746 424.844" stroke="white" stroke-width="0.910297" stroke-miterlimit="10"/>
<path d="M554.948 472.865L581.591 433.913" stroke="white" stroke-width="0.910297" stroke-miterlimit="10"/>
<path d="M554.684 489.707L522.587 461.319" stroke="white" stroke-width="0.910297" stroke-miterlimit="10"/>
<path d="M555.119 512.392L586.624 484.066" stroke="white" stroke-width="0.910297" stroke-miterlimit="10"/>
<path d="M555.198 531.978L530.378 512.502" stroke="white" stroke-width="0.910297" stroke-miterlimit="10"/>
<path d="M489.446 544.724C508.315 565.883 540.271 568.095 540.271 568.095C540.271 568.095 541.689 536.045 522.821 514.949C503.952 493.852 471.934 491.702 471.934 491.702C471.934 491.702 470.578 523.69 489.446 544.724Z" fill="#334AC0"/>
<path d="M540.334 568.033L471.996 491.64" stroke="white" stroke-width="0.910297" stroke-miterlimit="10"/>
<path d="M496.287 518.781L479.615 518.984" stroke="white" stroke-width="0.910297" stroke-miterlimit="10"/>
<path d="M507.724 531.277L504.296 504.135" stroke="white" stroke-width="0.910297" stroke-miterlimit="10"/>
<path d="M514.08 538.693L489.244 538.725" stroke="white" stroke-width="0.910297" stroke-miterlimit="10"/>
<path d="M523.008 548.354L525.781 523.954" stroke="white" stroke-width="0.910297" stroke-miterlimit="10"/>
<path d="M530.58 556.83L512.319 557.92" stroke="white" stroke-width="0.910297" stroke-miterlimit="10"/>
<path d="M587.855 513.858C568.224 534.253 568.473 566.334 568.473 566.334C568.473 566.334 600.538 565.353 620.17 544.957C639.802 524.562 639.553 492.481 639.553 492.481C639.553 492.481 607.487 493.463 587.855 513.858Z" fill="#334AC0"/>
<path d="M568.473 566.334L639.553 492.481" stroke="white" stroke-width="0.910297" stroke-miterlimit="10"/>
<path d="M614.296 518.735L612.847 502.126" stroke="white" stroke-width="0.910297" stroke-miterlimit="10"/>
<path d="M602.688 531.075L629.503 525.637" stroke="white" stroke-width="0.910297" stroke-miterlimit="10"/>
<path d="M595.77 537.977L593.885 513.204" stroke="white" stroke-width="0.910297" stroke-miterlimit="10"/>
<path d="M586.795 547.59L611.335 548.525" stroke="white" stroke-width="0.910297" stroke-miterlimit="10"/>
<path d="M578.912 555.771L576.45 537.635" stroke="white" stroke-width="0.910297" stroke-miterlimit="10"/>
<g opacity="0.1">
<path d="M515.919 469.375C516.121 518.189 554.965 557.609 554.965 557.609C554.965 557.609 593.48 517.862 593.262 469.047C593.044 420.233 554.295 380.813 554.295 380.813C554.295 380.813 515.701 420.56 515.919 469.375Z" fill="black"/>
<path d="M489.446 544.724C508.315 565.883 540.271 568.095 540.271 568.095C540.271 568.095 541.689 536.045 522.821 514.949C503.952 493.852 471.934 491.702 471.934 491.702C471.934 491.702 470.578 523.69 489.446 544.724Z" fill="black"/>
<path d="M587.855 513.858C568.224 534.253 568.473 566.334 568.473 566.334C568.473 566.334 600.538 565.353 620.17 544.957C639.802 524.562 639.553 492.481 639.553 492.481C639.553 492.481 607.487 493.463 587.855 513.858Z" fill="black"/>
</g>
<path d="M526.981 70.7227H142.632V565.431H526.981V70.7227Z" fill="white" stroke="#263238" stroke-width="0.987488" stroke-linecap="round" stroke-linejoin="round"/>
<g style="mix-blend-mode:multiply">
<path d="M203.943 70.7227H142.632V565.431H203.943V70.7227Z" fill="#334AC0"/>
</g>
<path d="M441.583 143.813H323.714V157.68H441.583V143.813Z" fill="#334AC0" stroke="#263238" stroke-width="0.987488" stroke-linecap="round" stroke-linejoin="round"/>
<path d="M514.095 261.963H190.995V275.83H514.095V261.963Z" fill="#334AC0"/>
<path d="M514.095 452.548H190.995V466.415H514.095V452.548Z" fill="#334AC0"/>
<path d="M398.003 167.698H323.714V181.565H398.003V167.698Z" fill="#334AC0" stroke="#263238" stroke-width="0.987488" stroke-linecap="round" stroke-linejoin="round"/>
<path d="M398.003 191.085H323.714V204.952H398.003V191.085Z" fill="#334AC0" stroke="#263238" stroke-width="0.987488" stroke-linecap="round" stroke-linejoin="round"/>
<path d="M313.492 291.098H305.842V298.748H313.492V291.098Z" fill="#334AC0" stroke="#263238" stroke-width="0.987488" stroke-linecap="round" stroke-linejoin="round"/>
<path d="M313.492 389.491H305.842V397.142H313.492V389.491Z" fill="#334AC0" stroke="#263238" stroke-width="0.987488" stroke-linecap="round" stroke-linejoin="round"/>
<path d="M421.452 291.098H413.802V298.748H421.452V291.098Z" fill="#334AC0" stroke="#263238" stroke-width="0.987488" stroke-linecap="round" stroke-linejoin="round"/>
<path d="M421.452 389.491H413.802V397.142H421.452V389.491Z" fill="#334AC0" stroke="#263238" stroke-width="0.987488" stroke-linecap="round" stroke-linejoin="round"/>
<path d="M526.981 70.7227H142.632V95.8858H526.981V70.7227Z" fill="#263238" stroke="#263238" stroke-width="0.987488" stroke-linecap="round" stroke-linejoin="round"/>
<path d="M393.547 296.412H325.895C325.317 296.412 324.762 296.182 324.353 295.773C323.944 295.364 323.714 294.809 323.714 294.231C323.714 293.652 323.944 293.097 324.353 292.688C324.762 292.279 325.317 292.049 325.895 292.049H393.547C394.126 292.049 394.681 292.279 395.09 292.688C395.499 293.097 395.729 293.652 395.729 294.231C395.729 294.809 395.499 295.364 395.09 295.773C394.681 296.182 394.126 296.412 393.547 296.412Z" fill="#263238"/>
<path d="M393.547 307.334H325.895C325.315 307.33 324.76 307.096 324.352 306.685C323.943 306.273 323.714 305.717 323.714 305.137C323.714 304.558 323.944 304.004 324.353 303.594C324.762 303.185 325.317 302.956 325.895 302.956H393.547C394.126 302.956 394.681 303.185 395.09 303.594C395.499 304.004 395.729 304.558 395.729 305.137C395.729 305.717 395.499 306.273 395.091 306.685C394.682 307.096 394.127 307.33 393.547 307.334Z" fill="#263238"/>
<path d="M393.547 318.24H325.895C325.317 318.24 324.762 318.011 324.353 317.601C323.944 317.192 323.714 316.638 323.714 316.059C323.714 315.48 323.944 314.926 324.353 314.517C324.762 314.108 325.317 313.878 325.895 313.878H393.547C394.126 313.878 394.681 314.108 395.09 314.517C395.499 314.926 395.729 315.48 395.729 316.059C395.729 316.638 395.499 317.192 395.09 317.601C394.681 318.011 394.126 318.24 393.547 318.24Z" fill="#263238"/>
<path d="M393.547 329.148H325.895C325.317 329.148 324.762 328.918 324.353 328.509C323.944 328.1 323.714 327.545 323.714 326.966C323.714 326.388 323.944 325.833 324.353 325.424C324.762 325.015 325.317 324.785 325.895 324.785H393.547C394.126 324.785 394.681 325.015 395.09 325.424C395.499 325.833 395.729 326.388 395.729 326.966C395.729 327.545 395.499 328.1 395.09 328.509C394.681 328.918 394.126 329.148 393.547 329.148Z" fill="#263238"/>
<path d="M393.547 340.054H325.895C325.317 340.054 324.762 339.824 324.353 339.415C323.944 339.006 323.714 338.451 323.714 337.872C323.714 337.294 323.944 336.739 324.353 336.33C324.762 335.921 325.317 335.691 325.895 335.691H393.547C394.126 335.691 394.681 335.921 395.09 336.33C395.499 336.739 395.729 337.294 395.729 337.872C395.729 338.451 395.499 339.006 395.09 339.415C394.681 339.824 394.126 340.054 393.547 340.054Z" fill="#263238"/>
<path d="M495.881 296.412H428.229C427.651 296.412 427.096 296.182 426.687 295.773C426.278 295.364 426.048 294.809 426.048 294.231C426.048 293.652 426.278 293.097 426.687 292.688C427.096 292.279 427.651 292.049 428.229 292.049H495.881C496.46 292.049 497.015 292.279 497.424 292.688C497.833 293.097 498.063 293.652 498.063 294.231C498.063 294.809 497.833 295.364 497.424 295.773C497.015 296.182 496.46 296.412 495.881 296.412Z" fill="#263238"/>
<path d="M495.881 307.334H428.229C427.649 307.33 427.094 307.096 426.686 306.685C426.277 306.273 426.048 305.717 426.048 305.137C426.048 304.558 426.278 304.004 426.687 303.594C427.096 303.185 427.651 302.956 428.229 302.956H495.881C496.46 302.956 497.015 303.185 497.424 303.594C497.833 304.004 498.063 304.558 498.063 305.137C498.063 305.717 497.833 306.273 497.425 306.685C497.016 307.096 496.461 307.33 495.881 307.334Z" fill="#263238"/>
<path d="M495.881 318.24H428.229C427.651 318.24 427.096 318.011 426.687 317.601C426.278 317.192 426.048 316.638 426.048 316.059C426.048 315.48 426.278 314.926 426.687 314.517C427.096 314.108 427.651 313.878 428.229 313.878H495.881C496.46 313.878 497.015 314.108 497.424 314.517C497.833 314.926 498.063 315.48 498.063 316.059C498.063 316.638 497.833 317.192 497.424 317.601C497.015 318.011 496.46 318.24 495.881 318.24Z" fill="#263238"/>
<path d="M495.881 329.148H428.229C427.651 329.148 427.096 328.918 426.687 328.509C426.278 328.1 426.048 327.545 426.048 326.966C426.048 326.388 426.278 325.833 426.687 325.424C427.096 325.015 427.651 324.785 428.229 324.785H495.881C496.46 324.785 497.015 325.015 497.424 325.424C497.833 325.833 498.063 326.388 498.063 326.966C498.063 327.545 497.833 328.1 497.424 328.509C497.015 328.918 496.46 329.148 495.881 329.148Z" fill="#263238"/>
<path d="M495.881 340.054H428.229C427.651 340.054 427.096 339.824 426.687 339.415C426.278 339.006 426.048 338.451 426.048 337.872C426.048 337.294 426.278 336.739 426.687 336.33C427.096 335.921 427.651 335.691 428.229 335.691H495.881C496.46 335.691 497.015 335.921 497.424 336.33C497.833 336.739 498.063 337.294 498.063 337.872C498.063 338.451 497.833 339.006 497.424 339.415C497.015 339.824 496.46 340.054 495.881 340.054Z" fill="#263238"/>
<path d="M393.547 393.169H325.895C325.315 393.165 324.76 392.931 324.352 392.52C323.943 392.108 323.714 391.552 323.714 390.972C323.714 390.393 323.944 389.838 324.353 389.429C324.762 389.02 325.317 388.791 325.895 388.791H393.547C394.126 388.791 394.681 389.02 395.09 389.429C395.499 389.838 395.729 390.393 395.729 390.972C395.729 391.552 395.499 392.108 395.091 392.52C394.682 392.931 394.127 393.165 393.547 393.169Z" fill="#263238"/>
<path d="M393.547 404.075H325.895C325.317 404.075 324.762 403.845 324.353 403.436C323.944 403.027 323.714 402.472 323.714 401.894C323.714 401.315 323.944 400.761 324.353 400.352C324.762 399.942 325.317 399.713 325.895 399.713H393.547C394.126 399.713 394.681 399.942 395.09 400.352C395.499 400.761 395.729 401.315 395.729 401.894C395.729 402.472 395.499 403.027 395.09 403.436C394.681 403.845 394.126 404.075 393.547 404.075Z" fill="#263238"/>
<path d="M393.547 414.982H325.895C325.317 414.982 324.762 414.752 324.353 414.343C323.944 413.934 323.714 413.379 323.714 412.8C323.714 412.222 323.944 411.667 324.353 411.258C324.762 410.849 325.317 410.619 325.895 410.619H393.547C394.126 410.619 394.681 410.849 395.09 411.258C395.499 411.667 395.729 412.222 395.729 412.8C395.729 413.379 395.499 413.934 395.09 414.343C394.681 414.752 394.126 414.982 393.547 414.982Z" fill="#263238"/>
<path d="M393.547 425.889H325.895C325.317 425.889 324.762 425.659 324.353 425.25C323.944 424.841 323.714 424.286 323.714 423.707C323.714 423.129 323.944 422.574 324.353 422.165C324.762 421.756 325.317 421.526 325.895 421.526H393.547C394.126 421.526 394.681 421.756 395.09 422.165C395.499 422.574 395.729 423.129 395.729 423.707C395.729 424.286 395.499 424.841 395.09 425.25C394.681 425.659 394.126 425.889 393.547 425.889Z" fill="#263238"/>
<path d="M393.547 436.811H325.895C325.317 436.811 324.762 436.581 324.353 436.172C323.944 435.763 323.714 435.208 323.714 434.63C323.714 434.051 323.944 433.496 324.353 433.087C324.762 432.678 325.317 432.448 325.895 432.448H393.547C394.126 432.448 394.681 432.678 395.09 433.087C395.499 433.496 395.729 434.051 395.729 434.63C395.729 435.208 395.499 435.763 395.09 436.172C394.681 436.581 394.126 436.811 393.547 436.811Z" fill="#263238"/>
<path d="M495.881 393.169H428.229C427.649 393.165 427.094 392.931 426.686 392.52C426.277 392.108 426.048 391.552 426.048 390.972C426.048 390.393 426.278 389.838 426.687 389.429C427.096 389.02 427.651 388.791 428.229 388.791H495.881C496.46 388.791 497.015 389.02 497.424 389.429C497.833 389.838 498.063 390.393 498.063 390.972C498.063 391.552 497.833 392.108 497.425 392.52C497.016 392.931 496.461 393.165 495.881 393.169Z" fill="#263238"/>
<path d="M495.881 404.075H428.229C427.651 404.075 427.096 403.845 426.687 403.436C426.278 403.027 426.048 402.472 426.048 401.894C426.048 401.315 426.278 400.761 426.687 400.352C427.096 399.942 427.651 399.713 428.229 399.713H495.881C496.46 399.713 497.015 399.942 497.424 400.352C497.833 400.761 498.063 401.315 498.063 401.894C498.063 402.472 497.833 403.027 497.424 403.436C497.015 403.845 496.46 404.075 495.881 404.075Z" fill="#263238"/>
<path d="M495.881 414.982H428.229C427.651 414.982 427.096 414.752 426.687 414.343C426.278 413.934 426.048 413.379 426.048 412.8C426.048 412.222 426.278 411.667 426.687 411.258C427.096 410.849 427.651 410.619 428.229 410.619H495.881C496.46 410.619 497.015 410.849 497.424 411.258C497.833 411.667 498.063 412.222 498.063 412.8C498.063 413.379 497.833 413.934 497.424 414.343C497.015 414.752 496.46 414.982 495.881 414.982Z" fill="#263238"/>
<path d="M495.881 425.889H428.229C427.651 425.889 427.096 425.659 426.687 425.25C426.278 424.841 426.048 424.286 426.048 423.707C426.048 423.129 426.278 422.574 426.687 422.165C427.096 421.756 427.651 421.526 428.229 421.526H495.881C496.46 421.526 497.015 421.756 497.424 422.165C497.833 422.574 498.063 423.129 498.063 423.707C498.063 424.286 497.833 424.841 497.424 425.25C497.015 425.659 496.46 425.889 495.881 425.889Z" fill="#263238"/>
<path d="M495.881 436.811H428.229C427.651 436.811 427.096 436.581 426.687 436.172C426.278 435.763 426.048 435.208 426.048 434.63C426.048 434.051 426.278 433.496 426.687 433.087C427.096 432.678 427.651 432.448 428.229 432.448H495.881C496.46 432.448 497.015 432.678 497.424 433.087C497.833 433.496 498.063 434.051 498.063 434.63C498.063 435.208 497.833 435.763 497.424 436.172C497.015 436.581 496.46 436.811 495.881 436.811Z" fill="#263238"/>
<path d="M495.881 486.607H428.229C427.651 486.607 427.096 486.377 426.687 485.968C426.278 485.559 426.048 485.004 426.048 484.426C426.048 483.847 426.278 483.293 426.687 482.884C427.096 482.474 427.651 482.245 428.229 482.245H495.881C496.46 482.245 497.015 482.474 497.424 482.884C497.833 483.293 498.063 483.847 498.063 484.426C498.063 485.004 497.833 485.559 497.424 485.968C497.015 486.377 496.46 486.607 495.881 486.607Z" fill="#263238"/>
<path d="M495.881 497.514H428.229C427.651 497.514 427.096 497.284 426.687 496.875C426.278 496.466 426.048 495.911 426.048 495.333C426.048 494.754 426.278 494.199 426.687 493.79C427.096 493.381 427.651 493.151 428.229 493.151H495.881C496.46 493.151 497.015 493.381 497.424 493.79C497.833 494.199 498.063 494.754 498.063 495.333C498.063 495.911 497.833 496.466 497.424 496.875C497.015 497.284 496.46 497.514 495.881 497.514Z" fill="#263238"/>
<path d="M495.881 508.436H428.229C427.651 508.436 427.096 508.207 426.687 507.797C426.278 507.388 426.048 506.834 426.048 506.255C426.048 505.677 426.278 505.122 426.687 504.713C427.096 504.304 427.651 504.074 428.229 504.074H495.881C496.46 504.074 497.015 504.304 497.424 504.713C497.833 505.122 498.063 505.677 498.063 506.255C498.063 506.834 497.833 507.388 497.424 507.797C497.015 508.207 496.46 508.436 495.881 508.436Z" fill="#263238"/>
<path d="M495.881 514.98H428.229C427.024 514.98 426.048 515.957 426.048 517.161C426.048 518.366 427.024 519.343 428.229 519.343H495.881C497.086 519.343 498.063 518.366 498.063 517.161C498.063 515.957 497.086 514.98 495.881 514.98Z" fill="#263238"/>
<path d="M495.881 530.249H428.229C427.651 530.249 427.096 530.02 426.687 529.61C426.278 529.201 426.048 528.647 426.048 528.068C426.048 527.49 426.278 526.935 426.687 526.526C427.096 526.117 427.651 525.887 428.229 525.887H495.881C496.46 525.887 497.015 526.117 497.424 526.526C497.833 526.935 498.063 527.49 498.063 528.068C498.063 528.647 497.833 529.201 497.424 529.61C497.015 530.02 496.46 530.249 495.881 530.249Z" fill="#263238"/>
<path d="M489.338 359.701C487.276 359.702 485.281 360.433 483.706 361.765C482.132 363.097 481.08 364.944 480.737 366.977H470.298C469.917 364.984 468.852 363.187 467.288 361.894C465.724 360.601 463.758 359.894 461.729 359.894C459.7 359.894 457.734 360.601 456.17 361.894C454.606 363.187 453.541 364.984 453.159 366.977H442.72C442.338 364.984 441.274 363.187 439.71 361.894C438.146 360.601 436.18 359.894 434.151 359.894C432.121 359.894 430.156 360.601 428.592 361.894C427.028 363.187 425.963 364.984 425.581 366.977H415.002C414.637 364.97 413.58 363.155 412.014 361.848C410.448 360.54 408.472 359.824 406.432 359.824C404.392 359.824 402.417 360.54 400.851 361.848C399.285 363.155 398.227 364.97 397.863 366.977H387.408C387.044 364.97 385.986 363.155 384.42 361.848C382.854 360.54 380.879 359.824 378.839 359.824C376.799 359.824 374.823 360.54 373.257 361.848C371.691 363.155 370.634 364.97 370.269 366.977H359.814C359.45 364.97 358.392 363.155 356.826 361.848C355.26 360.54 353.285 359.824 351.245 359.824C349.205 359.824 347.23 360.54 345.664 361.848C344.098 363.155 343.04 364.97 342.675 366.977H332.221C331.855 364.821 330.693 362.88 328.965 361.539C327.236 360.199 325.067 359.556 322.887 359.74C320.707 359.923 318.676 360.918 317.195 362.529C315.714 364.139 314.893 366.247 314.893 368.434C314.893 370.622 315.714 372.73 317.195 374.34C318.676 375.95 320.707 376.946 322.887 377.129C325.067 377.312 327.236 376.67 328.965 375.329C330.693 373.989 331.855 372.048 332.221 369.891H342.675C343.04 371.898 344.098 373.714 345.664 375.021C347.23 376.328 349.205 377.044 351.245 377.044C353.285 377.044 355.26 376.328 356.826 375.021C358.392 373.714 359.45 371.898 359.814 369.891H370.269C370.634 371.898 371.691 373.714 373.257 375.021C374.823 376.328 376.799 377.044 378.839 377.044C380.879 377.044 382.854 376.328 384.42 375.021C385.986 373.714 387.044 371.898 387.408 369.891H397.863C398.227 371.898 399.285 373.714 400.851 375.021C402.417 376.328 404.392 377.044 406.432 377.044C408.472 377.044 410.448 376.328 412.014 375.021C413.58 373.714 414.637 371.898 415.002 369.891H425.457C425.838 371.884 426.903 373.682 428.467 374.975C430.031 376.267 431.997 376.975 434.026 376.975C436.055 376.975 438.021 376.267 439.585 374.975C441.149 373.682 442.214 371.884 442.596 369.891H453.035C453.416 371.884 454.481 373.682 456.045 374.975C457.609 376.267 459.575 376.975 461.604 376.975C463.633 376.975 465.599 376.267 467.163 374.975C468.727 373.682 469.792 371.884 470.174 369.891H480.613C480.892 371.531 481.634 373.056 482.751 374.288C483.868 375.52 485.315 376.407 486.919 376.844C488.524 377.282 490.22 377.252 491.808 376.757C493.396 376.263 494.809 375.325 495.882 374.054C496.955 372.783 497.642 371.232 497.863 369.584C498.083 367.935 497.828 366.258 497.127 364.75C496.427 363.242 495.309 361.965 493.907 361.071C492.505 360.176 490.877 359.701 489.213 359.701H489.338Z" fill="#263238"/>
<path d="M285.821 483.055C282.911 483.052 280.066 483.912 277.645 485.526C275.224 487.141 273.336 489.437 272.221 492.124C271.105 494.811 270.812 497.769 271.377 500.623C271.943 503.478 273.343 506.1 275.399 508.158C277.456 510.217 280.076 511.619 282.93 512.188C285.783 512.757 288.742 512.466 291.43 511.354C294.119 510.241 296.417 508.356 298.033 505.937C299.65 503.518 300.513 500.673 300.513 497.763C300.515 495.833 300.137 493.92 299.399 492.136C298.662 490.352 297.58 488.73 296.215 487.364C294.851 485.998 293.23 484.914 291.447 484.175C289.663 483.436 287.751 483.055 285.821 483.055ZM285.821 505.087C284.368 505.09 282.947 504.661 281.738 503.856C280.528 503.051 279.585 501.905 279.028 500.563C278.471 499.222 278.324 497.745 278.607 496.32C278.889 494.895 279.589 493.586 280.616 492.559C281.643 491.532 282.952 490.832 284.377 490.55C285.802 490.267 287.279 490.414 288.621 490.971C289.962 491.528 291.108 492.471 291.913 493.681C292.719 494.89 293.147 496.311 293.144 497.763C293.139 499.704 292.367 501.565 290.994 502.937C289.622 504.31 287.762 505.082 285.821 505.087Z" fill="#334AC0" stroke="#263238" stroke-width="0.987488" stroke-linecap="round" stroke-linejoin="round"/>
<path d="M290.199 503.606L297.21 507.019C298.96 504.867 300.065 502.265 300.398 499.512C300.731 496.759 300.278 493.968 299.091 491.462C297.905 488.955 296.034 486.836 293.694 485.348C291.353 483.861 288.64 483.066 285.867 483.055V490.425C287.398 490.441 288.884 490.936 290.119 491.841C291.353 492.746 292.273 494.014 292.749 495.469C293.226 496.923 293.234 498.49 292.774 499.95C292.313 501.409 291.408 502.688 290.183 503.606H290.199Z" fill="#263238" stroke="#263238" stroke-width="0.987488" stroke-linecap="round" stroke-linejoin="round"/>
<path d="M292.894 530.701H278.871C278.411 530.703 277.956 530.614 277.531 530.44C277.105 530.265 276.719 530.008 276.393 529.684C276.067 529.36 275.809 528.974 275.632 528.55C275.456 528.126 275.365 527.67 275.365 527.211C275.365 526.281 275.735 525.389 276.392 524.732C277.049 524.074 277.941 523.705 278.871 523.705H292.894C293.823 523.705 294.715 524.074 295.373 524.732C296.03 525.389 296.399 526.281 296.399 527.211C296.399 527.67 296.309 528.126 296.132 528.55C295.956 528.974 295.697 529.36 295.372 529.684C295.046 530.008 294.659 530.265 294.234 530.44C293.809 530.614 293.353 530.703 292.894 530.701Z" fill="#334AC0" stroke="#263238" stroke-width="0.987488" stroke-linecap="round" stroke-linejoin="round"/>
<path d="M329.649 483.055C326.74 483.055 323.896 483.918 321.477 485.534C319.058 487.15 317.173 489.447 316.06 492.135C314.947 494.822 314.656 497.78 315.223 500.633C315.791 503.486 317.191 506.107 319.248 508.164C321.305 510.221 323.926 511.622 326.779 512.189C329.632 512.757 332.59 512.465 335.277 511.352C337.965 510.239 340.262 508.354 341.878 505.935C343.494 503.516 344.357 500.673 344.357 497.763C344.359 495.831 343.98 493.918 343.242 492.132C342.503 490.347 341.42 488.725 340.054 487.359C338.687 485.992 337.065 484.909 335.28 484.171C333.494 483.432 331.581 483.053 329.649 483.055ZM329.649 505.086C328.197 505.086 326.777 504.656 325.57 503.849C324.363 503.042 323.422 501.895 322.867 500.553C322.312 499.211 322.168 497.734 322.452 496.31C322.737 494.887 323.437 493.579 324.465 492.553C325.493 491.528 326.802 490.83 328.227 490.548C329.651 490.267 331.127 490.415 332.468 490.972C333.809 491.53 334.954 492.473 335.758 493.682C336.563 494.891 336.99 496.311 336.987 497.763C336.987 498.726 336.797 499.68 336.428 500.569C336.059 501.459 335.519 502.267 334.837 502.947C334.155 503.627 333.346 504.166 332.456 504.534C331.566 504.901 330.612 505.089 329.649 505.086Z" fill="#334AC0" stroke="#263238" stroke-width="0.987488" stroke-linecap="round" stroke-linejoin="round"/>
<path d="M344.28 496.221C343.894 492.623 342.197 489.292 339.513 486.864C336.83 484.436 333.346 483.08 329.728 483.055V490.425C331.66 490.445 333.507 491.228 334.866 492.602C336.226 493.976 336.988 495.831 336.988 497.763C336.972 498.045 336.941 498.326 336.895 498.605L344.28 496.221Z" fill="#263238" stroke="#263238" stroke-width="0.987488" stroke-linecap="round" stroke-linejoin="round"/>
<path d="M336.66 530.701H322.638C322.178 530.703 321.722 530.614 321.297 530.44C320.872 530.265 320.485 530.008 320.16 529.684C319.834 529.36 319.575 528.974 319.399 528.55C319.223 528.126 319.132 527.67 319.132 527.211C319.132 526.281 319.501 525.389 320.159 524.732C320.816 524.074 321.708 523.705 322.638 523.705H336.66C337.59 523.705 338.482 524.074 339.139 524.732C339.797 525.389 340.166 526.281 340.166 527.211C340.166 527.67 340.075 528.126 339.899 528.55C339.722 528.974 339.464 529.36 339.138 529.684C338.813 530.008 338.426 530.265 338.001 530.44C337.575 530.614 337.12 530.703 336.66 530.701Z" fill="#334AC0" stroke="#263238" stroke-width="0.987488" stroke-linecap="round" stroke-linejoin="round"/>
<path d="M373.743 483.055C370.833 483.055 367.99 483.918 365.571 485.534C363.152 487.15 361.267 489.447 360.154 492.135C359.041 494.822 358.749 497.78 359.317 500.633C359.884 503.486 361.285 506.107 363.342 508.164C365.399 510.221 368.02 511.622 370.873 512.189C373.726 512.757 376.684 512.465 379.371 511.352C382.059 510.239 384.356 508.354 385.972 505.935C387.588 503.516 388.451 500.673 388.451 497.763C388.453 495.831 388.074 493.918 387.335 492.132C386.597 490.347 385.514 488.725 384.147 487.359C382.781 485.992 381.159 484.909 379.374 484.171C377.588 483.432 375.675 483.053 373.743 483.055ZM373.743 505.086C372.29 505.086 370.871 504.656 369.664 503.849C368.457 503.042 367.516 501.895 366.961 500.553C366.406 499.211 366.262 497.734 366.546 496.31C366.831 494.887 367.531 493.579 368.559 492.553C369.587 491.528 370.896 490.83 372.32 490.548C373.745 490.267 375.221 490.415 376.562 490.972C377.902 491.53 379.047 492.473 379.852 493.682C380.656 494.891 381.084 496.311 381.081 497.763C381.081 498.726 380.891 499.68 380.522 500.569C380.153 501.459 379.612 502.267 378.931 502.947C378.249 503.627 377.44 504.166 376.55 504.534C375.659 504.901 374.705 505.089 373.743 505.086Z" fill="#334AC0" stroke="#263238" stroke-width="0.987488" stroke-linecap="round" stroke-linejoin="round"/>
<path d="M373.821 483.055V490.425C375.056 490.427 376.27 490.74 377.352 491.337C378.434 491.933 379.347 492.792 380.008 493.835C380.669 494.878 381.056 496.071 381.134 497.304C381.211 498.536 380.976 499.769 380.451 500.886C379.925 502.004 379.126 502.971 378.128 503.697C377.129 504.424 375.963 504.887 374.738 505.043C373.513 505.199 372.269 505.044 371.12 504.591C369.971 504.139 368.954 503.403 368.165 502.453L362.338 507.003C363.899 508.927 365.921 510.426 368.216 511.359C370.512 512.292 373.006 512.629 375.467 512.34C377.928 512.05 380.275 511.143 382.291 509.702C384.307 508.262 385.926 506.335 386.998 504.1C388.069 501.866 388.558 499.397 388.419 496.923C388.28 494.449 387.517 492.051 386.202 489.951C384.888 487.85 383.063 486.117 380.898 484.911C378.733 483.706 376.299 483.067 373.821 483.055Z" fill="#263238" stroke="#263238" stroke-width="0.987488" stroke-linecap="round" stroke-linejoin="round"/>
<path d="M380.754 530.701H366.731C366.272 530.703 365.816 530.614 365.391 530.44C364.966 530.265 364.579 530.009 364.253 529.684C363.928 529.36 363.669 528.974 363.493 528.55C363.316 528.126 363.226 527.67 363.226 527.211C363.224 526.75 363.313 526.293 363.488 525.867C363.664 525.441 363.922 525.053 364.248 524.727C364.574 524.401 364.961 524.143 365.387 523.968C365.814 523.792 366.27 523.703 366.731 523.705H380.754C381.684 523.705 382.576 524.074 383.233 524.732C383.89 525.389 384.26 526.281 384.26 527.211C384.26 527.67 384.169 528.126 383.993 528.55C383.816 528.974 383.558 529.36 383.232 529.684C382.906 530.009 382.52 530.265 382.094 530.44C381.669 530.614 381.214 530.703 380.754 530.701Z" fill="#334AC0" stroke="#263238" stroke-width="0.987488" stroke-linecap="round" stroke-linejoin="round"/>
<path d="M222.733 256.353C259.081 256.353 288.547 226.887 288.547 190.54C288.547 154.192 259.081 124.726 222.733 124.726C186.386 124.726 156.92 154.192 156.92 190.54C156.92 226.887 186.386 256.353 222.733 256.353Z" fill="white"/>
<path d="M242.677 556.69C242.677 556.69 252.182 570.977 250.873 576.633C249.564 582.289 241.213 580.544 237.255 574.452C233.298 568.36 223.233 559.261 225.055 555.35C226.878 551.439 239.125 553.215 242.677 556.69Z" fill="white" stroke="#263238" stroke-width="1.02307" stroke-linecap="round" stroke-linejoin="round"/>
<path d="M201.84 555.895C201.84 555.895 190.357 572.94 192.195 577.599C194.034 582.258 199.986 580.871 204.535 576.664C209.085 572.457 218.169 560.647 218.169 560.647C218.169 560.647 210.534 551.236 201.84 555.895Z" fill="white" stroke="#263238" stroke-width="1.02307" stroke-linecap="round" stroke-linejoin="round"/>
<path d="M192.194 577.599C195.308 578.027 198.477 577.408 201.2 575.838C206.435 573.189 215.566 561.239 215.566 561.239" stroke="#263238" stroke-width="0.767303" stroke-linecap="round" stroke-linejoin="round"/>
<path d="M228.249 558.201C228.249 558.201 233.219 567.549 238.813 572.847C244.406 578.144 247.149 579.656 250.826 576.633" stroke="#263238" stroke-width="0.767303" stroke-linecap="round" stroke-linejoin="round"/>
<path d="M185.713 343.185C185.713 343.185 175.664 363.69 176.115 372.072C176.567 380.455 178.406 422.866 181.148 436.842C183.89 450.818 186.586 485.626 188.455 499.539C190.325 513.453 202.307 546.048 202.307 546.048C202.307 546.048 200.468 553.511 201.839 555.833C203.21 558.154 217.716 561.987 218.168 560.585C218.62 559.183 220.91 554.992 221.284 550.8C221.658 546.609 214.896 501.876 217.638 492.092C220.381 482.307 220.91 416.524 221.284 409.747C221.658 402.969 221.175 391.05 221.175 391.05C221.99 391.301 222.861 391.303 223.677 391.056C224.493 390.809 225.217 390.324 225.756 389.663C227.579 387.326 233.624 450.662 235.463 465.573C237.301 480.484 233.172 484.675 231.801 493.992C230.43 503.31 227.236 533.583 227.236 537.323C227.236 541.062 223.123 553.153 224.946 555.49C226.769 557.827 230.648 557.438 232.238 557.874C237.005 559.198 240.729 557.126 242.552 556.659C244.375 556.191 245.918 549.445 245.918 549.445C245.918 549.445 260.595 507.968 263.337 490.72C266.079 473.472 270.644 441.469 269.741 421.9C268.837 402.33 263.337 362.693 263.337 362.693L261.966 351.038L185.713 343.185Z" fill="#263238" stroke="#263238" stroke-width="1.02307" stroke-linecap="round" stroke-linejoin="round"/>
<path d="M179.294 366.899C179.294 366.899 178.406 378.398 185.932 385.908" stroke="white" stroke-width="0.506629" stroke-linecap="round" stroke-linejoin="round"/>
<path d="M179.73 383.259C179.73 383.259 184.155 390.784 189.469 391.657" stroke="white" stroke-width="0.506629" stroke-linecap="round" stroke-linejoin="round"/>
<path d="M215.099 509.09C215.099 509.09 208.867 523.954 208.025 532.072C207.184 540.19 215.099 537.027 216.875 542.433C218.651 547.84 206.265 547.404 208.477 548.744C210.69 550.084 217.311 551.003 217.311 551.003" stroke="white" stroke-width="0.511535" stroke-linecap="round" stroke-linejoin="round"/>
<path d="M227.096 546.047C228.42 545.595 243.456 542.931 241.679 534.782C239.903 526.633 231.069 526.213 232.331 516.755C233.593 507.298 247.351 486.544 247.351 480.685C247.351 474.827 237.628 452.998 236.74 439.474" stroke="white" stroke-width="0.511535" stroke-linecap="round" stroke-linejoin="round"/>
<path d="M248.707 366.027C248.707 366.027 238.533 380.61 237.208 382.823C235.884 385.035 249.143 373.1 249.143 373.1" stroke="white" stroke-width="0.506629" stroke-linecap="round" stroke-linejoin="round"/>
<path d="M222.095 360.869C222.095 360.869 223.201 371.527 223.201 373.724V385.861" stroke="white" stroke-width="0.506629" stroke-linecap="round" stroke-linejoin="round"/>
<path d="M223.201 379.255C223.201 379.255 227.985 378.523 229.075 374.845C230.166 371.168 229.823 363.814 229.823 363.814" stroke="white" stroke-width="0.506629" stroke-linecap="round" stroke-linejoin="round"/>
<path d="M315.518 234.415C310.033 218.414 309.114 209.735 308.662 205.17C308.21 200.605 303.178 201.96 303.178 201.96C303.178 201.96 292.271 208.364 292.271 209.751C292.271 211.137 297.304 244.948 298.207 250.884C298.756 254.364 299.063 257.878 299.127 261.401C299.127 261.401 279.931 240.834 274.898 235.802C271.066 231.953 268.027 228.666 264.771 226.703C263.01 225.144 259.956 224.568 255.251 223.01C247.024 220.268 238.346 213.864 228.28 214.316C221.673 214.77 215.186 216.318 209.085 218.897C209.085 218.897 194.47 225.752 184.405 230.317C183.233 230.841 182.12 231.489 181.086 232.249C179.434 232.047 175.991 232.935 172.065 241.738C166.596 254.078 141.916 286.533 137.787 297.954C133.658 309.375 142.352 320.811 151.95 329.941C158.875 336.751 165.433 343.923 171.597 351.427L182.504 337.997C182.812 340.985 183.333 343.948 184.062 346.862C185.433 351.427 189.998 356.46 208.29 357.769C226.582 359.078 267.669 361.602 266.329 352.284C264.444 339.041 265.41 296.52 264.506 285.1C264.238 277.774 264.389 270.439 264.958 263.131C267.061 265.795 271.19 270.734 274.073 272.682C278.186 275.424 295.574 288.263 302.43 291.036C309.285 293.809 318.883 289.213 322.997 280.129C327.11 271.046 321.002 250.417 315.518 234.415ZM166.534 310.278C164.695 302.971 163.791 300.229 163.791 300.229C163.791 300.229 175.508 287.608 181.148 280.877C181.912 298.935 182.395 318.692 181.865 321.59C181.449 326.449 181.559 331.338 182.192 336.174C179.138 331.982 168.092 316.573 166.534 310.278Z" fill="#334AC0" stroke="#263238" stroke-width="1.01326" stroke-linecap="round" stroke-linejoin="round"/>
<path opacity="0.1" d="M315.518 234.415C310.033 218.414 309.114 209.735 308.662 205.17C308.21 200.605 303.178 201.96 303.178 201.96C303.178 201.96 292.271 208.364 292.271 209.751C292.271 211.137 297.304 244.948 298.207 250.884C298.756 254.364 299.063 257.878 299.127 261.401C299.127 261.401 279.931 240.834 274.898 235.802C271.066 231.953 268.027 228.666 264.771 226.703C263.01 225.144 259.956 224.568 255.251 223.01C247.024 220.268 238.346 213.864 228.28 214.316C221.673 214.77 215.186 216.318 209.085 218.897C209.085 218.897 194.47 225.752 184.405 230.317C183.233 230.841 182.12 231.489 181.086 232.249C179.434 232.047 175.991 232.935 172.065 241.738C166.596 254.078 141.916 286.533 137.787 297.954C133.658 309.375 142.352 320.811 151.95 329.941C158.875 336.751 165.433 343.923 171.597 351.427L182.504 337.997C182.812 340.985 183.333 343.948 184.062 346.862C185.433 351.427 189.998 356.46 208.29 357.769C226.582 359.078 267.669 361.602 266.329 352.284C264.444 339.041 265.41 296.52 264.506 285.1C264.238 277.774 264.389 270.439 264.958 263.131C267.061 265.795 271.19 270.734 274.073 272.682C278.186 275.424 295.574 288.263 302.43 291.036C309.285 293.809 318.883 289.213 322.997 280.129C327.11 271.046 321.002 250.417 315.518 234.415ZM166.534 310.278C164.695 302.971 163.791 300.229 163.791 300.229C163.791 300.229 175.508 287.608 181.148 280.877C181.912 298.935 182.395 318.692 181.865 321.59C181.449 326.449 181.559 331.338 182.192 336.174C179.138 331.982 168.092 316.573 166.534 310.278Z" fill="black"/>
<path d="M186.804 278.914C189.697 274.571 192.215 269.989 194.329 265.218" stroke="#263238" stroke-width="0.759943" stroke-linecap="round" stroke-linejoin="round"/>
<path d="M198.303 266.543C197.245 268.747 195.738 270.706 193.878 272.293" stroke="#263238" stroke-width="0.759943" stroke-linecap="round" stroke-linejoin="round"/>
<path d="M299.064 261.385C299.126 264.019 299.708 266.614 300.778 269.02C301.848 271.427 303.383 273.598 305.297 275.408" stroke="#263238" stroke-width="1.01326" stroke-linecap="round" stroke-linejoin="round"/>
<path d="M300.872 268.755C300.5 272.914 301.431 277.085 303.536 280.69" stroke="#263238" stroke-width="1.01326" stroke-linecap="round" stroke-linejoin="round"/>
<path d="M163.791 300.229C163.791 300.229 160.426 297.035 152.121 298.421" stroke="#263238" stroke-width="0.759943" stroke-linecap="round" stroke-linejoin="round"/>
<path d="M147.524 296.583C147.524 296.583 149.83 292.89 158.571 295.648" stroke="#263238" stroke-width="0.759943" stroke-linecap="round" stroke-linejoin="round"/>
<path d="M274.68 249.124C272.841 249.575 265.004 262.944 265.004 262.944L283.904 257.88" stroke="#263238" stroke-width="0.759943" stroke-linecap="round" stroke-linejoin="round"/>
<path d="M220.412 240.008C220.412 240.008 223.949 244.87 231.911 242.673C239.872 240.476 242.521 232.062 241.259 226.749C239.997 221.436 213.338 225.861 220.412 240.008Z" fill="white" stroke="#263238" stroke-width="1.01326" stroke-linecap="round" stroke-linejoin="round"/>
<path d="M212.84 209.735C212.84 209.735 207.496 213.287 206.795 216.497C206.094 219.707 207.854 230.006 209.272 233.558C210.69 237.11 215.333 245.29 215.333 245.29C215.333 245.29 231.335 236.051 232.472 235.334C233.609 234.618 244.937 241.021 247.414 240.009C249.891 238.996 241.369 217.245 237.458 212.633C233.547 208.021 218.527 205.45 212.84 209.735Z" fill="white" stroke="#263238" stroke-width="1.01326" stroke-linecap="round" stroke-linejoin="round"/>
<path d="M209.957 197.987C209.957 197.987 210.315 203.674 211.032 212.212C211.749 220.75 214.631 227.497 219.306 231.408C223.98 235.318 230.68 237.453 232.456 235.318C234.232 233.184 236.367 224.303 235.572 218.958C234.777 213.614 233.796 202.256 233.796 202.256L209.957 197.987Z" fill="white" stroke="#263238" stroke-width="1.01326" stroke-linecap="round" stroke-linejoin="round"/>
<g style="mix-blend-mode:multiply" opacity="0.5">
<path d="M234.886 212.305C234.357 207.335 233.874 202.256 233.874 202.256L209.957 197.987C209.957 197.987 210.315 203.674 211.032 212.212C211.303 216.16 212.214 220.038 213.728 223.695L234.886 212.305Z" fill="#334AC0"/>
</g>
<path d="M202.167 189.48C202.167 189.48 196.838 184.151 195.763 188.763C194.688 193.375 198.973 200.511 205.018 198.719V194.466L202.167 189.48Z" fill="white" stroke="#263238" stroke-width="1.01326" stroke-linecap="round" stroke-linejoin="round"/>
<path opacity="0.5" d="M202.167 189.48C202.167 189.48 196.838 184.151 195.763 188.763C194.688 193.375 198.973 200.511 205.018 198.719V194.466L202.167 189.48Z" fill="#334AC0" stroke="#263238" stroke-width="1.01326" stroke-linecap="round" stroke-linejoin="round"/>
<path d="M197.493 179.851C197.493 179.851 206.39 203.674 214.211 208.301C222.033 212.929 237.676 217.183 241.945 200.511C246.214 183.839 234.84 159.611 230.93 152.491C227.019 145.37 212.435 143.251 203.196 150.356C193.956 157.461 191.853 164.192 197.493 179.851Z" fill="white" stroke="#263238" stroke-width="1.01326" stroke-linecap="round" stroke-linejoin="round"/>
<g style="mix-blend-mode:multiply" opacity="0.5">
<path d="M207.355 159.674C211.131 157.928 215.225 156.973 219.383 156.87L228.249 149.407C222.422 144.919 210.97 144.374 203.242 150.326C193.987 157.446 191.852 164.193 197.539 179.852C197.539 179.852 206.436 203.675 214.257 208.302C217.032 209.933 220.036 211.136 223.17 211.87C219.399 207.009 213.603 199.281 211.764 195.339C208.96 189.325 207.76 176.907 204.145 169.693C200.531 162.479 201.746 162.479 207.355 159.674Z" fill="#334AC0"/>
</g>
<path d="M225.99 172.73C225.99 172.73 229.543 179.134 228.125 180.521C227.644 180.936 227.065 181.219 226.442 181.345C225.82 181.471 225.176 181.434 224.572 181.238" stroke="#263238" stroke-width="1.01326" stroke-linecap="round" stroke-linejoin="round"/>
<path d="M209.63 171.671C209.63 171.671 210.347 167.402 215.675 167.402" stroke="#263238" stroke-width="2.02651" stroke-linecap="round" stroke-linejoin="round"/>
<path d="M212.84 175.94C212.84 175.94 216.751 177.716 218.168 173.806" stroke="#263238" stroke-width="1.01326" stroke-linecap="round" stroke-linejoin="round"/>
<path d="M229.901 173.089C229.901 173.089 233.812 174.865 235.246 170.954" stroke="#263238" stroke-width="1.01326" stroke-linecap="round" stroke-linejoin="round"/>
<path d="M226.66 164.924C227.61 163.956 228.893 163.387 230.247 163.332C231.602 163.277 232.927 163.74 233.952 164.628" stroke="#263238" stroke-width="2.02651" stroke-linecap="round" stroke-linejoin="round"/>
<path d="M242.676 186.815C238.532 185.008 228.654 181.019 225.35 182.686C221.081 184.821 210.05 192.3 210.05 197.987C210.05 197.987 202.945 188.389 202.945 184.821C202.945 181.253 205.781 180.146 203.304 175.581C200.826 171.016 197.243 170.595 198.318 165.267C199.299 160.328 209.131 155.092 213.899 154.36C216.877 156.88 220.67 158.231 224.571 158.162C232.362 158.162 238.797 153.16 238.797 146.959C238.797 140.758 232.424 135.772 224.571 135.772C222.824 135.764 221.085 136.022 219.414 136.536C211.967 135.99 210.549 141.506 205.391 144.529C200.234 147.551 196.993 156.464 196.993 156.464H197.211C193.441 161.979 193.456 168.632 197.554 179.835C197.554 179.835 206.451 203.658 214.272 208.285C222.094 212.913 237.737 217.167 242.006 200.495C243.044 196.011 243.27 191.379 242.676 186.815Z" fill="#263238" stroke="#263238" stroke-width="1.01326" stroke-linecap="round" stroke-linejoin="round"/>
<path d="M234.186 186.458C234.186 186.458 228.857 193.921 222.812 188.95" stroke="white" stroke-width="1.01326" stroke-linecap="round" stroke-linejoin="round"/>
<path d="M182.971 337.249C185.083 338.582 186.94 340.281 188.455 342.266C190.312 344.808 192.298 347.252 194.407 349.589C194.407 349.589 199.424 350.041 198.972 352.332C198.52 354.622 197.601 355.977 195.311 355.977C193.02 355.977 188.003 351.412 188.003 351.412L180.696 362.833C180.696 362.833 173.84 357.816 171.55 351.412L182.971 337.249Z" fill="white" stroke="#263238" stroke-width="1.01326" stroke-linecap="round" stroke-linejoin="round"/>
<path d="M222.733 256.353C259.081 256.353 288.547 226.887 288.547 190.54C288.547 154.192 259.081 124.726 222.733 124.726C186.386 124.726 156.92 154.192 156.92 190.54C156.92 226.887 186.386 256.353 222.733 256.353Z" stroke="#263238" stroke-width="2.02651" stroke-linecap="round" stroke-linejoin="round"/>
<path d="M282.16 177.748C282.16 177.748 277.579 177.28 276.675 180.022C275.771 182.765 274.385 185.507 274.385 187.345C274.385 189.184 274.837 190.539 277.127 190.991C279.417 191.443 280.789 188.249 280.789 188.249L282.16 177.748Z" fill="white" stroke="#263238" stroke-width="1.01326" stroke-linecap="round" stroke-linejoin="round"/>
<path d="M283.063 174.538C283.063 174.538 280.788 186.878 280.788 190.539C280.888 193.355 281.844 196.073 283.53 198.33C284.364 199.274 285.487 199.916 286.724 200.153L289.015 197.41C289.015 197.41 286.273 201.072 289.918 205.637C293.564 210.202 296.322 209.75 299.516 208.379C302.71 207.008 303.63 205.185 302.259 200.153C300.887 195.12 299.984 186.893 299.064 181.876C298.145 176.859 294.951 175.021 293.128 175.021C291.305 175.021 286.304 173.167 283.063 174.538Z" fill="white" stroke="#263238" stroke-width="1.01326" stroke-linecap="round" stroke-linejoin="round"/>
<path d="M281.395 193.11C281.395 193.11 280.585 190.275 284.029 189.869C287.472 189.464 293.159 188.857 293.159 188.857" stroke="#263238" stroke-width="0.506629" stroke-linecap="round" stroke-linejoin="round"/>
<path d="M281.801 185.818C281.801 185.818 289.7 183.777 292.552 184.182" stroke="#263238" stroke-width="0.506629" stroke-linecap="round" stroke-linejoin="round"/>
<path d="M282.408 180.132C285.356 179.608 288.342 179.337 291.336 179.322" stroke="#263238" stroke-width="0.506629" stroke-linecap="round" stroke-linejoin="round"/>
<path d="M285.042 195.339C285.667 195.901 286.417 196.306 287.23 196.52C288.043 196.734 288.895 196.751 289.716 196.57" stroke="#263238" stroke-width="0.506629" stroke-linecap="round" stroke-linejoin="round"/>
</svg>
