<svg width="638" height="553" viewBox="0 0 638 553" fill="none" xmlns="http://www.w3.org/2000/svg">
<path d="M1 543.966H636.622" stroke="#263238" stroke-linecap="round" stroke-linejoin="round"/>
<path d="M490.164 329.55V329.712C490.164 329.978 490.223 330.259 490.342 330.555C491.003 333.793 491.496 337.064 491.82 340.354C492.101 343.177 492.322 346.399 492.381 349.991C492.522 358.291 491.953 366.588 490.682 374.792C490.357 376.95 489.972 379.226 489.514 381.502C488.79 385.256 487.903 389.188 486.809 393.252C486.322 395.144 485.76 397.08 485.169 399.031L484.474 401.411C484.208 402.372 483.942 403.332 483.691 404.367C481.992 410.933 480.635 417.583 479.626 424.291C478.37 432.641 477.586 440.933 477.158 448.781C476.581 459.246 476.611 468.912 476.862 476.864C476.855 476.997 476.855 477.13 476.862 477.263C477.128 485.347 477.631 491.688 477.971 495.295C478.163 497.408 478.296 498.605 478.311 498.679" stroke="#263238" stroke-linecap="round" stroke-linejoin="round"/>
<path d="M490.209 329.757C487.996 327.79 485.33 326.404 482.449 325.722Z" fill="white"/>
<path d="M490.209 329.757C487.996 327.79 485.33 326.404 482.449 325.722" stroke="#263238" stroke-linecap="round" stroke-linejoin="round"/>
<path d="M491.864 340.398L495.796 336.836" stroke="#263238" stroke-linecap="round" stroke-linejoin="round"/>
<path d="M486.854 393.267C486.648 392.23 486.341 391.215 485.937 390.237C485.355 388.803 484.563 387.463 483.587 386.261C482.859 385.358 482.031 384.54 481.119 383.823" stroke="#263238" stroke-linecap="round" stroke-linejoin="round"/>
<path d="M483.706 404.352C484.263 402.972 485.098 401.721 486.158 400.676C487.218 399.631 488.481 398.815 489.869 398.278" stroke="#263238" stroke-linecap="round" stroke-linejoin="round"/>
<path d="M476.877 459.335C478.192 457.738 479.183 451.693 479.715 448.442C479.848 447.673 479.951 446.964 480.055 446.535" fill="white"/>
<path d="M476.877 459.335C478.192 457.738 479.183 451.693 479.715 448.442C479.848 447.673 479.951 446.964 480.055 446.535" stroke="#263238" stroke-linecap="round" stroke-linejoin="round"/>
<path d="M466.753 470.302C467.19 470.257 467.631 470.257 468.068 470.302C470.004 470.49 471.852 471.201 473.415 472.36C474.977 473.519 476.194 475.081 476.936 476.879" fill="white"/>
<path d="M466.753 470.302C467.19 470.257 467.631 470.257 468.068 470.302C470.004 470.49 471.852 471.201 473.415 472.36C474.977 473.519 476.194 475.081 476.936 476.879" stroke="#263238" stroke-linecap="round" stroke-linejoin="round"/>
<path d="M489.558 381.62C489.558 381.62 490.253 357.632 477.084 348.927" stroke="#263238" stroke-linecap="round" stroke-linejoin="round"/>
<path d="M490.682 433.041C492.411 438.642 480.336 449.299 480.336 449.299C480.336 449.299 464.388 447.304 462.6 441.717C460.811 436.13 464.905 426.937 472.65 424.572C480.395 422.207 489.012 427.439 490.682 433.041Z" fill="#334AC0"/>
<path d="M504.117 365.155C502.639 371.067 491.169 375.309 491.169 375.309C491.169 375.309 483.292 366.101 484.77 360.159C486.248 354.218 492.618 347.685 497.968 349.059C503.319 350.434 505.654 359.213 504.117 365.155Z" fill="#334AC0"/>
<path d="M458.313 453.94C465.482 456.718 469.871 469.4 469.871 469.4C469.871 469.4 458.047 475.77 450.894 472.977C443.74 470.183 436.113 462.32 438.183 457.073C440.252 451.826 451.145 451.087 458.313 453.94Z" fill="#334AC0"/>
<path d="M474.025 384.177C475.476 385.397 477.139 386.339 478.932 386.956C479.831 387.247 480.794 387.285 481.714 387.066C482.635 386.847 483.477 386.38 484.149 385.714C485.627 383.955 485.272 381.28 484.312 379.078C482.39 374.866 475.325 367.697 469.901 369.752C462.067 372.752 470.536 381.62 474.025 384.177Z" fill="#334AC0"/>
<path d="M490.061 394.922C489.026 396.194 487.933 397.805 488.509 399.356C488.831 400.008 489.359 400.536 490.011 400.857C490.663 401.177 491.403 401.273 492.116 401.13C493.533 400.794 494.857 400.142 495.988 399.223C498.752 397.302 504.427 393.311 500.806 389.513C497.185 385.714 492.16 392.247 490.061 394.922Z" fill="#334AC0"/>
<path d="M466.931 341.315C466.334 341.35 465.763 341.571 465.299 341.948C464.835 342.324 464.501 342.837 464.344 343.414C464.108 344.788 465.246 345.985 466.339 346.828C469.088 348.956 477.351 354.661 479.183 349.148C480.927 343.946 470.566 340.916 466.931 341.315Z" fill="#334AC0"/>
<path d="M482.139 323.194C480.439 323.357 478.739 322.736 477.025 322.84C475.31 322.943 473.433 324.318 473.803 326.003C474.172 327.687 476.079 328.057 477.646 328.146C480.343 328.319 483.052 328.135 485.701 327.599C486.328 327.539 486.909 327.243 487.327 326.771C488.021 325.751 486.928 324.392 485.745 324.037C484.531 323.875 483.338 323.588 482.183 323.18L482.139 323.194Z" fill="#334AC0"/>
<path d="M498.781 334.915C500.481 334.915 502.136 334.235 503.851 334.22C505.565 334.205 507.546 335.462 507.265 337.176C506.984 338.891 505.151 339.378 503.585 339.571C500.906 339.925 498.193 339.925 495.515 339.571C494.88 339.556 494.277 339.296 493.83 338.846C493.076 337.886 494.081 336.452 495.219 336.009C496.424 335.784 497.599 335.422 498.722 334.93L498.781 334.915Z" fill="#334AC0"/>
<path d="M497.096 460.872C497.488 460.463 498.011 460.207 498.574 460.147C498.954 460.184 499.309 460.351 499.579 460.621C499.849 460.89 500.016 461.246 500.052 461.625C500.134 462.356 500.043 463.095 499.786 463.783C498.618 467.671 485.612 495.738 482.611 490.698C480.853 487.742 485.198 477.854 486.484 475.061C488.938 469.61 492.561 464.766 497.096 460.872Z" fill="#334AC0"/>
<path d="M490.755 331.368C490.755 331.368 489.972 324.554 491.613 323.978" stroke="#263238" stroke-linecap="round" stroke-linejoin="round"/>
<path d="M489.308 324.258C490.146 321.852 491.592 319.704 493.505 318.021C495.56 316.543 498.856 316.425 500.348 318.479C502.019 320.77 500.348 324.243 497.791 325.47C495.234 326.697 492.219 326.327 489.411 325.928C489.411 325.515 489.411 325.101 489.411 324.687L489.308 324.258Z" fill="#334AC0"/>
<path d="M496.313 543.626C482.38 545.976 468.152 545.976 454.219 543.626L437.843 495.31H512.69L496.313 543.626Z" fill="white" stroke="#263238" stroke-linecap="round" stroke-linejoin="round"/>
<path d="M210.671 194.548V194.71C210.73 194.976 210.789 195.257 210.849 195.553C211.518 198.79 212.012 202.061 212.327 205.352C212.607 208.175 212.814 211.397 212.888 214.989C213.04 223.268 212.486 231.545 211.233 239.731C210.908 241.889 210.523 244.165 210.065 246.441C209.341 250.195 208.439 254.127 207.36 258.191C206.858 260.083 206.311 262.019 205.72 263.97C205.483 264.768 205.247 265.552 205.025 266.35C204.804 267.148 204.478 268.271 204.227 269.306C202.529 275.872 201.173 282.523 200.163 289.229C198.906 297.58 198.138 305.872 197.709 313.72C197.133 324.185 197.147 333.851 197.413 341.803V342.202C197.694 350.286 198.182 356.627 198.537 360.248C198.714 362.347 198.862 363.544 198.862 363.618" stroke="#263238" stroke-linecap="round" stroke-linejoin="round"/>
<path d="M210.701 194.754C209.641 193.826 208.481 193.018 207.243 192.345C205.877 191.626 204.427 191.08 202.927 190.719" fill="white"/>
<path d="M210.701 194.754C209.641 193.826 208.481 193.018 207.243 192.345C205.877 191.626 204.427 191.08 202.927 190.719" stroke="#263238" stroke-linecap="round" stroke-linejoin="round"/>
<path d="M212.356 205.396L216.303 201.834" stroke="#263238" stroke-linecap="round" stroke-linejoin="round"/>
<path d="M207.361 258.265C207.15 257.227 206.838 256.212 206.43 255.235C205.847 253.801 205.055 252.461 204.08 251.259C203.351 250.356 202.523 249.538 201.611 248.82" stroke="#263238" stroke-linecap="round" stroke-linejoin="round"/>
<path d="M204.213 269.291C204.764 267.91 205.595 266.657 206.653 265.612C207.711 264.567 208.974 263.751 210.361 263.216" stroke="#263238" stroke-linecap="round" stroke-linejoin="round"/>
<path d="M197.369 324.332C198.685 322.736 199.69 316.691 200.222 313.439C200.34 312.671 200.458 311.961 200.547 311.533" fill="white"/>
<path d="M197.369 324.332C198.685 322.736 199.69 316.691 200.222 313.439C200.34 312.671 200.458 311.961 200.547 311.533" stroke="#263238" stroke-linecap="round" stroke-linejoin="round"/>
<path d="M187.244 335.24C187.686 335.196 188.132 335.196 188.574 335.24C190.509 335.433 192.355 336.147 193.916 337.305C195.478 338.463 196.696 340.022 197.442 341.817" fill="white"/>
<path d="M187.244 335.24C187.686 335.196 188.132 335.196 188.574 335.24C190.509 335.433 192.355 336.147 193.916 337.305C195.478 338.463 196.696 340.022 197.442 341.817" stroke="#263238" stroke-linecap="round" stroke-linejoin="round"/>
<path d="M210.051 246.559C210.051 246.559 210.76 222.571 197.576 213.865" stroke="#263238" stroke-linecap="round" stroke-linejoin="round"/>
<path d="M211.247 298.038C212.962 303.64 200.901 314.296 200.901 314.296C200.901 314.296 184.939 312.301 183.165 306.714C181.391 301.127 185.486 291.934 193.216 289.569C200.946 287.204 209.518 292.451 211.247 298.038Z" fill="#334AC0"/>
<path d="M224.638 230.153C223.16 236.065 211.691 240.307 211.691 240.307C211.691 240.307 203.724 231.099 205.261 225.157C206.799 219.216 213.095 212.683 218.445 214.058C223.796 215.432 226.116 224.212 224.638 230.153Z" fill="#334AC0"/>
<path d="M178.82 318.937C185.988 321.731 190.393 334.397 190.393 334.397C190.393 334.397 178.569 340.768 171.4 337.974C164.232 335.181 156.62 327.318 158.704 322.071C160.788 316.824 171.637 316.144 178.82 318.937Z" fill="#334AC0"/>
<path d="M194.531 249.175C195.977 250.395 197.636 251.337 199.424 251.954C200.324 252.245 201.286 252.284 202.206 252.065C203.127 251.846 203.969 251.378 204.641 250.713C206.119 248.954 205.764 246.278 204.804 244.076C202.882 239.864 195.832 232.695 190.393 234.75C182.574 237.721 191.029 246.589 194.531 249.175Z" fill="#334AC0"/>
<path d="M210.553 259.935C209.533 261.206 208.44 262.891 209.001 264.369C209.323 265.021 209.851 265.549 210.503 265.869C211.155 266.19 211.895 266.286 212.608 266.143C214.026 265.809 215.351 265.157 216.48 264.236C219.244 262.33 224.92 258.324 221.298 254.526C217.677 250.727 212.726 257.245 210.553 259.935Z" fill="#334AC0"/>
<path d="M187.423 206.313C186.827 206.35 186.257 206.572 185.793 206.948C185.33 207.324 184.995 207.836 184.836 208.411C184.6 209.786 185.738 210.983 186.846 211.826C189.595 213.954 197.843 219.659 199.69 214.146C201.42 208.944 191.073 205.914 187.423 206.313Z" fill="#334AC0"/>
<path d="M202.631 188.192C200.931 188.355 199.232 187.734 197.532 187.837C195.832 187.941 193.925 189.315 194.31 191C194.694 192.685 196.571 193.055 198.153 193.143C200.845 193.317 203.549 193.133 206.193 192.597C206.825 192.538 207.411 192.242 207.834 191.769C208.513 190.749 207.42 189.389 206.252 189.035C205.033 188.874 203.835 188.586 202.675 188.177L202.631 188.192Z" fill="#334AC0"/>
<path d="M219.273 199.913C220.987 199.913 222.643 199.233 224.343 199.218C226.042 199.203 228.038 200.46 227.772 202.174C227.506 203.889 225.643 204.376 224.077 204.569C221.398 204.923 218.685 204.923 216.007 204.569C215.372 204.554 214.769 204.294 214.322 203.844C213.568 202.884 214.573 201.45 215.726 201.007C216.93 200.777 218.104 200.415 219.229 199.928L219.273 199.913Z" fill="#334AC0"/>
<path d="M217.589 325.869C217.982 325.463 218.505 325.207 219.067 325.145C219.443 325.189 219.794 325.359 220.062 325.627C220.331 325.896 220.501 326.247 220.545 326.623C220.621 327.355 220.525 328.094 220.264 328.781C219.111 332.668 206.09 360.736 203.104 355.696C201.33 352.74 205.676 342.852 206.962 340.058C209.42 334.606 213.048 329.762 217.589 325.869Z" fill="#334AC0"/>
<path d="M211.248 196.395C211.248 196.395 210.464 189.582 212.12 189.005" stroke="#263238" stroke-linecap="round" stroke-linejoin="round"/>
<path d="M209.858 189.256C210.685 186.845 212.133 184.693 214.056 183.019C216.11 181.541 219.392 181.423 220.884 183.477C222.555 185.768 220.884 189.242 218.327 190.468C215.77 191.695 212.77 191.326 209.962 190.926C209.962 190.513 209.962 190.099 209.962 189.685L209.858 189.256Z" fill="#334AC0"/>
<path d="M23.4062 357.928V211.885" stroke="#263238" stroke-linecap="round" stroke-linejoin="round"/>
<path d="M479.375 357.928H461.328" stroke="#263238" stroke-linecap="round" stroke-linejoin="round"/>
<path d="M620.895 357.928H584.137" stroke="#263238" stroke-linecap="round" stroke-linejoin="round"/>
<path d="M459.673 136.062H524.809V74.0151" stroke="#263238" stroke-linecap="round" stroke-linejoin="round"/>
<path d="M80.0293 117.115H149.23V167.589H225.082" stroke="#263238" stroke-linecap="round" stroke-linejoin="round"/>
<path d="M39.207 288.047V176.516" stroke="#263238" stroke-linecap="round" stroke-linejoin="round"/>
<path d="M70.127 128.111V215.521" stroke="#263238" stroke-linecap="round" stroke-linejoin="round"/>
<path d="M101.032 128.111V205.382" stroke="#263238" stroke-linecap="round" stroke-linejoin="round"/>
<path d="M131.937 128.111V263.276" stroke="#263238" stroke-linecap="round" stroke-linejoin="round"/>
<path d="M279.99 108.941V20.0676H405.814V108.941" stroke="#263238" stroke-linecap="round" stroke-linejoin="round"/>
<path d="M289.213 64.216V30.6206H312.477" stroke="#263238" stroke-linecap="round" stroke-linejoin="round"/>
<path d="M317.591 64.216V30.6206H340.855" stroke="#263238" stroke-linecap="round" stroke-linejoin="round"/>
<path d="M345.97 64.216V30.6206H369.234" stroke="#263238" stroke-linecap="round" stroke-linejoin="round"/>
<path d="M374.347 64.216V30.6206H397.611" stroke="#263238" stroke-linecap="round" stroke-linejoin="round"/>
<path d="M289.213 108.941V75.3455H312.477" stroke="#263238" stroke-linecap="round" stroke-linejoin="round"/>
<path d="M317.591 108.941V75.3455H340.855" stroke="#263238" stroke-linecap="round" stroke-linejoin="round"/>
<path d="M345.97 108.941V75.3455H369.234" stroke="#263238" stroke-linecap="round" stroke-linejoin="round"/>
<path d="M374.347 108.941V75.3455H397.611" stroke="#263238" stroke-linecap="round" stroke-linejoin="round"/>
<path d="M534.89 81.7009V193.07" stroke="#263238" stroke-linecap="round" stroke-linejoin="round"/>
<path d="M580.575 349.769H584.137" stroke="#263238" stroke-linecap="round" stroke-linejoin="round"/>
<path d="M562.276 113.685V238.371" stroke="#263238" stroke-linecap="round" stroke-linejoin="round"/>
<path d="M589.68 317.933V349.769H611.54" stroke="#263238" stroke-linecap="round" stroke-linejoin="round"/>
<path d="M589.68 154.331V239.006" stroke="#263238" stroke-linecap="round" stroke-linejoin="round"/>
<path d="M617.067 218.58V349.769H622.048" stroke="#263238" stroke-linecap="round" stroke-linejoin="round"/>
<path d="M283.301 360.603H1V543.966H283.301V360.603Z" fill="white" stroke="#263238" stroke-linecap="round" stroke-linejoin="round"/>
<path d="M1 360.603L142.151 452.284L283.301 360.603H1Z" fill="white" stroke="#263238" stroke-linecap="round" stroke-linejoin="round"/>
<path d="M99.7168 424.719L1 543.966" stroke="#263238" stroke-linecap="round" stroke-linejoin="round"/>
<path d="M185.354 424.719L284.07 543.966" stroke="#263238" stroke-linecap="round" stroke-linejoin="round"/>
<path d="M434.369 126.633H368.745C366.855 126.635 365 127.144 363.373 128.105C361.746 129.067 360.406 130.447 359.493 132.102C357.88 135.012 355.518 137.438 352.651 139.127C349.784 140.816 346.517 141.706 343.19 141.706C339.863 141.706 336.596 140.816 333.729 139.127C330.863 137.438 328.5 135.012 326.888 132.102C325.981 130.425 324.639 129.025 323.003 128.05C321.366 127.074 319.496 126.559 317.591 126.559H252.041C250.241 126.536 248.455 126.867 246.784 127.534C245.113 128.201 243.589 129.19 242.3 130.446C241.011 131.702 239.983 133.2 239.273 134.853C238.563 136.506 238.185 138.284 238.162 140.083V510.208C238.213 513.841 239.703 517.305 242.304 519.84C244.906 522.376 248.408 523.775 252.041 523.732H434.369C438.003 523.775 441.506 522.376 444.111 519.841C446.715 517.306 448.208 513.842 448.262 510.208V140.157C448.212 136.522 446.72 133.055 444.115 130.519C441.51 127.983 438.004 126.586 434.369 126.633Z" fill="#334AC0"/>
<path d="M454.663 136.062C454.67 133.569 454.186 131.099 453.237 128.793C452.288 126.487 450.894 124.392 449.134 122.626C447.373 120.86 445.282 119.459 442.979 118.503C440.676 117.547 438.208 117.055 435.714 117.055H250.711C248.223 117.053 245.76 117.542 243.461 118.492C241.162 119.443 239.073 120.837 237.313 122.595C235.554 124.354 234.158 126.442 233.205 128.74C232.253 131.038 231.763 133.501 231.763 135.989V524.988C231.763 530.01 233.757 534.825 237.308 538.376C240.859 541.927 245.675 543.921 250.696 543.921H435.714C440.737 543.921 445.555 541.927 449.108 538.377C452.661 534.827 454.659 530.011 454.663 524.988V136.062ZM448.263 510.208C448.208 513.842 446.715 517.306 444.111 519.841C441.507 522.376 438.003 523.775 434.369 523.732H252.041C248.408 523.775 244.907 522.376 242.305 519.84C239.703 517.305 238.213 513.841 238.162 510.208V140.157C238.186 138.357 238.563 136.58 239.273 134.927C239.983 133.273 241.012 131.776 242.301 130.52C243.589 129.264 245.113 128.274 246.784 127.608C248.455 126.941 250.242 126.609 252.041 126.633H317.621C319.524 126.632 321.392 127.147 323.027 128.123C324.661 129.099 326 130.499 326.903 132.175C328.515 135.086 330.878 137.511 333.744 139.2C336.611 140.889 339.878 141.78 343.205 141.78C346.533 141.78 349.799 140.889 352.666 139.2C355.533 137.511 357.895 135.086 359.508 132.175C360.419 130.519 361.758 129.137 363.386 128.175C365.013 127.213 366.869 126.706 368.76 126.707H434.384C436.183 126.683 437.97 127.014 439.641 127.681C441.312 128.348 442.836 129.338 444.125 130.594C445.413 131.85 446.442 133.347 447.152 135.001C447.862 136.654 448.24 138.431 448.263 140.23V510.208Z" fill="#263238"/>
<path opacity="0.2" d="M391.802 117.115L268.905 543.951L317.709 543.907L436.054 117.115H391.802Z" fill="white"/>
<path opacity="0.2" d="M373.476 117.115L243.543 543.966L250.652 543.922L378.146 117.115H373.476Z" fill="white"/>
<path d="M376.357 434.43C376.448 438.661 375.691 442.867 374.131 446.801C372.571 450.735 370.24 454.317 367.274 457.336C364.309 460.355 360.769 462.751 356.864 464.381C352.959 466.011 348.767 466.843 344.535 466.828C335.9 466.796 327.621 463.389 321.463 457.336C315.305 451.283 311.757 443.063 311.575 434.43C311.487 430.201 312.245 425.996 313.806 422.064C315.366 418.131 317.698 414.551 320.663 411.534C323.628 408.516 327.167 406.122 331.071 404.493C334.976 402.864 339.167 402.032 343.397 402.047C352.03 402.076 360.31 405.479 366.469 411.53C372.627 417.58 376.176 425.799 376.357 434.43Z" fill="white" stroke="#263238" stroke-linecap="round" stroke-linejoin="round"/>
<path d="M333.347 458.61C330.339 457.498 327.581 455.8 325.233 453.615C322.866 451.34 321.033 448.569 319.867 445.5C318.539 442.06 317.882 438.398 317.931 434.711C317.913 431.567 318.469 428.447 319.572 425.503C320.575 422.784 322.079 420.277 324.006 418.113C327.805 413.957 332.713 410.972 338.151 409.511C340.82 408.791 343.574 408.428 346.339 408.432C348.635 408.421 350.923 408.694 353.152 409.245C355.304 409.773 357.362 410.625 359.257 411.772C361.133 412.899 362.815 414.321 364.238 415.984C365.72 417.777 366.853 419.833 367.578 422.044C368.407 424.567 368.816 427.208 368.79 429.863C368.759 434.994 366.91 439.948 363.572 443.845C362.137 445.472 360.438 446.846 358.547 447.91C356.917 448.845 355.076 449.353 353.197 449.388C351.899 449.405 350.632 448.994 349.59 448.22C349.068 447.833 348.642 447.33 348.347 446.75C348.052 446.17 347.896 445.53 347.891 444.88C346.921 446.354 345.59 447.555 344.025 448.37C342.46 449.185 340.713 449.586 338.949 449.535C337.561 449.597 336.177 449.348 334.899 448.806C333.62 448.264 332.479 447.442 331.559 446.402C329.713 444.257 328.738 441.5 328.824 438.672C328.836 436.345 329.241 434.036 330.021 431.843C330.798 429.634 331.899 427.552 333.288 425.665C334.672 423.812 336.436 422.275 338.461 421.157C340.485 420.015 342.773 419.419 345.097 419.428C346.714 419.412 348.308 419.798 349.738 420.551C351.127 421.291 352.252 422.443 352.96 423.847L353.256 422.857C353.491 422.164 353.993 421.592 354.65 421.268C355.306 420.943 356.065 420.893 356.759 421.128C357.027 421.219 357.281 421.349 357.513 421.512C357.733 421.688 357.908 421.914 358.024 422.171C358.14 422.428 358.192 422.709 358.178 422.99C358.178 423.267 358.133 423.541 358.045 423.803L353.256 439.736C352.834 440.95 352.561 442.21 352.443 443.49C352.399 443.729 352.414 443.975 352.488 444.206C352.561 444.438 352.691 444.648 352.865 444.817C353.039 444.986 353.252 445.111 353.485 445.178C353.718 445.246 353.964 445.255 354.202 445.205C355.897 445.096 357.484 444.339 358.636 443.091C360.233 441.513 361.459 439.599 362.227 437.489C363.145 435.185 363.616 432.727 363.617 430.247C363.636 428.063 363.317 425.889 362.671 423.803C362.128 422.004 361.267 420.317 360.129 418.822C359.051 417.46 357.746 416.295 356.271 415.378C354.801 414.451 353.195 413.758 351.512 413.324C349.785 412.87 348.006 412.641 346.221 412.644C343.956 412.647 341.702 412.966 339.525 413.59C337.283 414.225 335.147 415.186 333.184 416.443C331.206 417.691 329.414 419.214 327.864 420.965C326.266 422.81 325.023 424.935 324.198 427.232C323.27 429.733 322.804 432.383 322.824 435.051C322.775 438.211 323.348 441.349 324.508 444.288C325.51 446.833 327.088 449.11 329.12 450.939C331.083 452.643 333.349 453.962 335.801 454.827C338.387 455.741 341.112 456.201 343.856 456.186C346.788 456.186 349.703 455.743 352.502 454.871C352.782 454.771 353.077 454.72 353.374 454.723C353.651 454.719 353.926 454.773 354.181 454.883C354.436 454.992 354.665 455.155 354.852 455.359C355.041 455.555 355.189 455.787 355.288 456.04C355.387 456.294 355.434 456.565 355.429 456.837C355.464 457.267 355.343 457.695 355.088 458.042C354.832 458.39 354.46 458.634 354.039 458.729C350.551 459.795 346.927 460.353 343.279 460.384C339.89 460.38 336.528 459.779 333.347 458.61ZM345.555 443.283C347.017 442.234 348.1 440.741 348.645 439.027L351.734 428.163L351.527 427.72C351.335 427.364 351.101 427.031 350.832 426.73C350.462 426.302 350.056 425.907 349.62 425.547C349.066 425.105 348.442 424.76 347.772 424.527C346.023 423.916 344.108 423.985 342.407 424.719C341.475 425.114 340.62 425.669 339.88 426.36C339.111 427.078 338.426 427.881 337.84 428.754C337.253 429.664 336.758 430.629 336.362 431.637C335.947 432.644 335.625 433.688 335.401 434.755C335.178 435.77 335.064 436.805 335.062 437.844C335.048 438.511 335.088 439.179 335.18 439.84C335.248 440.428 335.377 441.007 335.564 441.569C335.726 442.091 335.96 442.589 336.259 443.047C336.526 443.46 336.867 443.82 337.264 444.111C337.687 444.418 338.163 444.643 338.668 444.776C339.258 444.949 339.871 445.029 340.486 445.013C342.335 445.035 344.139 444.443 345.615 443.328L345.555 443.283Z" fill="#334AC0" stroke="#263238" stroke-linecap="round" stroke-linejoin="round"/>
<path d="M375.633 323.386C375.722 327.616 374.963 331.821 373.403 335.753C371.842 339.685 369.51 343.265 366.545 346.283C363.58 349.3 360.041 351.694 356.137 353.324C352.232 354.953 348.042 355.785 343.811 355.77C335.178 355.741 326.898 352.338 320.74 346.287C314.581 340.236 311.033 332.018 310.851 323.386C310.759 319.155 311.514 314.948 313.073 311.013C314.632 307.078 316.963 303.495 319.929 300.476C322.895 297.456 326.435 295.061 330.342 293.432C334.248 291.802 338.441 290.971 342.673 290.988C351.308 291.021 359.588 294.428 365.746 300.481C371.904 306.534 375.452 314.754 375.633 323.386Z" fill="white" stroke="#263238" stroke-linecap="round" stroke-linejoin="round"/>
<path d="M363.573 320.43C353.419 313.779 333.51 313.779 323.829 320.43C322.058 320.762 320.466 321.72 319.343 323.128C318.219 324.536 317.64 326.301 317.71 328.101C317.858 332.402 335.727 332.402 335.579 328.101C335.492 326.303 334.805 324.586 333.628 323.224C340.33 321.776 347.264 321.776 353.966 323.224C352.875 324.611 352.309 326.338 352.369 328.101C352.517 332.402 370.386 332.402 370.224 328.101C370.14 326.261 369.438 324.503 368.231 323.111C367.024 321.719 365.383 320.774 363.573 320.43Z" fill="#334AC0" stroke="#263238" stroke-linecap="round" stroke-linejoin="round"/>
<path d="M375.633 215.521C375.811 223.487 371.465 230.611 364.489 235.356V254.703L350.61 240.809C348.366 241.211 346.091 241.409 343.811 241.401C325.927 241.401 311.162 229.813 310.852 215.521C310.541 201.228 324.775 189.655 342.673 189.655C360.572 189.655 375.397 201.302 375.633 215.521Z" fill="white" stroke="#263238" stroke-linecap="round" stroke-linejoin="round"/>
<path d="M329.445 215.521C329.448 216.352 329.204 217.165 328.745 217.857C328.285 218.549 327.631 219.089 326.864 219.409C326.097 219.729 325.253 219.814 324.438 219.654C323.622 219.494 322.873 219.095 322.284 218.509C321.696 217.922 321.295 217.174 321.132 216.36C320.968 215.545 321.051 214.7 321.368 213.933C321.685 213.165 322.223 212.508 322.914 212.046C323.604 211.584 324.417 211.338 325.247 211.338C326.358 211.338 327.423 211.778 328.21 212.562C328.997 213.346 329.441 214.41 329.445 215.521Z" fill="#334AC0" stroke="#263238" stroke-linecap="round" stroke-linejoin="round"/>
<path d="M347.403 215.521C347.406 216.352 347.162 217.165 346.703 217.857C346.243 218.549 345.589 219.089 344.822 219.409C344.055 219.729 343.211 219.814 342.396 219.654C341.58 219.494 340.831 219.095 340.243 218.509C339.654 217.922 339.253 217.174 339.09 216.36C338.926 215.545 339.009 214.7 339.326 213.933C339.643 213.165 340.181 212.508 340.872 212.046C341.562 211.584 342.375 211.338 343.205 211.338C344.316 211.338 345.382 211.778 346.168 212.562C346.955 213.346 347.399 214.41 347.403 215.521Z" fill="#334AC0" stroke="#263238" stroke-linecap="round" stroke-linejoin="round"/>
<path d="M365.361 215.521C365.364 216.352 365.12 217.165 364.661 217.857C364.201 218.549 363.547 219.089 362.78 219.409C362.013 219.729 361.169 219.814 360.354 219.654C359.538 219.494 358.789 219.095 358.201 218.509C357.612 217.922 357.211 217.174 357.048 216.36C356.884 215.545 356.967 214.7 357.284 213.933C357.601 213.165 358.139 212.508 358.83 212.046C359.52 211.584 360.333 211.338 361.163 211.338C362.274 211.338 363.34 211.778 364.126 212.562C364.913 213.346 365.357 214.41 365.361 215.521Z" fill="#334AC0" stroke="#263238" stroke-linecap="round" stroke-linejoin="round"/>
<path d="M162.267 274.508C161.742 275.484 160.986 276.317 160.064 276.932C153.246 282.371 146.27 287.589 139.136 292.585C136.52 294.417 133.8 296.309 131.273 298.364C116.079 308.532 125.361 311.015 116.079 332.535C113.891 337.679 114.29 362.879 114.29 362.879H113.536C111.757 361.123 109.866 359.484 107.876 357.972C107.601 357.787 107.314 357.619 107.018 357.47C106.741 357.327 106.441 357.232 106.132 357.189C104.654 357.1 99.0223 357.78 93.3319 357.41L91.8539 357.292C91.0262 357.204 90.2133 357.1 89.4004 356.952C88.5875 356.804 87.8042 356.642 87.0504 356.435C81.6502 354.703 76.355 352.66 71.1912 350.316L68.6195 349.207L67.3484 348.661L66.1955 348.158L65.3678 347.803L64.5697 347.463C63.2247 346.902 61.9684 346.384 60.8156 345.985C60.2871 345.796 59.7494 345.633 59.2045 345.498C59.2045 346.71 59.0124 347.951 58.8498 349.163C58.1403 354.942 56.5589 360.278 53.7358 360.987C53.6777 361.002 53.6166 361.002 53.5585 360.987C53.3098 361.034 53.0576 361.058 52.8047 361.061H52.583C51.9576 361.049 51.3385 360.934 50.7502 360.721C48.1882 359.628 46.0945 357.665 44.8382 355.179C44.2768 354.13 43.9633 352.968 43.9218 351.779C43.9218 347.478 42.7246 322.101 42.7246 314.711C42.7246 307.32 44.2026 294.388 47.8829 289.584C49.3212 287.547 51.1376 285.806 53.2333 284.455C55.9299 282.208 59.0228 280.483 62.3527 279.371C66.2842 278.085 75.0784 274.804 81.2122 272.484L71.945 276.06C74.2951 280.081 79.3351 286.406 88.4249 287.219C96.9679 287.944 102.259 280.214 104.964 274.568C105.2 274.656 120.069 271.833 123.513 271.996C134.731 272.484 143.88 266.409 148.019 264C149.267 263.254 150.668 262.8 152.116 262.671C153.565 262.543 155.023 262.743 156.383 263.258C157.744 263.772 158.97 264.587 159.971 265.642C160.972 266.697 161.721 267.965 162.163 269.35V269.483C162.81 271.089 162.847 272.877 162.267 274.508Z" fill="#334AC0" stroke="#263238" stroke-linecap="round" stroke-linejoin="round"/>
<path d="M104.801 274.656L104.121 274.42" stroke="#263238" stroke-linecap="round" stroke-linejoin="round"/>
<path d="M117.409 369.382C117.416 369.441 117.416 369.501 117.409 369.56C117.349 369.703 117.257 369.83 117.141 369.933C117.025 370.036 116.888 370.111 116.739 370.154C116.59 370.196 116.433 370.205 116.281 370.179C116.128 370.153 115.983 370.093 115.857 370.003C115.177 369.619 114.127 367.151 114.127 367.151L112.96 365.939L112.191 365.126C112.309 365.421 113.241 367.683 112.753 368.732C112.728 368.804 112.688 368.87 112.635 368.924C112.308 369.361 111.884 369.715 111.397 369.958C110.909 370.202 110.371 370.329 109.826 370.328C109.191 370.328 107.328 370.55 105.703 370.653H105.525C105.033 370.681 104.54 370.681 104.047 370.653C102.735 370.485 101.469 370.058 100.323 369.397C97.7226 369.015 95.1608 368.407 92.6665 367.579L92.2231 367.343L91.8241 367.106C91.5617 366.948 91.3186 366.759 91.0998 366.545C90.1991 365.794 89.4342 364.894 88.8385 363.884C88.8385 363.884 82.8377 363.633 74.7825 363.012C71.8265 362.79 68.634 362.51 65.3232 362.184C60.2388 361.667 56.0412 361.697 52.7453 361.238H52.5088C51.8585 361.15 51.2525 361.032 50.6761 360.899C49.2693 360.624 47.9686 359.958 46.9229 358.977C45.8773 357.997 45.129 356.742 44.764 355.356C44.5705 354.7 44.4126 354.034 44.291 353.361L46.8628 348.927C48.2032 347.851 49.698 346.984 51.2968 346.355C53.7774 345.317 56.5165 345.064 59.1451 345.631C59.69 345.766 60.2277 345.929 60.7561 346.118C61.909 346.562 63.1653 347.079 64.5103 347.596L65.3232 347.936L66.1509 348.291L67.3038 348.794C73.8809 351.513 81.7292 355.016 86.9762 356.494C88.5521 356.907 90.1583 357.193 91.7797 357.351L93.2577 357.47C98.9481 357.839 104.565 357.159 106.057 357.248C107.55 357.337 111.201 360.81 113.536 362.953C114.172 363.544 114.733 364.032 115.118 364.328L115.295 364.475L115.428 364.594C116.275 365.462 116.867 366.546 117.143 367.727C117.259 368.123 117.338 368.529 117.379 368.939C117.406 369.085 117.416 369.234 117.409 369.382Z" fill="white" stroke="#263238" stroke-linecap="round" stroke-linejoin="round"/>
<path d="M117.408 369.382C117.415 369.441 117.415 369.501 117.408 369.559C117.347 369.701 117.254 369.827 117.138 369.928C117.021 370.03 116.884 370.104 116.735 370.145C116.586 370.186 116.43 370.193 116.278 370.166C116.126 370.139 115.982 370.078 115.856 369.988C115.126 369.14 114.541 368.176 114.127 367.136L112.96 365.938L112.191 365.14C112.294 365.377 113.255 367.682 112.767 368.747C112.743 368.819 112.702 368.884 112.649 368.939C112.485 369.157 112.297 369.355 112.087 369.53C111.45 370.042 110.658 370.323 109.841 370.328C109.191 370.328 107.343 370.535 105.732 370.653H105.525C105.033 370.681 104.539 370.681 104.047 370.653C102.743 370.479 101.484 370.058 100.337 369.412C97.7372 369.022 95.1756 368.409 92.6811 367.579L92.2525 367.372L91.8534 367.136C91.5979 366.967 91.3557 366.78 91.1292 366.574C90.2153 365.817 89.4401 364.907 88.8383 363.884C88.8383 363.884 83.0149 363.633 75.1223 363.027C72.1662 362.805 68.752 362.509 65.323 362.169C60.6525 361.711 56.7948 361.578 53.6762 361.09L52.7155 360.913L51.607 360.662C51.3514 358.851 51.5391 357.005 52.1539 355.282C52.7268 353.828 53.6153 352.52 54.7553 351.452C55.8952 350.383 57.2582 349.581 58.7458 349.104C60.592 348.425 62.4836 347.877 64.4066 347.463L65.2048 347.803L66.0325 348.158L67.1853 348.66C73.8807 351.542 81.6403 355.031 86.9021 356.464C88.4768 356.879 90.0837 357.161 91.7056 357.307L93.1836 357.425C98.874 357.809 104.49 357.129 105.983 357.218C107.476 357.307 111.112 360.765 113.373 362.908C113.886 363.399 114.424 363.862 114.984 364.298L115.162 364.431L115.295 364.549C116.157 365.406 116.753 366.494 117.009 367.682C117.126 368.078 117.205 368.484 117.246 368.894C117.321 369.049 117.376 369.213 117.408 369.382Z" fill="white" stroke="#263238" stroke-linecap="round" stroke-linejoin="round"/>
<path d="M99.7168 365.451C99.7168 365.451 103.072 367.195 104.402 367.801C105.732 368.407 105.614 370.846 105.614 370.846" fill="white"/>
<path d="M99.7168 365.451C99.7168 365.451 103.072 367.195 104.402 367.801C105.732 368.407 105.614 370.846 105.614 370.846" stroke="#263238" stroke-linecap="round" stroke-linejoin="round"/>
<path d="M103.308 363.086C105.418 364.592 107.451 366.205 109.397 367.919C109.681 368.253 109.867 368.659 109.932 369.093C109.997 369.526 109.94 369.97 109.767 370.372" fill="white"/>
<path d="M103.308 363.086C105.418 364.592 107.451 366.205 109.397 367.919C109.681 368.253 109.867 368.659 109.932 369.093C109.997 369.526 109.94 369.97 109.767 370.372" stroke="#263238" stroke-linecap="round" stroke-linejoin="round"/>
<path d="M112.147 365.111C110.398 363.237 108.548 361.461 106.604 359.79Z" fill="white"/>
<path d="M112.147 365.111C110.398 363.237 108.548 361.461 106.604 359.79" stroke="#263238" stroke-linecap="round" stroke-linejoin="round"/>
<path d="M104.786 274.686C102.111 280.317 96.8051 287.988 88.2621 287.323C79.2167 286.554 74.1323 280.184 71.7822 276.149C75.0339 274.907 78.3298 273.636 81.0346 272.572C81.0346 269.823 80.9459 266.527 80.6503 263.261C80.6503 262.551 80.5025 261.783 80.4286 261.118C80.3547 260.452 80.266 259.979 80.1774 259.433H97.3667C97.3667 259.433 97.2633 260.112 97.1302 261.251C97.0268 262.27 96.8937 263.63 96.7903 265.167C96.6573 267.207 96.5686 269.601 96.6277 271.863C97.4554 272.144 98.2979 272.454 99.1403 272.779L100.766 273.341C101.416 273.577 102.052 273.784 102.732 274.006L104.21 274.449C104.407 274.516 104.599 274.595 104.786 274.686Z" fill="white" stroke="#263238" stroke-linecap="round" stroke-linejoin="round"/>
<path d="M80.4287 261.059C80.4287 261.059 83.636 269.395 88.2918 270.814C92.9475 272.232 97.1599 261.251 97.1599 261.251C97.1599 261.251 90.5975 268.257 88.1587 267.163C85.72 266.069 80.4583 261.118 80.4583 261.118" fill="#263238"/>
<path d="M77.6651 215.018C73.3215 218.928 69.8774 223.734 67.5703 229.104C65.4567 233.538 63.6683 238.637 65.2941 243.278C66.267 245.582 67.6435 247.694 69.3587 249.515C72.5512 253.343 77.0296 264.029 80.2221 267.857C80.429 261.044 74.7239 250.032 75.3299 244.312C76.0638 239.893 77.5168 235.625 79.6309 231.675C81.781 226.496 84.5929 221.618 87.9965 217.161C89.9327 214.826 96.1551 210.673 89.8736 210.17C85.7055 209.83 80.8133 212.432 77.6651 215.018Z" fill="#263238" stroke="#263238" stroke-linecap="round" stroke-linejoin="round"/>
<path d="M73.6447 238.253C73.6447 238.253 71.4425 233.981 69.122 238.031C67.4519 240.987 69.861 245.643 70.8956 247.372C71.239 247.864 71.704 248.259 72.2454 248.518C72.7867 248.777 73.386 248.892 73.9847 248.85L73.6447 238.253Z" fill="white" stroke="#263238" stroke-linecap="round" stroke-linejoin="round"/>
<path d="M102.584 253.683C101.171 256.474 99.3312 259.028 97.1299 261.251L95.7996 262.625C93.0505 265.345 90.0797 267.503 88.1287 267.059C86.429 266.719 84.212 264.975 82.0393 262.743C81.4924 262.197 80.9603 261.605 80.4282 261.014C78.0626 258.426 76.0317 255.551 74.3831 252.456C73.9252 251.296 73.6317 250.077 73.5111 248.835C73.1382 245.133 73.0098 241.41 73.1268 237.691C73.1268 236.376 73.1268 235.326 73.1268 234.735C73.1268 232.163 82.7635 223.221 82.7635 223.221C83.0232 223.126 83.3023 223.095 83.5764 223.132C85.2338 223.434 86.8312 224.003 88.3061 224.817C94.1443 227.655 102.288 233.286 102.879 235.43C103.781 238.548 103.441 250.904 102.584 253.683Z" fill="white" stroke="#263238" stroke-linecap="round" stroke-linejoin="round"/>
<path d="M83.4436 241.829C83.4436 242.864 83.0593 243.707 82.6307 243.707C82.2021 243.707 81.7734 242.894 81.7734 241.829C81.7734 240.765 82.1577 239.923 82.6307 239.923C83.1037 239.923 83.4436 240.795 83.4436 241.829Z" fill="#263238"/>
<path d="M94.4549 239.938C94.9279 239.938 95.3122 240.78 95.3122 241.829C95.3122 242.879 94.9279 243.706 94.4549 243.706C93.9819 243.706 93.5977 242.864 93.5977 241.829C93.5977 240.795 93.9819 239.938 94.4549 239.938Z" fill="#263238"/>
<path d="M77.9453 237.173C77.9453 237.173 79.4233 234.217 84.6555 235.119" stroke="#263238" stroke-linecap="round" stroke-linejoin="round"/>
<path d="M99.3176 237.173C99.3176 237.173 97.8396 234.217 92.6074 235.119" stroke="#263238" stroke-linecap="round" stroke-linejoin="round"/>
<path d="M89.6367 249.057C90.1683 249.024 90.6751 248.82 91.0823 248.477C91.4895 248.134 91.7755 247.669 91.8981 247.15C91.8981 247.15 89.0307 242.716 89.9028 238.371" stroke="#263238" stroke-linecap="round" stroke-linejoin="round"/>
<path d="M71.7825 227.906C70.5917 229.522 69.6914 231.332 69.1221 233.257" stroke="white" stroke-linecap="round" stroke-linejoin="round"/>
<path d="M84.1388 216.082C84.1388 216.082 82.4982 218.802 75.2706 224.344C74.8049 224.681 74.3606 225.046 73.9404 225.438" stroke="white" stroke-linecap="round" stroke-linejoin="round"/>
<path d="M60.9629 302.739C59.9775 316.79 58.9922 330.85 58.0068 344.921V343.842" fill="#263238"/>
<path d="M60.9629 302.739C59.9775 316.79 58.9922 330.85 58.0068 344.921V343.842" stroke="#263238" stroke-linecap="round" stroke-linejoin="round"/>
<path d="M154.329 256.343C155.665 255.821 157.109 255.635 158.533 255.8C159.958 255.965 161.321 256.476 162.503 257.289C164.86 258.959 166.575 261.384 167.365 264.162C168.307 266.929 168.213 269.944 167.099 272.646C166.523 273.978 165.596 275.129 164.416 275.975C163.237 276.821 161.85 277.331 160.404 277.45C158.248 277.422 156.164 276.667 154.492 275.306C148.964 271.168 146.2 259.846 154.329 256.343Z" fill="white" stroke="#263238" stroke-linecap="round" stroke-linejoin="round"/>
<path d="M166.568 209.15C166.568 209.328 166.568 210.495 166.671 210.702C167.189 212.978 168.283 218.669 165.519 219.822C166.568 223.561 169.14 247.993 168.8 260.452C168.711 264.177 168.061 268.596 164.721 270.192C159.089 272.868 153.739 266.35 154.374 261.25C155.365 254.289 155.025 247.195 155.852 240.159C156.754 232.858 158.409 225.379 156.591 218.24C156.148 217.752 153.31 212.121 152.379 210.569C151.961 209.906 151.633 209.19 151.404 208.441C151.04 205.89 150.862 203.317 150.871 200.74C151.714 199.144 152.808 200.622 153.384 201.672C153.854 202.951 154.016 204.323 153.857 205.677C153.802 206.008 153.849 206.348 153.99 206.652C154.114 206.827 154.282 206.965 154.477 207.053C154.671 207.141 154.886 207.176 155.099 207.155C156.917 206.889 156.843 205.367 156.813 204.199C156.813 200.282 156.813 196.365 156.813 192.478C156.813 191.828 157.02 190.069 157.641 190.01C158.262 189.951 159.193 190.453 159.281 192.537C159.385 194.887 159.385 202.13 159.385 202.13C159.443 202.189 159.516 202.233 159.597 202.256C159.677 202.279 159.762 202.282 159.843 202.263C159.991 202.263 160.05 201.997 160.109 201.849C160.981 198.213 161.868 194.577 162.74 190.941C162.843 190.513 163.479 189.626 163.937 189.626C165.031 189.626 165.06 190.897 165.12 191.266C165.504 193.217 162.77 201.258 162.311 203.09C162.311 203.416 162.311 203.903 162.651 203.815L166.938 195.168C167.136 194.663 167.449 194.211 167.852 193.847C168.254 193.483 168.736 193.217 169.258 193.069C169.33 193.047 169.408 193.047 169.48 193.069C169.557 193.114 169.619 193.181 169.657 193.262C170.071 194.001 169.657 195.02 169.421 195.833C169.184 196.646 165.977 202.618 164.839 205.027C164.676 205.367 164.41 206.135 164.735 206.505C165.06 206.874 165.652 206.165 165.888 205.677C166.612 204.199 167.292 202.81 167.957 201.361C168.164 200.933 168.475 200.327 168.962 200.43C171.845 201.051 167.75 207.096 166.568 209.15Z" fill="white" stroke="#263238" stroke-linecap="round" stroke-linejoin="round"/>
<path d="M158.615 207.879C160.103 209.058 161.395 210.465 162.443 212.047C162.96 212.843 163.306 213.737 163.458 214.674C163.611 215.61 163.567 216.568 163.33 217.487C163.258 217.726 163.164 217.959 163.049 218.181" fill="white"/>
<path d="M158.615 207.879C160.103 209.058 161.395 210.465 162.443 212.047C162.96 212.843 163.306 213.737 163.458 214.674C163.611 215.61 163.567 216.568 163.33 217.487C163.258 217.726 163.164 217.959 163.049 218.181" stroke="#263238" stroke-linecap="round" stroke-linejoin="round"/>
<path d="M116.98 300.211C118.545 303.365 119.597 306.747 120.099 310.232C120.528 313.72 120.661 316.454 118.281 326.254" stroke="#263238" stroke-linecap="round" stroke-linejoin="round"/>
<path d="M83.6212 221.004C83.4188 221.609 83.3681 222.253 83.4734 222.881C83.7538 223.672 84.2696 224.358 84.9514 224.847C89.6755 228.987 94.9597 232.44 100.648 235.105C101.361 235.29 101.98 235.736 102.382 236.354C102.784 236.972 102.94 237.718 102.821 238.445V249.87C102.893 251.048 102.779 252.231 102.481 253.373C101.653 256.033 99.8203 258.177 98.4901 260.63C97.1378 262.957 96.4525 265.611 96.5095 268.301C96.14 265.478 106.013 260.009 108.688 248.895C109.058 247.328 116.744 238.002 112.132 227.049C107.698 216.541 100.722 212.018 98.3718 211.471C96.7766 211.005 95.0933 210.925 93.4612 211.239C91.8291 211.552 90.2952 212.25 88.9864 213.274C86.4037 215.198 84.5197 217.912 83.6212 221.004Z" fill="#263238" stroke="#263238" stroke-linecap="round" stroke-linejoin="round"/>
<path d="M93.3026 253.033C92.4601 253.21 91.6029 253.373 90.7456 253.476C87.7896 253.846 84.6266 253.388 82.6904 251.23C82.8382 253.166 84.1685 260.482 88.1443 260.689C92.1202 260.896 93.3026 253.033 93.3026 253.033Z" stroke="#263238" stroke-linecap="round" stroke-linejoin="round"/>
<path d="M89.459 216.541C91.1637 220.411 93.88 223.75 97.322 226.207C99.8199 227.995 102.672 229.281 104.963 231.321C107.919 234.025 109.856 238.312 108.718 242.199" stroke="white" stroke-linecap="round" stroke-linejoin="round"/>
<path d="M120.35 276.252C117.502 278.538 115.627 281.818 115.103 285.431C114.593 288.553 114.977 291.756 116.211 294.669" stroke="#263238" stroke-linecap="round" stroke-linejoin="round"/>
<path d="M65.2934 300.64C65.0569 304.512 62.6478 307.867 60.3125 310.986Z" fill="#263238"/>
<path d="M65.2934 300.64C65.0569 304.512 62.6478 307.867 60.3125 310.986" stroke="#263238" stroke-linecap="round" stroke-linejoin="round"/>
<path d="M59.5293 330.244C60.7032 332.21 62.2745 333.909 64.1426 335.232C66.0107 336.555 68.1344 337.474 70.3779 337.93" stroke="#263238" stroke-linecap="round" stroke-linejoin="round"/>
<path d="M116.079 332.55C116.079 332.55 112.103 338.462 98.5938 339.704" stroke="#263238" stroke-linecap="round" stroke-linejoin="round"/>
<path d="M511.818 280.745C511.818 280.745 460.309 296.708 450.613 284.101L451.929 219.792H459.747L468.941 265.093L511.153 257.363C511.153 257.363 516.562 274.124 511.818 280.745Z" fill="white"/>
<mask id="mask0_386_81" style="mask-type:luminance" maskUnits="userSpaceOnUse" x="450" y="219" width="64" height="70">
<path d="M511.818 280.745C511.818 280.745 460.309 296.708 450.613 284.101L451.929 219.792H459.747L468.941 265.093L511.153 257.363C511.153 257.363 516.562 274.124 511.818 280.745Z" fill="white"/>
</mask>
<g mask="url(#mask0_386_81)">
<path d="M490.121 282.992C487.168 284.166 484.348 285.653 481.711 287.426C485.199 288.535 488.924 287.13 492.412 286.022C497.018 284.607 501.714 283.501 506.468 282.711C506.689 281.396 504.99 278.395 504.325 277.228C503.113 275.188 502.847 275.011 500.807 276.016C497.097 277.878 493.934 281.115 490.121 282.992Z" fill="#334AC0"/>
</g>
<path d="M511.818 280.745C511.818 280.745 460.309 296.708 450.613 284.101L451.929 219.792H459.747L468.941 265.093L511.153 257.363C511.153 257.363 516.562 274.124 511.818 280.745Z" stroke="#263238" stroke-linecap="round" stroke-linejoin="round"/>
<path d="M506.764 282.431L515.809 338.122C515.573 374.216 532.791 368.791 544.749 368.688C558.568 368.57 579.541 354.868 569.254 333.541L573.215 256.344L549.138 254.511C541.201 253.89 508.685 254.91 506.098 259.063C499.388 269.838 506.764 282.431 506.764 282.431Z" fill="white"/>
<mask id="mask1_386_81" style="mask-type:luminance" maskUnits="userSpaceOnUse" x="503" y="254" width="71" height="116">
<path d="M506.765 282.431L515.81 338.123C515.574 374.216 532.792 368.792 544.75 368.688C558.569 368.57 579.542 354.869 569.255 333.541L573.216 256.344L549.139 254.511C541.202 253.89 508.686 254.91 506.099 259.063C499.389 269.838 506.765 282.431 506.765 282.431Z" fill="white"/>
</mask>
<g mask="url(#mask1_386_81)">
<path d="M508.183 287.027C513.555 307.35 526.438 324.876 544.231 336.068C542.305 335.763 540.424 335.222 538.63 334.457C536.825 333.68 534.803 333.57 532.925 334.147C532.471 334.31 532.054 334.561 531.698 334.886C531.342 335.211 531.053 335.603 530.848 336.04C530.644 336.476 530.527 336.949 530.506 337.431C530.484 337.912 530.558 338.393 530.722 338.847C531.154 339.539 531.741 340.121 532.437 340.546C535.371 342.609 538.58 344.251 541.97 345.424C538.997 345.119 535.994 345.349 533.102 346.104C532.57 348.675 535.437 350.538 537.699 351.794C541.307 353.921 544.396 356.824 546.744 360.293C538.808 360.31 530.879 360.764 522.992 361.652C521.953 361.885 520.866 361.782 519.888 361.357C518.865 360.595 518.177 359.467 517.967 358.209C516.21 352.06 515.188 345.724 514.922 339.334C514.775 335.743 514.922 332.122 514.449 328.56C514.068 325.751 513.546 322.964 512.883 320.209C510.587 309.547 508.828 298.802 507.606 287.973C507.059 288.018 508.183 287.027 508.183 287.027Z" fill="#334AC0"/>
<path d="M569.239 282.593C567.245 281.953 565.386 280.951 563.756 279.637C564.214 281.854 567.525 285.682 569.461 286.865C569.86 287.116 570.437 287.323 570.791 286.983C571.146 286.643 571.382 285.771 571.737 285.505L569.239 282.593Z" fill="#334AC0"/>
</g>
<path d="M506.764 282.431L515.809 338.122C515.573 374.216 532.791 368.791 544.749 368.688C558.568 368.57 579.541 354.868 569.254 333.541L573.215 256.344L549.138 254.511C541.201 253.89 508.685 254.91 506.098 259.063C499.388 269.838 506.764 282.431 506.764 282.431Z" stroke="#263238" stroke-linecap="round" stroke-linejoin="round"/>
<path d="M524.366 253.373C521.775 258.117 520.528 263.477 520.76 268.877C520.757 269.349 520.847 269.816 521.026 270.252C521.691 271.567 523.509 271.567 524.972 271.73C530.662 272.454 534.195 278.455 539.56 280.465C539.748 280.581 539.958 280.658 540.176 280.691C540.395 280.724 540.617 280.713 540.831 280.657C541.045 280.602 541.246 280.504 541.421 280.37C541.596 280.235 541.743 280.066 541.851 279.874C544.186 276.918 545.014 272.765 548.206 270.858C549.596 270.03 551.355 269.69 552.315 268.39C553.409 266.912 552.921 264.783 552.389 262.98C551.517 260.024 550.542 256.95 548.28 254.895C545.871 253.015 542.912 251.976 539.856 251.939C535.383 251.573 530.881 251.994 526.553 253.181C526.613 253.743 524.366 253.373 524.366 253.373Z" fill="#334AC0" stroke="#263238" stroke-linecap="round" stroke-linejoin="round"/>
<path d="M595.903 291.166C592.29 285.906 589.629 280.053 588.04 273.873C587.461 270.777 586.559 267.75 585.35 264.842C584.209 262.596 582.561 260.646 580.537 259.145C578.514 257.645 576.169 256.635 573.688 256.196C572.629 255.963 571.528 256.014 570.496 256.344C568.352 257.157 567.406 259.625 566.978 261.872C566.05 266.697 566.324 271.676 567.776 276.371C568.766 279.563 580.664 302.709 588.468 311.681C587.788 307.158 592.991 292.038 595.903 291.166Z" fill="white"/>
<mask id="mask2_386_81" style="mask-type:luminance" maskUnits="userSpaceOnUse" x="566" y="256" width="30" height="56">
<path d="M595.902 291.166C592.289 285.906 589.628 280.053 588.039 273.873C587.46 270.777 586.558 267.75 585.349 264.842C584.208 262.596 582.56 260.646 580.537 259.145C578.513 257.645 576.168 256.635 573.687 256.196C572.629 255.963 571.527 256.014 570.495 256.344C568.351 257.157 567.406 259.625 566.977 261.872C566.049 266.697 566.323 271.676 567.775 276.371C568.765 279.563 580.663 302.709 588.467 311.681C587.787 307.158 592.99 292.038 595.902 291.166Z" fill="white"/>
</mask>
<g mask="url(#mask2_386_81)">
<path d="M572.564 286.628L579.866 300.389C580.915 302.354 582.097 304.453 584.137 305.31C582.854 300.764 582.124 296.079 581.964 291.358C582.044 288.986 581.77 286.614 581.151 284.323C580.856 284.574 580.545 283.51 580.545 283.51C580.22 284.116 579.363 284.13 578.698 283.997C573.924 282.992 570.643 278.736 567.805 274.775C567.436 276.102 567.377 277.496 567.633 278.849C567.89 280.202 568.454 281.479 569.283 282.579C569.283 282.579 572.328 286.17 572.564 286.628Z" fill="#334AC0"/>
</g>
<path d="M595.903 291.166C592.29 285.906 589.629 280.053 588.04 273.873C587.461 270.777 586.559 267.75 585.35 264.842C584.209 262.596 582.561 260.646 580.537 259.145C578.514 257.645 576.169 256.635 573.688 256.196C572.629 255.963 571.528 256.014 570.496 256.344C568.352 257.157 567.406 259.625 566.978 261.872C566.05 266.697 566.324 271.676 567.776 276.371C568.766 279.563 580.664 302.709 588.468 311.681C587.788 307.158 592.991 292.038 595.903 291.166Z" stroke="#263238" stroke-linecap="round" stroke-linejoin="round"/>
<path d="M585.645 307.72C577.693 292.481 581.536 257.363 581.3 251.717L591.794 251.156C592.843 251.156 597.706 281.1 601.017 293.531C603.973 304.852 601.135 316.307 595.903 316.307C591.557 316.307 587.315 310.927 585.645 307.72Z" fill="white" stroke="#263238" stroke-linecap="round" stroke-linejoin="round"/>
<path d="M490.89 268.153C498.28 257.363 512.779 256.506 512.779 256.506" stroke="#263238" stroke-linecap="round" stroke-linejoin="round"/>
<path d="M462.378 274.198C464.613 272.145 466.365 269.621 467.507 266.808Z" fill="white"/>
<path d="M462.378 274.198C464.613 272.145 466.365 269.621 467.507 266.808" stroke="#263238" stroke-linecap="round" stroke-linejoin="round"/>
<path d="M517.287 325.19C521.499 332.092 548.784 339.467 559.662 337.886" stroke="#263238" stroke-linecap="round" stroke-linejoin="round"/>
<path d="M525.002 344.67C532.861 346.022 540.917 345.715 548.65 343.768" stroke="#263238" stroke-linecap="round" stroke-linejoin="round"/>
<path d="M561.199 277.701L566.402 284.751C567.111 285.712 568.102 286.791 569.269 286.525" stroke="#263238" stroke-linecap="round" stroke-linejoin="round"/>
<path d="M599.864 545.133C599.405 547.01 599.258 549.242 600.603 550.646C601.948 552.05 603.899 552.021 605.717 551.991L611.969 551.873C614.38 551.993 616.79 551.616 619.048 550.764C620.178 550.325 621.145 549.55 621.82 548.542C622.494 547.535 622.842 546.345 622.817 545.133C622.663 544.196 622.364 543.288 621.93 542.443C621.369 541.231 620.807 540.004 620.26 538.793C613.358 523.584 602.82 532.836 599.864 545.133Z" fill="white" stroke="#263238" stroke-linecap="round" stroke-linejoin="round"/>
<path d="M591.054 527.205C591.273 534.186 590.688 541.169 589.31 548.016C588.985 549.568 589.31 551.918 590.788 551.77C591.368 551.681 591.894 551.381 592.266 550.927C597.699 545.569 601.584 538.844 603.514 531.462C603.804 530.695 603.94 529.878 603.912 529.059C603.884 528.239 603.693 527.433 603.352 526.688C602.946 526.089 602.447 525.56 601.874 525.121C596.863 521.116 590.596 517.14 591.054 527.205Z" fill="white" stroke="#263238" stroke-linecap="round" stroke-linejoin="round"/>
<path d="M573.895 348.557C573.895 348.557 581.684 362.096 583.354 365.244C585.024 368.392 620.305 414.758 627.074 448.515C628.345 454.93 602.317 526.673 602.317 526.673L596.405 523.333C596.405 523.333 600.514 457.901 599.509 452.462C598.504 447.023 572.535 406.88 572.535 406.88C572.535 406.88 558.036 396.223 552.064 383.837L573.895 348.557Z" fill="#263238"/>
<path d="M574.737 382.478C574.737 382.478 570.303 392.351 570.303 393.77C570.303 395.189 594.69 472.253 601.859 490.078C606.391 501.557 610.387 513.302 613.846 525.314C613.846 525.314 616.624 528.964 614.526 532.704C612.427 536.443 604.076 538.896 602.361 535.556C600.647 532.216 583.753 514.864 576.629 497.601C569.505 480.337 559.484 451.487 553.779 440.741C546.306 427.011 539.673 412.84 533.914 398.307C526.746 379.965 519.415 360.189 519.415 360.189C522.393 360.458 525.384 360.542 528.372 360.441C535.408 360.201 542.374 358.967 549.064 356.775C564.642 351.543 571.382 341.522 571.382 341.522C571.382 341.522 575.24 351.972 576.245 353.996L574.737 382.478Z" fill="#263238"/>
<path d="M624.474 455.122C622.947 457.738 620.894 460.008 618.443 461.788" stroke="white" stroke-linecap="round" stroke-linejoin="round"/>
<path d="M626.379 450.821C626.157 451.542 625.891 452.247 625.581 452.935" stroke="white" stroke-linecap="round" stroke-linejoin="round"/>
<path d="M560.652 359.45C564.584 366.22 568.264 375.96 567.673 383.764C567.356 385.181 566.859 386.552 566.195 387.843" stroke="white" stroke-linecap="round" stroke-linejoin="round"/>
<path d="M536.856 366.973C537.284 370.742 537.861 377.009 537.033 380.704C536.334 384.483 534.166 387.831 531.003 390.015" stroke="white" stroke-linecap="round" stroke-linejoin="round"/>
<path d="M570.377 352.71C571.236 353.78 571.933 354.97 572.446 356.243C573.447 358.07 574.823 359.665 576.484 360.924C578.145 362.182 580.053 363.075 582.083 363.544" stroke="white" stroke-linecap="round" stroke-linejoin="round"/>
<path d="M557.829 367.816C563.047 379.226 567.037 390.666 575.137 410.057" stroke="white" stroke-linecap="round" stroke-linejoin="round"/>
<path d="M555.05 361.978C555.493 362.864 555.922 363.751 556.35 364.638" stroke="white" stroke-linecap="round" stroke-linejoin="round"/>
<path d="M598.475 449.27C600.866 453.878 603.907 458.119 607.505 461.862" stroke="white" stroke-linecap="round" stroke-linejoin="round"/>
<path d="M600.942 453.526C602.508 460.758 605.367 467.648 609.382 473.863" stroke="white" stroke-linecap="round" stroke-linejoin="round"/>
<path d="M564.199 453.895C552.685 429.331 540.403 404.958 525.312 367.816" stroke="white" stroke-linecap="round" stroke-linejoin="round"/>
<path d="M566.8 461.034C566.519 460.177 566.223 459.32 565.913 458.448" stroke="white" stroke-linecap="round" stroke-linejoin="round"/>
<path d="M606.603 536.561C603.647 532.703 582.097 502.566 576.747 488.91C573.185 479.805 570.495 473.376 567.879 464.301" stroke="white" stroke-linecap="round" stroke-linejoin="round"/>
<path d="M598.475 478.563L608.717 508.671" stroke="white" stroke-linecap="round" stroke-linejoin="round"/>
<path d="M591.572 251.171L588.468 251.422C584.535 252.121 580.496 251.934 576.644 250.875C574.176 250.269 568.456 248.495 567.776 248.377C566.076 248.014 564.36 247.737 562.632 247.549C557.415 247.239 560.06 245.288 562.233 245.377C565.1 245.51 566.061 245.451 568.263 245.613C567.997 245.465 567.184 245.303 567.17 244.667C567.17 243.115 569.209 243.189 569.209 243.189C569.209 243.189 566.978 242.243 567.288 241.076C567.598 239.908 569.091 239.598 570.037 239.686C570.037 239.686 568.781 239.08 568.84 238.43C569.106 235.917 574.264 235.74 574.264 235.74C573.017 235.183 571.849 234.462 570.791 233.597C570.405 233.181 570.135 232.672 570.008 232.119C569.98 231.855 570.023 231.589 570.134 231.349C570.244 231.108 570.417 230.901 570.634 230.75C570.852 230.599 571.106 230.509 571.37 230.49C571.634 230.471 571.899 230.523 572.136 230.641C573.47 231.529 574.758 232.487 575.993 233.508C577.59 234.646 579.437 235.371 581.122 236.39C582.764 237.796 584.089 239.534 585.009 241.49C585.275 241.903 591.572 251.171 591.572 251.171Z" fill="white" stroke="#263238" stroke-linecap="round" stroke-linejoin="round"/>
<path d="M451.929 219.792V211.648C451.91 207.562 452.508 203.496 453.703 199.588C454.383 197.43 455.181 195.553 455.905 195.272C457.25 194.784 457.841 200.238 457.841 200.238C456.83 195.865 456.183 191.416 455.905 186.936C455.905 182.191 462.29 201.893 462.29 201.893L459.748 219.792H451.929Z" fill="white" stroke="#263238" stroke-linecap="round" stroke-linejoin="round"/>
<path d="M459.645 206.549C460.417 205.953 460.993 205.14 461.3 204.214Z" fill="white"/>
<path d="M459.645 206.549C460.417 205.953 460.993 205.14 461.3 204.214" stroke="#263238" stroke-linecap="round" stroke-linejoin="round"/>
<path d="M521.543 236.775C524.303 241.422 525.83 246.698 525.977 252.102C526.243 261.088 536.648 273.666 539.619 274.272C542.59 274.878 545.339 260.083 545.206 255.605C545.073 251.126 543.418 238.755 543.418 238.755C543.418 238.755 529.184 227.995 521.543 236.775Z" fill="white" stroke="#263238" stroke-linecap="round" stroke-linejoin="round"/>
<path d="M525.727 248.673C525.727 248.673 539.369 267.281 544.719 248.362C550.07 229.444 529.717 253.535 525.727 248.673Z" fill="#263238"/>
<path d="M548.753 235.297C548.029 246.338 542.989 252.545 537.181 253.639C531.874 254.614 524.115 249.205 520.242 241.179C519.947 240.987 515.232 237.721 514.109 236.923C513.522 236.512 513.043 235.966 512.714 235.33C512.385 234.694 512.214 233.988 512.217 233.272C512.254 232.585 512.497 231.925 512.913 231.377C513.329 230.829 513.9 230.418 514.552 230.198H514.685C515.35 230.053 516.044 230.104 516.68 230.345C515.705 226.576 514.907 222.748 514.301 218.891C514.582 210.023 517.523 202.78 526.982 202.071C536.442 201.361 544.349 206.653 544.718 210.466C544.984 213.422 545.945 221.241 546.802 229.326C547.039 231.424 548.916 232.814 548.753 235.297Z" fill="white" stroke="#263238" stroke-linecap="round" stroke-linejoin="round"/>
<path d="M544.719 222.527C544.719 222.527 538.63 219.733 539.664 228.808C539.871 230.597 543.197 233.242 543.197 233.242C543.197 233.242 542.339 235.918 540.758 235.918" fill="white"/>
<path d="M544.719 222.527C544.719 222.527 538.63 219.733 539.664 228.808C539.871 230.597 543.197 233.242 543.197 233.242C543.197 233.242 542.339 235.918 540.758 235.918" stroke="#263238" stroke-linecap="round" stroke-linejoin="round"/>
<path d="M532.954 225.63C532.954 225.63 529.85 223.739 527.722 224.906C526.611 225.389 525.666 226.185 525.002 227.197" fill="white"/>
<path d="M532.954 225.63C532.954 225.63 529.85 223.739 527.722 224.906C526.611 225.389 525.666 226.185 525.002 227.197" stroke="#263238" stroke-linecap="round" stroke-linejoin="round"/>
<path d="M531.18 230.862C531.417 231.956 531.18 232.932 530.545 233.065C529.909 233.198 529.288 232.4 529.067 231.306C528.845 230.212 529.067 229.237 529.717 229.104C530.367 228.971 530.959 229.754 531.18 230.862Z" fill="#263238"/>
<path d="M543.182 227.67C543.418 228.764 543.182 229.739 542.546 229.872C541.91 230.005 541.29 229.207 541.068 228.128C540.846 227.049 541.068 226.044 541.704 225.926C542.339 225.808 542.96 226.591 543.182 227.67Z" fill="#263238"/>
<path d="M513.592 207.436C512.511 208.495 511.761 209.846 511.434 211.323C510.549 214.448 510.293 217.718 510.681 220.943C511.069 224.167 512.094 227.283 513.695 230.109C514.68 229.988 515.679 230.028 516.651 230.227C517.686 230.493 519.016 232.267 519.504 233.183C519.931 234.16 520.177 235.207 520.228 236.272C519.992 233.464 519.77 230.67 519.533 227.862C519.375 226.739 519.425 225.597 519.681 224.492C520.405 222.187 519.607 216.747 519.814 211.885C525.948 219.378 534.86 218.048 537.816 217.797C542.251 217.427 546.034 212.89 545.798 209.653C545.561 206.416 544.689 198.08 530.072 197.223C526.851 196.88 523.604 197.557 520.79 199.159C519.897 199.747 519.14 200.517 518.566 201.419C517.993 202.321 517.618 203.334 517.464 204.391C517.257 205.751 517.775 205.869 516.74 206.534C515.705 207.199 514.612 206.564 513.592 207.436Z" fill="#263238" stroke="#263238" stroke-linecap="round" stroke-linejoin="round"/>
<path d="M532.953 241.12C532.953 241.12 535.126 243.515 539.663 241.933Z" fill="white"/>
<path d="M532.953 241.12C532.953 241.12 535.126 243.515 539.663 241.933" stroke="#263238" stroke-linecap="round" stroke-linejoin="round"/>
</svg>
