<svg width="194" height="26" viewBox="0 0 194 26" fill="none" xmlns="http://www.w3.org/2000/svg">
<path d="M14.762 24.888L5.64997 12.308L14.388 0.782H21.8L11.838 13.294L11.804 11.152L22.174 24.888H14.762ZM0.141968 24.888V0.782H6.22797V24.888H0.141968Z" fill="white"/>
<path d="M31.341 25.262C29.4823 25.262 27.839 24.8993 26.411 24.174C24.983 23.426 23.861 22.3947 23.045 21.08C22.229 19.7653 21.821 18.258 21.821 16.558C21.821 14.8807 22.2176 13.396 23.011 12.104C23.8043 10.7893 24.881 9.758 26.241 9.01C27.6236 8.23933 29.1763 7.854 30.899 7.854C32.5763 7.854 34.061 8.21667 35.353 8.942C36.6676 9.64467 37.6876 10.6307 38.413 11.9C39.161 13.1467 39.535 14.5747 39.535 16.184C39.535 16.524 39.5123 16.8753 39.467 17.238C39.4443 17.578 39.3763 17.9747 39.263 18.428L24.609 18.496V14.688L36.917 14.586L34.265 16.252C34.2423 15.3227 34.1063 14.5633 33.857 13.974C33.6076 13.362 33.245 12.8973 32.769 12.58C32.293 12.2627 31.6923 12.104 30.967 12.104C30.219 12.104 29.573 12.2853 29.029 12.648C28.485 13.0107 28.0656 13.5207 27.771 14.178C27.4763 14.8353 27.329 15.6287 27.329 16.558C27.329 17.51 27.4876 18.326 27.805 19.006C28.1223 19.6633 28.5756 20.162 29.165 20.502C29.7543 20.842 30.4796 21.012 31.341 21.012C32.157 21.012 32.871 20.876 33.483 20.604C34.1176 20.332 34.6843 19.9127 35.183 19.346L38.277 22.44C37.461 23.3693 36.4636 24.072 35.285 24.548C34.129 25.024 32.8143 25.262 31.341 25.262Z" fill="white"/>
<path d="M46.5015 24.888L39.7355 8.262H46.0595L50.3775 22.27H47.9635L52.2475 8.262H58.5035L51.7375 24.854L46.5015 24.888Z" fill="white"/>
<path d="M60.1629 24.888V8.262H66.1129V24.888H60.1629ZM63.1209 6.324C62.2369 6.324 61.5002 6.02933 60.9109 5.44C60.3215 4.828 60.0269 4.06867 60.0269 3.162C60.0269 2.278 60.3215 1.53 60.9109 0.918C61.5002 0.306 62.2369 0 63.1209 0C64.0502 0 64.7982 0.306 65.3649 0.918C65.9542 1.53 66.2489 2.278 66.2489 3.162C66.2489 4.06867 65.9542 4.828 65.3649 5.44C64.7982 6.02933 64.0502 6.324 63.1209 6.324Z" fill="white"/>
<path d="M80.3381 24.888V15.504C80.3381 14.7333 80.1115 14.1327 79.6581 13.702C79.2048 13.2487 78.6268 13.022 77.9241 13.022C77.4481 13.022 77.0175 13.124 76.6321 13.328C76.2695 13.532 75.9861 13.8153 75.7821 14.178C75.5781 14.5407 75.4761 14.9827 75.4761 15.504L73.1641 14.416C73.1641 13.0787 73.4588 11.934 74.0481 10.982C74.6375 10.0073 75.4421 9.25933 76.4621 8.738C77.5048 8.194 78.6835 7.922 79.9981 7.922C81.1995 7.922 82.2648 8.20533 83.1941 8.772C84.1461 9.316 84.8941 10.0527 85.4381 10.982C85.9821 11.9113 86.2541 12.9653 86.2541 14.144V24.888H80.3381ZM69.5601 24.888V8.262H75.4761V24.888H69.5601Z" fill="white"/>
<path d="M100.894 16.252V11.73H105.654C106.243 11.73 106.776 11.6167 107.252 11.39C107.75 11.1407 108.147 10.778 108.442 10.302C108.736 9.826 108.884 9.23667 108.884 8.534C108.884 7.83133 108.736 7.242 108.442 6.766C108.147 6.26733 107.75 5.90467 107.252 5.678C106.776 5.42867 106.243 5.304 105.654 5.304H100.894V0.782H106.708C108.249 0.782 109.643 1.09933 110.89 1.734C112.136 2.346 113.122 3.23 113.848 4.386C114.573 5.51933 114.936 6.902 114.936 8.534C114.936 10.1207 114.573 11.5033 113.848 12.682C113.122 13.838 112.136 14.722 110.89 15.334C109.643 15.946 108.249 16.252 106.708 16.252H100.894ZM96.0658 24.888V0.782H102.152V24.888H96.0658Z" fill="white"/>
<path d="M125.022 25.262C123.458 25.262 122.064 24.956 120.84 24.344C119.639 23.7093 118.687 22.8367 117.984 21.726C117.304 20.5927 116.964 19.312 116.964 17.884V8.262H122.88V17.884C122.88 18.3373 122.971 18.734 123.152 19.074C123.333 19.414 123.583 19.6747 123.9 19.856C124.217 20.0373 124.591 20.128 125.022 20.128C125.657 20.128 126.167 19.924 126.552 19.516C126.96 19.108 127.164 18.564 127.164 17.884V8.262H133.08V17.884C133.08 19.3347 132.74 20.6153 132.06 21.726C131.38 22.8367 130.428 23.7093 129.204 24.344C128.003 24.956 126.609 25.262 125.022 25.262Z" fill="white"/>
<path d="M136.099 24.888V8.262H142.015V24.888H136.099ZM142.015 15.844L139.363 13.6C140.021 11.7187 140.893 10.302 141.981 9.35C143.069 8.398 144.486 7.922 146.231 7.922C147.025 7.922 147.705 8.024 148.271 8.228C148.861 8.432 149.359 8.74933 149.767 9.18L146.333 13.77C146.152 13.566 145.891 13.4073 145.551 13.294C145.234 13.158 144.871 13.09 144.463 13.09C143.693 13.09 143.092 13.328 142.661 13.804C142.231 14.2573 142.015 14.9373 142.015 15.844Z" fill="white"/>
<path d="M150.874 24.888V8.262H156.824V24.888H150.874ZM153.832 6.324C152.948 6.324 152.211 6.02933 151.622 5.44C151.032 4.828 150.738 4.06867 150.738 3.162C150.738 2.278 151.032 1.53 151.622 0.918C152.211 0.306 152.948 0 153.832 0C154.761 0 155.509 0.306 156.076 0.918C156.665 1.53 156.96 2.278 156.96 3.162C156.96 4.06867 156.665 4.828 156.076 5.44C155.509 6.02933 154.761 6.324 153.832 6.324Z" fill="white"/>
<path d="M168.499 25.262C166.731 25.262 165.133 24.888 163.705 24.14C162.3 23.392 161.189 22.3607 160.373 21.046C159.557 19.7313 159.149 18.2467 159.149 16.592C159.149 14.9147 159.557 13.4187 160.373 12.104C161.212 10.7893 162.334 9.758 163.739 9.01C165.167 8.23933 166.776 7.854 168.567 7.854C169.859 7.854 171.038 8.06933 172.103 8.5C173.168 8.93067 174.143 9.57667 175.027 10.438L171.287 14.178C170.947 13.838 170.55 13.5887 170.097 13.43C169.666 13.2487 169.156 13.158 168.567 13.158C167.932 13.158 167.354 13.3053 166.833 13.6C166.334 13.872 165.926 14.2573 165.609 14.756C165.314 15.2547 165.167 15.8553 165.167 16.558C165.167 17.238 165.314 17.8387 165.609 18.36C165.926 18.8587 166.334 19.2553 166.833 19.55C167.354 19.8447 167.932 19.992 168.567 19.992C169.202 19.992 169.746 19.89 170.199 19.686C170.652 19.482 171.049 19.1873 171.389 18.802L175.163 22.542C174.234 23.4487 173.225 24.1287 172.137 24.582C171.072 25.0353 169.859 25.262 168.499 25.262Z" fill="white"/>
<path d="M183.809 25.228C182.267 25.228 180.896 24.854 179.695 24.106C178.493 23.358 177.553 22.338 176.873 21.046C176.193 19.7313 175.853 18.2467 175.853 16.592C175.853 14.9147 176.193 13.4187 176.873 12.104C177.553 10.7893 178.493 9.76933 179.695 9.044C180.896 8.296 182.267 7.922 183.809 7.922C184.851 7.922 185.803 8.11467 186.665 8.5C187.526 8.86267 188.229 9.384 188.773 10.064C189.339 10.744 189.679 11.5147 189.793 12.376V20.74C189.679 21.624 189.339 22.406 188.773 23.086C188.229 23.7433 187.526 24.2647 186.665 24.65C185.803 25.0353 184.851 25.228 183.809 25.228ZM185.067 19.958C186.041 19.958 186.823 19.6407 187.413 19.006C188.025 18.3713 188.331 17.5553 188.331 16.558C188.331 15.9007 188.195 15.3227 187.923 14.824C187.651 14.3253 187.265 13.9287 186.767 13.634C186.291 13.3393 185.735 13.192 185.101 13.192C184.466 13.192 183.899 13.3393 183.401 13.634C182.925 13.9287 182.539 14.3367 182.245 14.858C181.973 15.3567 181.837 15.9233 181.837 16.558C181.837 17.2153 181.973 17.8047 182.245 18.326C182.517 18.8247 182.902 19.2213 183.401 19.516C183.899 19.8107 184.455 19.958 185.067 19.958ZM188.093 24.888V20.434L188.943 16.354L188.093 12.342V8.262H193.907V24.888H188.093Z" fill="white"/>
</svg>
