<svg width="194" height="26" viewBox="0 0 194 26" fill="none" xmlns="http://www.w3.org/2000/svg">
<path d="M14.762 25.0001L5.64997 12.4201L14.388 0.894061H21.8L11.838 13.4061L11.804 11.2641L22.174 25.0001H14.762ZM0.141968 25.0001V0.894061H6.22797V25.0001H0.141968Z" fill="#2B2A35"/>
<path d="M31.341 25.3741C29.4823 25.3741 27.839 25.0114 26.411 24.2861C24.983 23.5381 23.861 22.5067 23.045 21.1921C22.229 19.8774 21.821 18.3701 21.821 16.6701C21.821 14.9927 22.2176 13.5081 23.011 12.2161C23.8043 10.9014 24.881 9.87006 26.241 9.12206C27.6236 8.35139 29.1763 7.96606 30.899 7.96606C32.5763 7.96606 34.061 8.32873 35.353 9.05406C36.6676 9.75673 37.6876 10.7427 38.413 12.0121C39.161 13.2587 39.535 14.6867 39.535 16.2961C39.535 16.6361 39.5123 16.9874 39.467 17.3501C39.4443 17.6901 39.3763 18.0867 39.263 18.5401L24.609 18.6081V14.8001L36.917 14.6981L34.265 16.3641C34.2423 15.4347 34.1063 14.6754 33.857 14.0861C33.6076 13.4741 33.245 13.0094 32.769 12.6921C32.293 12.3747 31.6923 12.2161 30.967 12.2161C30.219 12.2161 29.573 12.3974 29.029 12.7601C28.485 13.1227 28.0656 13.6327 27.771 14.2901C27.4763 14.9474 27.329 15.7407 27.329 16.6701C27.329 17.6221 27.4876 18.4381 27.805 19.1181C28.1223 19.7754 28.5756 20.2741 29.165 20.6141C29.7543 20.9541 30.4796 21.1241 31.341 21.1241C32.157 21.1241 32.871 20.9881 33.483 20.7161C34.1176 20.4441 34.6843 20.0247 35.183 19.4581L38.277 22.5521C37.461 23.4814 36.4636 24.1841 35.285 24.6601C34.129 25.1361 32.8143 25.3741 31.341 25.3741Z" fill="#2B2A35"/>
<path d="M46.5015 25.0001L39.7355 8.37406H46.0595L50.3775 22.3821H47.9635L52.2475 8.37406H58.5035L51.7375 24.9661L46.5015 25.0001Z" fill="#2B2A35"/>
<path d="M60.1629 25.0001V8.37406H66.1129V25.0001H60.1629ZM63.1209 6.43606C62.2369 6.43606 61.5002 6.1414 60.9109 5.55206C60.3215 4.94006 60.0269 4.18073 60.0269 3.27406C60.0269 2.39006 60.3215 1.64206 60.9109 1.03006C61.5002 0.418061 62.2369 0.112061 63.1209 0.112061C64.0502 0.112061 64.7982 0.418061 65.3649 1.03006C65.9542 1.64206 66.2489 2.39006 66.2489 3.27406C66.2489 4.18073 65.9542 4.94006 65.3649 5.55206C64.7982 6.1414 64.0502 6.43606 63.1209 6.43606Z" fill="#2B2A35"/>
<path d="M80.3381 25.0001V15.6161C80.3381 14.8454 80.1115 14.2447 79.6581 13.8141C79.2048 13.3607 78.6268 13.1341 77.9241 13.1341C77.4481 13.1341 77.0175 13.2361 76.6321 13.4401C76.2695 13.6441 75.9861 13.9274 75.7821 14.2901C75.5781 14.6527 75.4761 15.0947 75.4761 15.6161L73.1641 14.5281C73.1641 13.1907 73.4588 12.0461 74.0481 11.0941C74.6375 10.1194 75.4421 9.37139 76.4621 8.85006C77.5048 8.30606 78.6835 8.03406 79.9981 8.03406C81.1995 8.03406 82.2648 8.31739 83.1941 8.88406C84.1461 9.42806 84.8941 10.1647 85.4381 11.0941C85.9821 12.0234 86.2541 13.0774 86.2541 14.2561V25.0001H80.3381ZM69.5601 25.0001V8.37406H75.4761V25.0001H69.5601Z" fill="#2B2A35"/>
<path d="M100.894 16.3641V11.8421H105.654C106.243 11.8421 106.776 11.7287 107.252 11.5021C107.75 11.2527 108.147 10.8901 108.442 10.4141C108.736 9.93806 108.884 9.34873 108.884 8.64606C108.884 7.94339 108.736 7.35406 108.442 6.87806C108.147 6.3794 107.75 6.01673 107.252 5.79006C106.776 5.54073 106.243 5.41606 105.654 5.41606H100.894V0.894061H106.708C108.249 0.894061 109.643 1.21139 110.89 1.84606C112.136 2.45806 113.122 3.34206 113.848 4.49806C114.573 5.63139 114.936 7.01406 114.936 8.64606C114.936 10.2327 114.573 11.6154 113.848 12.7941C113.122 13.9501 112.136 14.8341 110.89 15.4461C109.643 16.0581 108.249 16.3641 106.708 16.3641H100.894ZM96.0658 25.0001V0.894061H102.152V25.0001H96.0658Z" fill="#2B2A35"/>
<path d="M125.022 25.3741C123.458 25.3741 122.064 25.0681 120.84 24.4561C119.639 23.8214 118.687 22.9487 117.984 21.8381C117.304 20.7047 116.964 19.4241 116.964 17.9961V8.37406H122.88V17.9961C122.88 18.4494 122.971 18.8461 123.152 19.1861C123.333 19.5261 123.583 19.7867 123.9 19.9681C124.217 20.1494 124.591 20.2401 125.022 20.2401C125.657 20.2401 126.167 20.0361 126.552 19.6281C126.96 19.2201 127.164 18.6761 127.164 17.9961V8.37406H133.08V17.9961C133.08 19.4467 132.74 20.7274 132.06 21.8381C131.38 22.9487 130.428 23.8214 129.204 24.4561C128.003 25.0681 126.609 25.3741 125.022 25.3741Z" fill="#2B2A35"/>
<path d="M136.099 25.0001V8.37406H142.015V25.0001H136.099ZM142.015 15.9561L139.363 13.7121C140.021 11.8307 140.893 10.4141 141.981 9.46206C143.069 8.51006 144.486 8.03406 146.231 8.03406C147.025 8.03406 147.705 8.13606 148.271 8.34006C148.861 8.54406 149.359 8.86139 149.767 9.29206L146.333 13.8821C146.152 13.6781 145.891 13.5194 145.551 13.4061C145.234 13.2701 144.871 13.2021 144.463 13.2021C143.693 13.2021 143.092 13.4401 142.661 13.9161C142.231 14.3694 142.015 15.0494 142.015 15.9561Z" fill="#2B2A35"/>
<path d="M150.874 25.0001V8.37406H156.824V25.0001H150.874ZM153.832 6.43606C152.948 6.43606 152.211 6.1414 151.622 5.55206C151.032 4.94006 150.738 4.18073 150.738 3.27406C150.738 2.39006 151.032 1.64206 151.622 1.03006C152.211 0.418061 152.948 0.112061 153.832 0.112061C154.761 0.112061 155.509 0.418061 156.076 1.03006C156.665 1.64206 156.96 2.39006 156.96 3.27406C156.96 4.18073 156.665 4.94006 156.076 5.55206C155.509 6.1414 154.761 6.43606 153.832 6.43606Z" fill="#2B2A35"/>
<path d="M168.499 25.3741C166.731 25.3741 165.133 25.0001 163.705 24.2521C162.3 23.5041 161.189 22.4727 160.373 21.1581C159.557 19.8434 159.149 18.3587 159.149 16.7041C159.149 15.0267 159.557 13.5307 160.373 12.2161C161.212 10.9014 162.334 9.87006 163.739 9.12206C165.167 8.35139 166.776 7.96606 168.567 7.96606C169.859 7.96606 171.038 8.18139 172.103 8.61206C173.168 9.04273 174.143 9.68873 175.027 10.5501L171.287 14.2901C170.947 13.9501 170.55 13.7007 170.097 13.5421C169.666 13.3607 169.156 13.2701 168.567 13.2701C167.932 13.2701 167.354 13.4174 166.833 13.7121C166.334 13.9841 165.926 14.3694 165.609 14.8681C165.314 15.3667 165.167 15.9674 165.167 16.6701C165.167 17.3501 165.314 17.9507 165.609 18.4721C165.926 18.9707 166.334 19.3674 166.833 19.6621C167.354 19.9567 167.932 20.1041 168.567 20.1041C169.202 20.1041 169.746 20.0021 170.199 19.7981C170.652 19.5941 171.049 19.2994 171.389 18.9141L175.163 22.6541C174.234 23.5607 173.225 24.2407 172.137 24.6941C171.072 25.1474 169.859 25.3741 168.499 25.3741Z" fill="#2B2A35"/>
<path d="M183.809 25.3401C182.267 25.3401 180.896 24.9661 179.695 24.2181C178.493 23.4701 177.553 22.4501 176.873 21.1581C176.193 19.8434 175.853 18.3587 175.853 16.7041C175.853 15.0267 176.193 13.5307 176.873 12.2161C177.553 10.9014 178.493 9.88139 179.695 9.15606C180.896 8.40806 182.267 8.03406 183.809 8.03406C184.851 8.03406 185.803 8.22673 186.665 8.61206C187.526 8.97473 188.229 9.49606 188.773 10.1761C189.339 10.8561 189.679 11.6267 189.793 12.4881V20.8521C189.679 21.7361 189.339 22.5181 188.773 23.1981C188.229 23.8554 187.526 24.3767 186.665 24.7621C185.803 25.1474 184.851 25.3401 183.809 25.3401ZM185.067 20.0701C186.041 20.0701 186.823 19.7527 187.413 19.1181C188.025 18.4834 188.331 17.6674 188.331 16.6701C188.331 16.0127 188.195 15.4347 187.923 14.9361C187.651 14.4374 187.265 14.0407 186.767 13.7461C186.291 13.4514 185.735 13.3041 185.101 13.3041C184.466 13.3041 183.899 13.4514 183.401 13.7461C182.925 14.0407 182.539 14.4487 182.245 14.9701C181.973 15.4687 181.837 16.0354 181.837 16.6701C181.837 17.3274 181.973 17.9167 182.245 18.4381C182.517 18.9367 182.902 19.3334 183.401 19.6281C183.899 19.9227 184.455 20.0701 185.067 20.0701ZM188.093 25.0001V20.5461L188.943 16.4661L188.093 12.4541V8.37406H193.907V25.0001H188.093Z" fill="#2B2A35"/>
</svg>
